<svg xmlns="http://www.w3.org/2000/svg" xmlns:xlink="http://www.w3.org/1999/xlink" width="84" zoomAndPan="magnify" viewBox="0 0 63.12 71.04" height="84" preserveAspectRatio="xMidYMid meet" version="1.0"><defs><clipPath id="b81eb3ba31"><path d="M 0 0.015625 L 62.132812 0.015625 L 62.132812 62.148438 L 0 62.148438 Z M 0 0.015625 " clip-rule="nonzero"/></clipPath><clipPath id="fd730f2ecd"><path d="M 2.21875 2.234375 L 60.359375 2.234375 L 60.359375 60.375 L 2.21875 60.375 Z M 2.21875 2.234375 " clip-rule="nonzero"/></clipPath><clipPath id="beef572d9a"><path d="M 31.289062 2.234375 C 15.234375 2.234375 2.21875 15.25 2.21875 31.304688 C 2.21875 47.359375 15.234375 60.375 31.289062 60.375 C 47.34375 60.375 60.359375 47.359375 60.359375 31.304688 C 60.359375 15.25 47.34375 2.234375 31.289062 2.234375 Z M 31.289062 2.234375 " clip-rule="nonzero"/></clipPath><clipPath id="362f97dad0"><path d="M 0.21875 0.234375 L 58.359375 0.234375 L 58.359375 58.375 L 0.21875 58.375 Z M 0.21875 0.234375 " clip-rule="nonzero"/></clipPath><clipPath id="173af42ccb"><path d="M 29.289062 0.234375 C 13.234375 0.234375 0.21875 13.25 0.21875 29.304688 C 0.21875 45.359375 13.234375 58.375 29.289062 58.375 C 45.34375 58.375 58.359375 45.359375 58.359375 29.304688 C 58.359375 13.25 45.34375 0.234375 29.289062 0.234375 Z M 29.289062 0.234375 " clip-rule="nonzero"/></clipPath><clipPath id="cd41708ca9"><rect x="0" width="59" y="0" height="59"/></clipPath><clipPath id="1018f87557"><path d="M 20 41 L 26 41 L 26 48.570312 L 20 48.570312 Z M 20 41 " clip-rule="nonzero"/></clipPath><clipPath id="4a0978ca40"><path d="M 27 38 L 33 38 L 33 48.570312 L 27 48.570312 Z M 27 38 " clip-rule="nonzero"/></clipPath><clipPath id="8edab5c3d2"><path d="M 34 34 L 40 34 L 40 48.570312 L 34 48.570312 Z M 34 34 " clip-rule="nonzero"/></clipPath><clipPath id="95389ee766"><path d="M 39 21 L 48.894531 21 L 48.894531 48.570312 L 39 48.570312 Z M 39 21 " clip-rule="nonzero"/></clipPath><clipPath id="d602f35e52"><path d="M 18 47 L 48 47 L 48 48.570312 L 18 48.570312 Z M 18 47 " clip-rule="nonzero"/></clipPath><clipPath id="ec399d3903"><path d="M 16 13.804688 L 42 13.804688 L 42 40 L 16 40 Z M 16 13.804688 " clip-rule="nonzero"/></clipPath><clipPath id="68994c75ca"><path d="M 13.390625 14 L 29 14 L 29 30 L 13.390625 30 Z M 13.390625 14 " clip-rule="nonzero"/></clipPath></defs><g clip-path="url(#b81eb3ba31)"><path fill="#ffffff" d="M 0 0.015625 L 62.132812 0.015625 L 62.132812 62.148438 L 0 62.148438 Z M 0 0.015625 " fill-opacity="1" fill-rule="nonzero"/><path fill="#107faa" d="M 0 0.015625 L 62.132812 0.015625 L 62.132812 62.148438 L 0 62.148438 Z M 0 0.015625 " fill-opacity="1" fill-rule="nonzero"/></g><g clip-path="url(#fd730f2ecd)"><g clip-path="url(#beef572d9a)"><g transform="matrix(1, 0, 0, 1, 2, 2)"><g clip-path="url(#cd41708ca9)"><g clip-path="url(#362f97dad0)"><g clip-path="url(#173af42ccb)"><path fill="#ffffff" d="M 0.21875 0.234375 L 58.359375 0.234375 L 58.359375 58.375 L 0.21875 58.375 Z M 0.21875 0.234375 " fill-opacity="1" fill-rule="nonzero"/></g></g></g></g></g></g><g clip-path="url(#1018f87557)"><path fill="#107faa" d="M 25.402344 48.800781 L 21.191406 48.800781 C 20.984375 48.800781 20.777344 48.664062 20.777344 48.386719 L 20.777344 41.621094 C 20.777344 41.414062 20.984375 41.207031 21.191406 41.207031 L 25.402344 41.207031 C 25.609375 41.207031 25.816406 41.414062 25.816406 41.621094 L 25.816406 48.386719 C 25.816406 48.664062 25.609375 48.800781 25.402344 48.800781 Z M 21.605469 47.972656 L 24.988281 47.972656 L 24.988281 42.035156 L 21.605469 42.035156 Z M 21.605469 47.972656 " fill-opacity="1" fill-rule="evenodd"/></g><g clip-path="url(#4a0978ca40)"><path fill="#107faa" d="M 32.234375 48.800781 L 28.023438 48.800781 C 27.816406 48.800781 27.609375 48.664062 27.609375 48.386719 L 27.609375 38.859375 C 27.609375 38.652344 27.816406 38.445312 28.023438 38.445312 L 32.234375 38.445312 C 32.511719 38.445312 32.648438 38.652344 32.648438 38.859375 L 32.648438 48.386719 C 32.648438 48.664062 32.511719 48.800781 32.234375 48.800781 Z M 28.4375 47.972656 L 31.820312 47.972656 L 31.820312 39.273438 L 28.4375 39.273438 Z M 28.4375 47.972656 " fill-opacity="1" fill-rule="evenodd"/></g><g clip-path="url(#8edab5c3d2)"><path fill="#107faa" d="M 39.136719 48.800781 L 34.859375 48.800781 C 34.652344 48.800781 34.445312 48.664062 34.445312 48.386719 L 34.445312 34.855469 C 34.445312 34.648438 34.652344 34.441406 34.859375 34.441406 L 39.136719 34.441406 C 39.34375 34.441406 39.550781 34.648438 39.550781 34.855469 L 39.550781 48.386719 C 39.550781 48.664062 39.34375 48.800781 39.136719 48.800781 Z M 35.273438 47.972656 L 38.722656 47.972656 L 38.722656 35.269531 L 35.273438 35.269531 Z M 35.273438 47.972656 " fill-opacity="1" fill-rule="evenodd"/></g><g clip-path="url(#95389ee766)"><path fill="#107faa" d="M 45.972656 48.800781 L 41.761719 48.800781 C 41.554688 48.800781 41.347656 48.664062 41.347656 48.386719 L 41.347656 28.921875 L 39.414062 28.921875 C 39.277344 28.921875 39.136719 28.851562 39.070312 28.714844 C 39 28.574219 39 28.4375 39.070312 28.300781 L 43.417969 21.671875 C 43.488281 21.535156 43.625 21.464844 43.761719 21.464844 C 43.902344 21.464844 43.96875 21.535156 44.109375 21.671875 L 48.59375 28.230469 C 48.664062 28.300781 48.734375 28.4375 48.734375 28.507812 C 48.734375 28.714844 48.527344 28.921875 48.320312 28.921875 L 46.386719 28.921875 L 46.386719 48.386719 C 46.386719 48.664062 46.179688 48.800781 45.972656 48.800781 Z M 42.175781 47.972656 L 45.558594 47.972656 L 45.558594 28.507812 C 45.558594 28.300781 45.765625 28.09375 45.972656 28.09375 L 47.488281 28.09375 L 43.761719 22.640625 L 40.171875 28.09375 L 41.761719 28.09375 C 41.96875 28.09375 42.175781 28.300781 42.175781 28.507812 Z M 42.175781 47.972656 " fill-opacity="1" fill-rule="evenodd"/></g><g clip-path="url(#d602f35e52)"><path fill="#107faa" d="M 47.558594 48.800781 L 18.707031 48.800781 C 18.5 48.800781 18.292969 48.664062 18.292969 48.386719 C 18.292969 48.179688 18.5 47.972656 18.707031 47.972656 L 47.558594 47.972656 C 47.835938 47.972656 47.972656 48.179688 47.972656 48.386719 C 47.972656 48.664062 47.835938 48.800781 47.558594 48.800781 Z M 47.558594 48.800781 " fill-opacity="1" fill-rule="evenodd"/></g><g clip-path="url(#ec399d3903)"><path fill="#107faa" d="M 18.359375 39.480469 C 17.464844 39.480469 16.703125 38.859375 16.566406 38.03125 C 16.496094 37.273438 16.910156 36.375 18.015625 36.03125 C 18.773438 35.824219 19.601562 35.476562 20.15625 35.203125 C 20.363281 35.132812 20.570312 35.0625 20.777344 34.925781 C 22.296875 34.234375 23.8125 33.269531 25.195312 32.304688 C 29.472656 29.195312 32.582031 25.261719 34.445312 20.636719 C 34.71875 19.808594 35.066406 18.910156 35.273438 18.082031 L 35.339844 17.875 L 33.0625 16.910156 C 32.925781 16.839844 32.789062 16.703125 32.789062 16.496094 C 32.789062 16.359375 32.925781 16.21875 33.0625 16.152344 L 38.515625 13.871094 C 38.722656 13.804688 39 13.871094 39.070312 14.078125 L 41.347656 19.601562 C 41.414062 19.738281 41.347656 19.949219 41.277344 20.015625 C 41.140625 20.15625 40.933594 20.222656 40.792969 20.15625 L 38.585938 19.1875 C 37.621094 22.433594 36.167969 25.398438 34.304688 28.09375 C 32.375 30.714844 29.957031 33.132812 27.195312 35.132812 C 25.402344 36.445312 23.46875 37.550781 21.535156 38.378906 C 20.847656 38.722656 19.949219 39.136719 19.050781 39.34375 C 18.773438 39.414062 18.566406 39.480469 18.359375 39.480469 Z M 34.304688 16.496094 L 36.03125 17.253906 C 36.167969 17.324219 36.308594 17.53125 36.238281 17.738281 L 36.101562 18.289062 C 35.824219 19.1875 35.546875 20.085938 35.203125 20.984375 C 33.269531 25.746094 30.09375 29.75 25.746094 32.925781 C 24.226562 34.027344 22.710938 34.925781 21.121094 35.683594 C 20.914062 35.753906 20.707031 35.890625 20.5 35.960938 C 19.878906 36.238281 19.050781 36.652344 18.292969 36.859375 C 17.53125 37.066406 17.324219 37.550781 17.394531 37.894531 C 17.464844 38.308594 17.738281 38.652344 18.359375 38.652344 C 18.5 38.652344 18.636719 38.652344 18.773438 38.585938 C 19.601562 38.308594 20.5 37.964844 21.191406 37.617188 C 23.125 36.789062 24.917969 35.683594 26.714844 34.441406 C 32.167969 30.507812 36.03125 25.125 37.828125 18.773438 L 37.894531 18.496094 C 37.894531 18.429688 38.035156 18.289062 38.101562 18.289062 C 38.242188 18.222656 38.308594 18.222656 38.449219 18.289062 L 40.171875 18.980469 L 38.449219 14.769531 Z M 34.304688 16.496094 " fill-opacity="1" fill-rule="evenodd"/></g><g clip-path="url(#68994c75ca)"><path fill="#107faa" d="M 20.984375 29.75 C 16.84375 29.75 13.390625 26.367188 13.390625 22.226562 C 13.390625 18.015625 16.84375 14.632812 20.984375 14.632812 C 25.195312 14.632812 28.578125 18.015625 28.578125 22.226562 C 28.578125 26.367188 25.195312 29.75 20.984375 29.75 Z M 20.984375 15.460938 C 17.257812 15.460938 14.21875 18.496094 14.21875 22.226562 C 14.21875 25.953125 17.257812 28.921875 20.984375 28.921875 C 24.710938 28.921875 27.75 25.953125 27.75 22.226562 C 27.75 18.496094 24.710938 15.460938 20.984375 15.460938 Z M 20.984375 15.460938 " fill-opacity="1" fill-rule="evenodd"/></g><path fill="#107faa" d="M 20.984375 26.710938 C 19.671875 26.710938 18.566406 25.609375 18.566406 24.226562 C 18.566406 24.019531 18.707031 23.8125 18.980469 23.8125 C 19.1875 23.8125 19.394531 24.019531 19.394531 24.226562 C 19.394531 25.125 20.085938 25.882812 20.984375 25.882812 C 21.882812 25.882812 22.640625 25.125 22.640625 24.226562 C 22.640625 23.328125 21.882812 22.640625 20.984375 22.640625 C 19.671875 22.640625 18.566406 21.535156 18.566406 20.15625 C 18.566406 18.84375 19.671875 17.738281 20.984375 17.738281 C 22.363281 17.738281 23.46875 18.84375 23.46875 20.15625 C 23.46875 20.363281 23.261719 20.570312 23.054688 20.570312 C 22.777344 20.570312 22.640625 20.363281 22.640625 20.15625 C 22.640625 19.257812 21.882812 18.566406 20.984375 18.566406 C 20.085938 18.566406 19.394531 19.257812 19.394531 20.15625 C 19.394531 21.050781 20.085938 21.8125 20.984375 21.8125 C 22.363281 21.8125 23.46875 22.914062 23.46875 24.226562 C 23.46875 25.609375 22.363281 26.710938 20.984375 26.710938 Z M 20.984375 26.710938 " fill-opacity="1" fill-rule="evenodd"/><path fill="#107faa" d="M 20.984375 27.332031 C 20.777344 27.332031 20.570312 27.125 20.570312 26.917969 L 20.570312 17.53125 C 20.570312 17.253906 20.777344 17.117188 20.984375 17.117188 C 21.191406 17.117188 21.398438 17.253906 21.398438 17.53125 L 21.398438 26.917969 C 21.398438 27.125 21.191406 27.332031 20.984375 27.332031 Z M 20.984375 27.332031 " fill-opacity="1" fill-rule="evenodd"/></svg>