<svg xmlns="http://www.w3.org/2000/svg" xmlns:xlink="http://www.w3.org/1999/xlink" width="84" zoomAndPan="magnify" viewBox="0 0 63.12 71.04" height="84" preserveAspectRatio="xMidYMid meet" version="1.0"><defs><clipPath id="ed00cee66b"><path d="M 0 0.015625 L 62.132812 0.015625 L 62.132812 62.148438 L 0 62.148438 Z M 0 0.015625 " clip-rule="nonzero"/></clipPath><clipPath id="7e2f753dde"><path d="M 18 46 L 25 46 L 25 55.898438 L 18 55.898438 Z M 18 46 " clip-rule="nonzero"/></clipPath><clipPath id="4007f7fba1"><path d="M 26 42 L 34 42 L 34 55.898438 L 26 55.898438 Z M 26 42 " clip-rule="nonzero"/></clipPath><clipPath id="ba96579ff5"><path d="M 35 37 L 42 37 L 42 55.898438 L 35 55.898438 Z M 35 37 " clip-rule="nonzero"/></clipPath><clipPath id="f4b3254d89"><path d="M 41 21 L 53.753906 21 L 53.753906 55.898438 L 41 55.898438 Z M 41 21 " clip-rule="nonzero"/></clipPath><clipPath id="ffce322709"><path d="M 14 54 L 53 54 L 53 55.898438 L 14 55.898438 Z M 14 54 " clip-rule="nonzero"/></clipPath><clipPath id="eb65f6ee2d"><path d="M 12 11.519531 L 45 11.519531 L 45 45 L 12 45 Z M 12 11.519531 " clip-rule="nonzero"/></clipPath><clipPath id="456ec44e06"><path d="M 8.632812 12 L 28 12 L 28 32 L 8.632812 32 Z M 8.632812 12 " clip-rule="nonzero"/></clipPath></defs><g clip-path="url(#ed00cee66b)"><path fill="#ffffff" d="M 0 0.015625 L 62.132812 0.015625 L 62.132812 62.148438 L 0 62.148438 Z M 0 0.015625 " fill-opacity="1" fill-rule="nonzero"/><path fill="#ffffff" d="M 0 0.015625 L 62.132812 0.015625 L 62.132812 62.148438 L 0 62.148438 Z M 0 0.015625 " fill-opacity="1" fill-rule="nonzero"/></g><g clip-path="url(#7e2f753dde)"><path fill="#107faa" d="M 23.878906 55.933594 L 18.535156 55.933594 C 18.273438 55.933594 18.007812 55.761719 18.007812 55.410156 L 18.007812 46.824219 C 18.007812 46.5625 18.273438 46.296875 18.535156 46.296875 L 23.878906 46.296875 C 24.140625 46.296875 24.402344 46.5625 24.402344 46.824219 L 24.402344 55.410156 C 24.402344 55.761719 24.140625 55.933594 23.878906 55.933594 Z M 19.058594 54.882812 L 23.351562 54.882812 L 23.351562 47.351562 L 19.058594 47.351562 Z M 19.058594 54.882812 " fill-opacity="1" fill-rule="evenodd"/></g><g clip-path="url(#4007f7fba1)"><path fill="#107faa" d="M 32.550781 55.933594 L 27.207031 55.933594 C 26.945312 55.933594 26.683594 55.761719 26.683594 55.410156 L 26.683594 43.320312 C 26.683594 43.058594 26.945312 42.792969 27.207031 42.792969 L 32.550781 42.792969 C 32.902344 42.792969 33.078125 43.058594 33.078125 43.320312 L 33.078125 55.410156 C 33.078125 55.761719 32.902344 55.933594 32.550781 55.933594 Z M 27.734375 54.882812 L 32.027344 54.882812 L 32.027344 43.84375 L 27.734375 43.84375 Z M 27.734375 54.882812 " fill-opacity="1" fill-rule="evenodd"/></g><g clip-path="url(#ba96579ff5)"><path fill="#107faa" d="M 41.3125 55.933594 L 35.878906 55.933594 C 35.617188 55.933594 35.355469 55.761719 35.355469 55.410156 L 35.355469 38.238281 C 35.355469 37.976562 35.617188 37.714844 35.878906 37.714844 L 41.3125 37.714844 C 41.574219 37.714844 41.835938 37.976562 41.835938 38.238281 L 41.835938 55.410156 C 41.835938 55.761719 41.574219 55.933594 41.3125 55.933594 Z M 36.40625 54.882812 L 40.785156 54.882812 L 40.785156 38.765625 L 36.40625 38.765625 Z M 36.40625 54.882812 " fill-opacity="1" fill-rule="evenodd"/></g><g clip-path="url(#f4b3254d89)"><path fill="#107faa" d="M 49.984375 55.933594 L 44.640625 55.933594 C 44.378906 55.933594 44.113281 55.761719 44.113281 55.410156 L 44.113281 30.703125 L 41.664062 30.703125 C 41.488281 30.703125 41.3125 30.617188 41.222656 30.441406 C 41.136719 30.265625 41.136719 30.089844 41.222656 29.917969 L 46.742188 21.507812 C 46.832031 21.332031 47.007812 21.242188 47.179688 21.242188 C 47.355469 21.242188 47.445312 21.332031 47.621094 21.507812 L 53.3125 29.828125 C 53.402344 29.917969 53.488281 30.089844 53.488281 30.179688 C 53.488281 30.441406 53.226562 30.703125 52.964844 30.703125 L 50.511719 30.703125 L 50.511719 55.410156 C 50.511719 55.761719 50.246094 55.933594 49.984375 55.933594 Z M 45.167969 54.882812 L 49.460938 54.882812 L 49.460938 30.179688 C 49.460938 29.917969 49.722656 29.652344 49.984375 29.652344 L 51.910156 29.652344 L 47.179688 22.734375 L 42.625 29.652344 L 44.640625 29.652344 C 44.902344 29.652344 45.167969 29.917969 45.167969 30.179688 Z M 45.167969 54.882812 " fill-opacity="1" fill-rule="evenodd"/></g><g clip-path="url(#ffce322709)"><path fill="#107faa" d="M 52 55.933594 L 15.378906 55.933594 C 15.117188 55.933594 14.855469 55.761719 14.855469 55.410156 C 14.855469 55.148438 15.117188 54.882812 15.378906 54.882812 L 52 54.882812 C 52.351562 54.882812 52.523438 55.148438 52.523438 55.410156 C 52.523438 55.761719 52.351562 55.933594 52 55.933594 Z M 52 55.933594 " fill-opacity="1" fill-rule="evenodd"/></g><g clip-path="url(#eb65f6ee2d)"><path fill="#107faa" d="M 14.941406 44.109375 C 13.804688 44.109375 12.839844 43.320312 12.664062 42.269531 C 12.578125 41.304688 13.101562 40.167969 14.503906 39.726562 C 15.46875 39.464844 16.519531 39.027344 17.21875 38.675781 C 17.484375 38.589844 17.746094 38.5 18.007812 38.328125 C 19.9375 37.449219 21.863281 36.222656 23.617188 34.996094 C 29.046875 31.054688 32.988281 26.0625 35.355469 20.191406 C 35.703125 19.140625 36.144531 18 36.40625 16.949219 L 36.492188 16.6875 L 33.601562 15.460938 C 33.425781 15.375 33.253906 15.199219 33.253906 14.9375 C 33.253906 14.761719 33.425781 14.585938 33.601562 14.496094 L 40.523438 11.605469 C 40.785156 11.519531 41.136719 11.605469 41.222656 11.871094 L 44.113281 18.878906 C 44.203125 19.054688 44.113281 19.316406 44.027344 19.402344 C 43.851562 19.578125 43.589844 19.667969 43.414062 19.578125 L 40.609375 18.351562 C 39.382812 22.46875 37.542969 26.238281 35.179688 29.652344 C 32.726562 32.984375 29.660156 36.046875 26.15625 38.589844 C 23.878906 40.253906 21.425781 41.65625 18.972656 42.707031 C 18.097656 43.144531 16.957031 43.671875 15.820312 43.933594 C 15.46875 44.019531 15.207031 44.109375 14.941406 44.109375 Z M 35.179688 14.9375 L 37.371094 15.898438 C 37.542969 15.988281 37.71875 16.25 37.632812 16.511719 L 37.457031 17.214844 C 37.105469 18.351562 36.757812 19.492188 36.316406 20.628906 C 33.867188 26.675781 29.835938 31.757812 24.316406 35.785156 C 22.390625 37.1875 20.460938 38.328125 18.445312 39.289062 C 18.183594 39.378906 17.921875 39.554688 17.660156 39.640625 C 16.871094 39.992188 15.820312 40.515625 14.855469 40.78125 C 13.890625 41.042969 13.628906 41.65625 13.714844 42.09375 C 13.804688 42.617188 14.152344 43.058594 14.941406 43.058594 C 15.117188 43.058594 15.292969 43.058594 15.46875 42.96875 C 16.519531 42.617188 17.660156 42.179688 18.535156 41.742188 C 20.988281 40.691406 23.265625 39.289062 25.542969 37.714844 C 32.464844 32.71875 37.371094 25.886719 39.648438 17.828125 L 39.734375 17.476562 C 39.734375 17.390625 39.910156 17.214844 39.996094 17.214844 C 40.171875 17.125 40.261719 17.125 40.4375 17.214844 L 42.625 18.089844 L 40.4375 12.746094 Z M 35.179688 14.9375 " fill-opacity="1" fill-rule="evenodd"/></g><g clip-path="url(#456ec44e06)"><path fill="#107faa" d="M 18.273438 31.757812 C 13.015625 31.757812 8.636719 27.464844 8.636719 22.207031 C 8.636719 16.863281 13.015625 12.570312 18.273438 12.570312 C 23.617188 12.570312 27.90625 16.863281 27.90625 22.207031 C 27.90625 27.464844 23.617188 31.757812 18.273438 31.757812 Z M 18.273438 13.621094 C 13.539062 13.621094 9.6875 17.476562 9.6875 22.207031 C 9.6875 26.9375 13.539062 30.703125 18.273438 30.703125 C 23.003906 30.703125 26.855469 26.9375 26.855469 22.207031 C 26.855469 17.476562 23.003906 13.621094 18.273438 13.621094 Z M 18.273438 13.621094 " fill-opacity="1" fill-rule="evenodd"/></g><path fill="#107faa" d="M 18.273438 27.902344 C 16.605469 27.902344 15.207031 26.5 15.207031 24.746094 C 15.207031 24.484375 15.378906 24.222656 15.730469 24.222656 C 15.992188 24.222656 16.257812 24.484375 16.257812 24.746094 C 16.257812 25.886719 17.132812 26.851562 18.273438 26.851562 C 19.410156 26.851562 20.375 25.886719 20.375 24.746094 C 20.375 23.609375 19.410156 22.734375 18.273438 22.734375 C 16.605469 22.734375 15.207031 21.332031 15.207031 19.578125 C 15.207031 17.914062 16.605469 16.511719 18.273438 16.511719 C 20.023438 16.511719 21.425781 17.914062 21.425781 19.578125 C 21.425781 19.839844 21.164062 20.105469 20.898438 20.105469 C 20.550781 20.105469 20.375 19.839844 20.375 19.578125 C 20.375 18.441406 19.410156 17.5625 18.273438 17.5625 C 17.132812 17.5625 16.257812 18.441406 16.257812 19.578125 C 16.257812 20.71875 17.132812 21.679688 18.273438 21.679688 C 20.023438 21.679688 21.425781 23.082031 21.425781 24.746094 C 21.425781 26.5 20.023438 27.902344 18.273438 27.902344 Z M 18.273438 27.902344 " fill-opacity="1" fill-rule="evenodd"/><path fill="#107faa" d="M 18.273438 28.691406 C 18.007812 28.691406 17.746094 28.425781 17.746094 28.164062 L 17.746094 16.25 C 17.746094 15.898438 18.007812 15.722656 18.273438 15.722656 C 18.535156 15.722656 18.796875 15.898438 18.796875 16.25 L 18.796875 28.164062 C 18.796875 28.425781 18.535156 28.691406 18.273438 28.691406 Z M 18.273438 28.691406 " fill-opacity="1" fill-rule="evenodd"/></svg>