<svg xmlns="http://www.w3.org/2000/svg" xmlns:xlink="http://www.w3.org/1999/xlink" width="84" zoomAndPan="magnify" viewBox="0 0 63.12 71.04" height="84" preserveAspectRatio="xMidYMid meet" version="1.0"><defs><clipPath id="f937126945"><path d="M 0 0.015625 L 62.132812 0.015625 L 62.132812 62.148438 L 0 62.148438 Z M 0 0.015625 " clip-rule="nonzero"/></clipPath><clipPath id="b8e9d6a4a5"><path d="M 6.613281 7.148438 L 27 7.148438 L 27 25 L 6.613281 25 Z M 6.613281 7.148438 " clip-rule="nonzero"/></clipPath><clipPath id="f5ebc90e96"><path d="M 37 37 L 55.433594 37 L 55.433594 55.96875 L 37 55.96875 Z M 37 37 " clip-rule="nonzero"/></clipPath></defs><g clip-path="url(#f937126945)"><path fill="#ffffff" d="M 0 0.015625 L 62.132812 0.015625 L 62.132812 62.148438 L 0 62.148438 Z M 0 0.015625 " fill-opacity="1" fill-rule="nonzero"/><path fill="#ffffff" d="M 0 0.015625 L 62.132812 0.015625 L 62.132812 62.148438 L 0 62.148438 Z M 0 0.015625 " fill-opacity="1" fill-rule="nonzero"/></g><path fill="#107faa" d="M 46.929688 23.988281 L 50.003906 20.910156 L 47.953125 18.855469 L 48.957031 17.851562 C 49.511719 17.296875 49.511719 16.390625 48.957031 15.839844 L 46.730469 13.613281 C 46.175781 13.058594 45.269531 13.058594 44.71875 13.613281 L 43.710938 14.617188 L 41.734375 12.640625 L 38.660156 15.714844 C 42.265625 17.449219 45.195312 20.382812 46.929688 23.988281 Z M 46.929688 23.988281 " fill-opacity="1" fill-rule="evenodd"/><path fill="#107faa" d="M 46.914062 36.34375 C 46.707031 36.332031 46.5 36.324219 46.289062 36.324219 C 45.710938 36.324219 45.140625 36.371094 44.582031 36.464844 C 45.148438 34.925781 45.457031 33.269531 45.457031 31.542969 C 45.457031 23.640625 38.992188 17.179688 31.09375 17.179688 C 29.046875 17.179688 27.097656 17.613281 25.332031 18.390625 L 24.242188 16.5 C 26.332031 15.539062 28.652344 15.003906 31.09375 15.003906 C 40.191406 15.003906 47.632812 22.445312 47.632812 31.542969 C 47.632812 33.210938 47.378906 34.820312 46.914062 36.34375 Z M 31.09375 48.078125 C 32.761719 48.078125 34.375 47.828125 35.894531 47.363281 C 35.882812 47.15625 35.875 46.949219 35.875 46.738281 C 35.875 46.15625 35.925781 45.585938 36.015625 45.03125 C 34.480469 45.597656 32.820312 45.90625 31.09375 45.90625 C 23.191406 45.90625 16.730469 39.441406 16.730469 31.542969 C 16.730469 29.582031 17.125 27.714844 17.84375 26.007812 L 15.515625 26.007812 C 14.894531 27.738281 14.554688 29.605469 14.554688 31.542969 C 14.554688 40.636719 21.996094 48.078125 31.09375 48.078125 Z M 31.09375 48.078125 " fill-opacity="1" fill-rule="evenodd"/><path fill="#107faa" d="M 31.09375 29.757812 C 31.460938 29.757812 31.792969 29.90625 32.035156 30.148438 C 32.277344 30.390625 32.425781 30.722656 32.425781 31.089844 C 32.425781 31.453125 32.273438 31.785156 32.035156 32.027344 C 31.792969 32.269531 31.460938 32.421875 31.09375 32.421875 C 30.730469 32.421875 30.394531 32.269531 30.152344 32.027344 C 29.914062 31.785156 29.761719 31.453125 29.761719 31.089844 C 29.761719 30.722656 29.914062 30.390625 30.152344 30.148438 C 30.394531 29.90625 30.726562 29.757812 31.09375 29.757812 Z M 31.09375 28.335938 C 30.335938 28.335938 29.644531 28.644531 29.148438 29.140625 C 28.648438 29.640625 28.339844 30.332031 28.339844 31.089844 C 28.339844 31.847656 28.648438 32.535156 29.148438 33.035156 C 29.484375 33.371094 29.910156 33.621094 30.382812 33.75 L 30.382812 37.464844 C 30.382812 37.859375 30.703125 38.175781 31.09375 38.175781 C 31.484375 38.175781 31.804688 37.859375 31.804688 37.464844 L 31.804688 33.75 C 32.277344 33.621094 32.703125 33.371094 33.039062 33.035156 C 33.539062 32.535156 33.847656 31.847656 33.847656 31.089844 C 33.847656 30.707031 33.769531 30.34375 33.628906 30.011719 L 37.082031 26.5625 C 37.359375 26.285156 37.359375 25.832031 37.082031 25.554688 C 36.800781 25.277344 36.351562 25.277344 36.074219 25.554688 L 32.742188 28.886719 C 32.285156 28.539062 31.710938 28.335938 31.09375 28.335938 Z M 31.804688 44.871094 C 33.386719 44.785156 34.894531 44.425781 36.289062 43.832031 C 36.714844 42.359375 37.457031 41.019531 38.441406 39.894531 L 37.875 39.328125 C 37.597656 39.050781 37.597656 38.601562 37.875 38.324219 C 38.152344 38.046875 38.601562 38.046875 38.878906 38.324219 L 39.445312 38.890625 C 40.570312 37.90625 41.910156 37.164062 43.382812 36.738281 C 43.976562 35.34375 44.335938 33.835938 44.421875 32.253906 L 41.394531 32.253906 C 41.003906 32.253906 40.683594 31.933594 40.683594 31.542969 C 40.683594 31.148438 41.003906 30.832031 41.394531 30.832031 L 44.421875 30.832031 C 44.253906 27.691406 42.992188 24.835938 41.011719 22.632812 L 38.882812 24.761719 C 38.605469 25.039062 38.152344 25.039062 37.875 24.761719 C 37.597656 24.480469 37.597656 24.03125 37.875 23.753906 L 40.003906 21.625 C 37.800781 19.644531 34.941406 18.378906 31.804688 18.214844 L 31.804688 21.242188 C 31.804688 21.632812 31.488281 21.953125 31.09375 21.953125 C 30.703125 21.953125 30.382812 21.632812 30.382812 21.242188 L 30.382812 18.214844 C 28.78125 18.300781 27.25 18.667969 25.84375 19.277344 L 27.558594 22.246094 C 28.011719 23.03125 28.011719 23.96875 27.558594 24.753906 C 27.105469 25.542969 26.296875 26.007812 25.386719 26.007812 L 18.957031 26.007812 C 18.273438 27.492188 17.855469 29.121094 17.765625 30.832031 L 20.792969 30.832031 C 21.183594 30.832031 21.503906 31.148438 21.503906 31.542969 C 21.503906 31.933594 21.183594 32.253906 20.792969 32.253906 L 17.765625 32.253906 C 17.933594 35.390625 19.195312 38.25 21.175781 40.453125 L 23.304688 38.324219 C 23.585938 38.046875 24.035156 38.046875 24.3125 38.324219 C 24.589844 38.601562 24.589844 39.050781 24.3125 39.328125 L 22.183594 41.457031 C 24.386719 43.4375 27.246094 44.703125 30.382812 44.871094 L 30.382812 41.84375 C 30.382812 41.453125 30.703125 41.132812 31.09375 41.132812 C 31.484375 41.132812 31.804688 41.453125 31.804688 41.84375 Z M 31.804688 44.871094 " fill-opacity="1" fill-rule="evenodd"/><g clip-path="url(#b8e9d6a4a5)"><path fill="#107faa" d="M 15.980469 21.808594 L 15.980469 22.292969 C 15.980469 22.683594 16.296875 23.003906 16.691406 23.003906 C 17.082031 23.003906 17.402344 22.683594 17.402344 22.292969 L 17.402344 21.808594 C 17.402344 21.414062 17.082031 21.097656 16.691406 21.097656 C 16.296875 21.097656 15.980469 21.414062 15.980469 21.808594 Z M 15.980469 12.449219 L 15.980469 19.496094 C 15.980469 19.886719 16.296875 20.207031 16.691406 20.207031 C 17.082031 20.207031 17.402344 19.886719 17.402344 19.496094 L 17.402344 12.449219 C 17.402344 12.054688 17.082031 11.738281 16.691406 11.738281 C 16.296875 11.738281 15.980469 12.054688 15.980469 12.449219 Z M 17.808594 7.792969 L 26.503906 22.855469 C 26.738281 23.265625 26.738281 23.734375 26.503906 24.144531 C 26.265625 24.554688 25.859375 24.789062 25.386719 24.789062 L 7.996094 24.789062 C 7.519531 24.789062 7.113281 24.554688 6.878906 24.144531 C 6.640625 23.734375 6.640625 23.265625 6.878906 22.855469 L 15.574219 7.792969 C 15.8125 7.382812 16.21875 7.148438 16.691406 7.148438 C 17.164062 7.148438 17.570312 7.382812 17.804688 7.792969 Z M 17.808594 7.792969 " fill-opacity="1" fill-rule="evenodd"/></g><g clip-path="url(#f5ebc90e96)"><path fill="#107faa" d="M 42.796875 49.503906 C 42.796875 49.691406 42.867188 49.875 43.007812 50.019531 L 43.011719 50.019531 C 43.152344 50.160156 43.339844 50.230469 43.527344 50.230469 C 43.714844 50.230469 43.902344 50.160156 44.042969 50.019531 L 45.789062 48.273438 C 46.066406 47.996094 46.515625 47.996094 46.792969 48.273438 L 48.539062 50.019531 C 48.679688 50.160156 48.867188 50.230469 49.054688 50.230469 C 49.242188 50.230469 49.429688 50.160156 49.570312 50.019531 C 49.710938 49.878906 49.78125 49.691406 49.78125 49.503906 C 49.78125 49.316406 49.710938 49.128906 49.570312 48.988281 L 47.824219 47.242188 C 47.546875 46.964844 47.546875 46.515625 47.824219 46.234375 L 49.570312 44.492188 C 49.710938 44.351562 49.78125 44.160156 49.78125 43.976562 C 49.78125 43.789062 49.710938 43.601562 49.570312 43.460938 L 49.570312 43.457031 C 49.429688 43.316406 49.242188 43.246094 49.054688 43.246094 C 48.867188 43.246094 48.679688 43.316406 48.539062 43.457031 L 46.792969 45.203125 C 46.515625 45.480469 46.066406 45.480469 45.789062 45.203125 L 44.042969 43.457031 C 43.902344 43.316406 43.714844 43.246094 43.527344 43.246094 C 43.339844 43.246094 43.152344 43.316406 43.011719 43.457031 C 42.867188 43.601562 42.796875 43.785156 42.796875 43.976562 C 42.796875 44.160156 42.867188 44.347656 43.011719 44.488281 L 43.011719 44.492188 L 44.753906 46.234375 C 45.035156 46.515625 45.035156 46.964844 44.753906 47.242188 L 43.011719 48.988281 C 42.867188 49.128906 42.796875 49.316406 42.796875 49.503906 Z M 42.015625 51.039062 C 42.007812 51.03125 42.003906 51.023438 41.996094 51.015625 C 41.582031 50.597656 41.375 50.050781 41.375 49.503906 C 41.375 48.953125 41.585938 48.398438 42.003906 47.980469 L 43.246094 46.738281 L 42.003906 45.496094 C 41.585938 45.078125 41.375 44.527344 41.375 43.976562 C 41.375 43.429688 41.582031 42.882812 41.992188 42.464844 C 42 42.457031 42.007812 42.449219 42.015625 42.441406 C 42.433594 42.03125 42.980469 41.824219 43.527344 41.824219 C 44.078125 41.824219 44.628906 42.035156 45.046875 42.453125 L 46.292969 43.695312 L 47.53125 42.453125 C 47.953125 42.035156 48.503906 41.824219 49.054688 41.824219 C 49.601562 41.824219 50.148438 42.03125 50.566406 42.441406 C 50.570312 42.449219 50.578125 42.457031 50.585938 42.460938 C 51 42.878906 51.207031 43.429688 51.207031 43.976562 C 51.207031 44.527344 50.996094 45.078125 50.578125 45.496094 L 49.335938 46.738281 L 50.578125 47.980469 C 50.996094 48.398438 51.207031 48.953125 51.207031 49.503906 C 51.207031 50.050781 51 50.59375 50.589844 51.011719 C 50.582031 51.019531 50.574219 51.027344 50.566406 51.035156 C 50.148438 51.445312 49.601562 51.65625 49.054688 51.65625 C 48.503906 51.65625 47.953125 51.445312 47.53125 51.023438 L 46.292969 49.785156 L 45.046875 51.023438 C 44.628906 51.445312 44.078125 51.65625 43.527344 51.65625 C 42.980469 51.65625 42.433594 51.449219 42.015625 51.039062 Z M 46.292969 37.542969 C 51.367188 37.542969 55.484375 41.660156 55.484375 46.738281 C 55.484375 51.816406 51.367188 55.933594 46.289062 55.933594 C 41.214844 55.933594 37.09375 51.816406 37.09375 46.738281 C 37.09375 41.660156 41.210938 37.542969 46.289062 37.542969 Z M 46.292969 37.542969 " fill-opacity="1" fill-rule="evenodd"/></g></svg>