<svg xmlns="http://www.w3.org/2000/svg" xmlns:xlink="http://www.w3.org/1999/xlink" width="84" zoomAndPan="magnify" viewBox="0 0 63.12 71.04" height="84" preserveAspectRatio="xMidYMid meet" version="1.0"><defs><clipPath id="61b085657e"><path d="M 0 0.015625 L 62.132812 0.015625 L 62.132812 62.148438 L 0 62.148438 Z M 0 0.015625 " clip-rule="nonzero"/></clipPath><clipPath id="075a225b49"><path d="M 2.21875 2.234375 L 60.359375 2.234375 L 60.359375 60.375 L 2.21875 60.375 Z M 2.21875 2.234375 " clip-rule="nonzero"/></clipPath><clipPath id="52e0abefcc"><path d="M 31.289062 2.234375 C 15.234375 2.234375 2.21875 15.25 2.21875 31.304688 C 2.21875 47.359375 15.234375 60.375 31.289062 60.375 C 47.34375 60.375 60.359375 47.359375 60.359375 31.304688 C 60.359375 15.25 47.34375 2.234375 31.289062 2.234375 Z M 31.289062 2.234375 " clip-rule="nonzero"/></clipPath><clipPath id="2e1f7be5ff"><path d="M 0.21875 0.234375 L 58.359375 0.234375 L 58.359375 58.375 L 0.21875 58.375 Z M 0.21875 0.234375 " clip-rule="nonzero"/></clipPath><clipPath id="3d15e0adc3"><path d="M 29.289062 0.234375 C 13.234375 0.234375 0.21875 13.25 0.21875 29.304688 C 0.21875 45.359375 13.234375 58.375 29.289062 58.375 C 45.34375 58.375 58.359375 45.359375 58.359375 29.304688 C 58.359375 13.25 45.34375 0.234375 29.289062 0.234375 Z M 29.289062 0.234375 " clip-rule="nonzero"/></clipPath><clipPath id="011a63f0d0"><rect x="0" width="59" y="0" height="59"/></clipPath><clipPath id="085b280862"><path d="M 10.910156 10.976562 L 28 10.976562 L 28 26 L 10.910156 26 Z M 10.910156 10.976562 " clip-rule="nonzero"/></clipPath><clipPath id="890a4694e0"><path d="M 36 36 L 51.59375 36 L 51.59375 50.917969 L 36 50.917969 Z M 36 36 " clip-rule="nonzero"/></clipPath></defs><g clip-path="url(#61b085657e)"><path fill="#ffffff" d="M 0 0.015625 L 62.132812 0.015625 L 62.132812 62.148438 L 0 62.148438 Z M 0 0.015625 " fill-opacity="1" fill-rule="nonzero"/><path fill="#107faa" d="M 0 0.015625 L 62.132812 0.015625 L 62.132812 62.148438 L 0 62.148438 Z M 0 0.015625 " fill-opacity="1" fill-rule="nonzero"/></g><g clip-path="url(#075a225b49)"><g clip-path="url(#52e0abefcc)"><g transform="matrix(1, 0, 0, 1, 2, 2)"><g clip-path="url(#011a63f0d0)"><g clip-path="url(#2e1f7be5ff)"><g clip-path="url(#3d15e0adc3)"><path fill="#ffffff" d="M 0.21875 0.234375 L 58.359375 0.234375 L 58.359375 58.375 L 0.21875 58.375 Z M 0.21875 0.234375 " fill-opacity="1" fill-rule="nonzero"/></g></g></g></g></g></g><path fill="#107faa" d="M 44.140625 24.851562 L 46.679688 22.316406 L 44.984375 20.625 L 45.8125 19.792969 C 46.269531 19.339844 46.269531 18.59375 45.8125 18.136719 L 43.980469 16.300781 C 43.523438 15.847656 42.777344 15.847656 42.320312 16.300781 L 41.492188 17.128906 L 39.863281 15.5 L 37.328125 18.03125 C 40.296875 19.464844 42.714844 21.882812 44.140625 24.851562 Z M 44.140625 24.851562 " fill-opacity="1" fill-rule="evenodd"/><path fill="#107faa" d="M 44.132812 35.035156 C 43.960938 35.027344 43.789062 35.019531 43.617188 35.019531 C 43.136719 35.019531 42.667969 35.0625 42.210938 35.136719 C 42.675781 33.871094 42.929688 32.503906 42.929688 31.078125 C 42.929688 24.566406 37.601562 19.238281 31.089844 19.238281 C 29.40625 19.238281 27.796875 19.597656 26.34375 20.242188 L 25.441406 18.679688 C 27.167969 17.890625 29.078125 17.449219 31.089844 17.449219 C 38.589844 17.449219 44.722656 23.582031 44.722656 31.078125 C 44.722656 32.453125 44.515625 33.78125 44.132812 35.035156 Z M 31.089844 44.710938 C 32.464844 44.710938 33.792969 44.503906 35.046875 44.121094 C 35.039062 43.949219 35.03125 43.777344 35.03125 43.605469 C 35.03125 43.125 35.070312 42.65625 35.148438 42.199219 C 33.882812 42.664062 32.515625 42.917969 31.089844 42.917969 C 24.578125 42.917969 19.25 37.589844 19.25 31.078125 C 19.25 29.464844 19.578125 27.921875 20.171875 26.519531 L 18.25 26.519531 C 17.738281 27.945312 17.460938 29.480469 17.460938 31.078125 C 17.460938 38.578125 23.59375 44.710938 31.089844 44.710938 Z M 31.089844 44.710938 " fill-opacity="1" fill-rule="evenodd"/><path fill="#107faa" d="M 31.089844 29.609375 C 31.390625 29.609375 31.667969 29.730469 31.867188 29.929688 C 32.066406 30.128906 32.1875 30.402344 32.1875 30.707031 C 32.1875 31.007812 32.066406 31.28125 31.867188 31.480469 C 31.667969 31.679688 31.394531 31.804688 31.09375 31.804688 L 31.089844 31.804688 C 30.789062 31.804688 30.515625 31.679688 30.316406 31.480469 C 30.117188 31.28125 29.992188 31.007812 29.992188 30.707031 C 29.992188 30.402344 30.117188 30.128906 30.316406 29.929688 C 30.515625 29.730469 30.789062 29.609375 31.089844 29.609375 Z M 31.089844 28.433594 C 30.464844 28.433594 29.898438 28.691406 29.488281 29.101562 C 29.074219 29.511719 28.820312 30.082031 28.820312 30.707031 C 28.820312 31.332031 29.074219 31.898438 29.488281 32.308594 C 29.765625 32.585938 30.113281 32.792969 30.503906 32.898438 L 30.503906 35.960938 C 30.503906 36.285156 30.765625 36.546875 31.089844 36.546875 C 31.414062 36.546875 31.675781 36.285156 31.675781 35.960938 L 31.675781 32.898438 C 32.066406 32.792969 32.417969 32.585938 32.695312 32.308594 C 33.105469 31.898438 33.359375 31.332031 33.359375 30.707031 C 33.359375 30.390625 33.296875 30.089844 33.179688 29.820312 L 36.027344 26.972656 C 36.253906 26.746094 36.253906 26.375 36.027344 26.144531 C 35.796875 25.914062 35.425781 25.914062 35.195312 26.144531 L 32.449219 28.890625 C 32.070312 28.605469 31.601562 28.433594 31.089844 28.433594 Z M 31.675781 42.066406 C 32.980469 41.996094 34.226562 41.695312 35.371094 41.207031 C 35.722656 39.992188 36.335938 38.890625 37.144531 37.964844 L 36.679688 37.496094 C 36.453125 37.269531 36.449219 36.898438 36.679688 36.667969 C 36.910156 36.441406 37.28125 36.441406 37.507812 36.667969 L 37.976562 37.132812 C 38.902344 36.324219 40.003906 35.710938 41.21875 35.359375 C 41.707031 34.214844 42.007812 32.96875 42.078125 31.664062 L 39.582031 31.664062 C 39.257812 31.664062 38.996094 31.402344 38.996094 31.078125 C 38.996094 30.753906 39.257812 30.492188 39.582031 30.492188 L 42.078125 30.492188 C 41.9375 27.90625 40.898438 25.550781 39.265625 23.734375 L 37.511719 25.488281 C 37.28125 25.71875 36.910156 25.71875 36.679688 25.488281 C 36.453125 25.261719 36.453125 24.890625 36.679688 24.660156 L 38.433594 22.90625 C 36.621094 21.273438 34.265625 20.230469 31.675781 20.09375 L 31.675781 22.589844 C 31.675781 22.910156 31.414062 23.175781 31.089844 23.175781 C 30.769531 23.175781 30.503906 22.910156 30.503906 22.589844 L 30.503906 20.09375 C 29.183594 20.164062 27.921875 20.46875 26.765625 20.96875 L 28.175781 23.417969 C 28.550781 24.066406 28.550781 24.835938 28.175781 25.484375 C 27.804688 26.132812 27.136719 26.519531 26.386719 26.519531 L 21.085938 26.519531 C 20.523438 27.742188 20.179688 29.082031 20.105469 30.492188 L 22.601562 30.492188 C 22.921875 30.492188 23.1875 30.753906 23.1875 31.078125 C 23.1875 31.402344 22.921875 31.664062 22.601562 31.664062 L 20.105469 31.664062 C 20.242188 34.25 21.285156 36.609375 22.917969 38.421875 L 24.671875 36.667969 C 24.902344 36.441406 25.273438 36.441406 25.5 36.667969 C 25.730469 36.898438 25.730469 37.269531 25.5 37.496094 L 23.746094 39.253906 C 25.5625 40.886719 27.917969 41.925781 30.503906 42.066406 L 30.503906 39.570312 C 30.503906 39.246094 30.765625 38.984375 31.089844 38.984375 C 31.414062 38.984375 31.675781 39.246094 31.675781 39.570312 Z M 31.675781 42.066406 " fill-opacity="1" fill-rule="evenodd"/><g clip-path="url(#085b280862)"><path fill="#107faa" d="M 18.632812 23.054688 L 18.632812 23.453125 C 18.632812 23.777344 18.894531 24.039062 19.21875 24.039062 C 19.542969 24.039062 19.804688 23.777344 19.804688 23.453125 L 19.804688 23.054688 C 19.804688 22.730469 19.542969 22.46875 19.21875 22.46875 C 18.898438 22.46875 18.632812 22.730469 18.632812 23.054688 Z M 18.632812 15.339844 L 18.632812 21.148438 C 18.632812 21.472656 18.894531 21.734375 19.21875 21.734375 C 19.542969 21.734375 19.804688 21.472656 19.804688 21.148438 L 19.804688 15.339844 C 19.804688 15.019531 19.542969 14.753906 19.21875 14.753906 C 18.894531 14.753906 18.632812 15.019531 18.632812 15.339844 Z M 20.140625 11.503906 L 27.308594 23.917969 C 27.5 24.257812 27.5 24.644531 27.308594 24.980469 C 27.113281 25.320312 26.777344 25.511719 26.386719 25.511719 L 12.050781 25.511719 C 11.664062 25.511719 11.328125 25.320312 11.132812 24.980469 C 10.9375 24.644531 10.9375 24.257812 11.132812 23.917969 L 18.300781 11.503906 C 18.496094 11.167969 18.828125 10.976562 19.21875 10.976562 C 19.609375 10.976562 19.945312 11.167969 20.140625 11.503906 Z M 20.140625 11.503906 " fill-opacity="1" fill-rule="evenodd"/></g><g clip-path="url(#890a4694e0)"><path fill="#107faa" d="M 40.738281 45.882812 C 40.738281 46.035156 40.796875 46.191406 40.910156 46.308594 L 40.914062 46.308594 C 41.027344 46.425781 41.183594 46.484375 41.339844 46.484375 C 41.492188 46.484375 41.648438 46.425781 41.761719 46.308594 L 43.203125 44.871094 C 43.429688 44.640625 43.800781 44.640625 44.03125 44.871094 L 45.46875 46.308594 C 45.585938 46.425781 45.738281 46.484375 45.894531 46.484375 C 46.050781 46.484375 46.203125 46.425781 46.320312 46.308594 C 46.4375 46.191406 46.496094 46.039062 46.496094 45.882812 C 46.496094 45.730469 46.4375 45.574219 46.320312 45.457031 L 44.882812 44.019531 C 44.652344 43.789062 44.652344 43.417969 44.882812 43.191406 L 46.320312 41.753906 C 46.4375 41.636719 46.496094 41.480469 46.496094 41.328125 C 46.496094 41.171875 46.4375 41.019531 46.320312 40.902344 C 46.203125 40.785156 46.050781 40.726562 45.894531 40.726562 C 45.738281 40.726562 45.585938 40.785156 45.46875 40.902344 L 44.03125 42.339844 C 43.800781 42.570312 43.429688 42.570312 43.203125 42.339844 L 41.761719 40.902344 C 41.648438 40.785156 41.492188 40.726562 41.339844 40.726562 C 41.183594 40.726562 41.03125 40.785156 40.914062 40.898438 L 40.914062 40.902344 C 40.796875 41.015625 40.738281 41.171875 40.738281 41.328125 C 40.738281 41.480469 40.796875 41.636719 40.914062 41.75 L 40.914062 41.753906 L 42.351562 43.191406 C 42.582031 43.417969 42.582031 43.789062 42.351562 44.019531 L 40.914062 45.457031 C 40.796875 45.574219 40.738281 45.730469 40.738281 45.882812 Z M 40.09375 47.148438 C 40.085938 47.140625 40.082031 47.136719 40.074219 47.128906 C 39.734375 46.785156 39.566406 46.335938 39.566406 45.882812 C 39.566406 45.429688 39.738281 44.972656 40.082031 44.628906 L 41.109375 43.605469 L 40.082031 42.582031 C 39.738281 42.234375 39.566406 41.78125 39.566406 41.328125 C 39.566406 40.875 39.734375 40.425781 40.074219 40.082031 C 40.078125 40.074219 40.085938 40.070312 40.089844 40.0625 C 40.4375 39.722656 40.886719 39.554688 41.339844 39.554688 C 41.792969 39.554688 42.246094 39.726562 42.59375 40.070312 L 43.617188 41.097656 L 44.640625 40.070312 C 44.984375 39.726562 45.441406 39.554688 45.894531 39.554688 C 46.34375 39.554688 46.796875 39.722656 47.140625 40.0625 C 47.144531 40.066406 47.152344 40.074219 47.15625 40.078125 C 47.496094 40.425781 47.667969 40.875 47.667969 41.328125 C 47.667969 41.78125 47.496094 42.234375 47.148438 42.582031 L 46.125 43.605469 L 47.148438 44.628906 C 47.496094 44.972656 47.667969 45.429688 47.667969 45.882812 C 47.667969 46.332031 47.496094 46.785156 47.160156 47.128906 C 47.152344 47.132812 47.148438 47.140625 47.140625 47.144531 C 46.796875 47.484375 46.347656 47.65625 45.894531 47.65625 C 45.441406 47.65625 44.984375 47.484375 44.640625 47.136719 L 43.617188 46.113281 L 42.59375 47.136719 C 42.246094 47.484375 41.792969 47.65625 41.339844 47.65625 C 40.886719 47.65625 40.4375 47.484375 40.09375 47.148438 Z M 43.617188 36.027344 C 47.800781 36.027344 51.195312 39.417969 51.195312 43.605469 C 51.195312 47.789062 47.800781 51.183594 43.617188 51.183594 C 39.429688 51.183594 36.039062 47.789062 36.039062 43.605469 C 36.039062 39.417969 39.429688 36.027344 43.617188 36.027344 Z M 43.617188 36.027344 " fill-opacity="1" fill-rule="evenodd"/></g></svg>