<svg xmlns="http://www.w3.org/2000/svg" xmlns:xlink="http://www.w3.org/1999/xlink" width="500" zoomAndPan="magnify" viewBox="0 0 375 374.999991" height="500" preserveAspectRatio="xMidYMid meet" version="1.2"><defs><clipPath id="17c4baa2a1"><path d="M 168 60 L 305 60 L 305 175 L 168 175 Z M 168 60 "/></clipPath><clipPath id="039c2221a6"><path d="M 37.5 102.3125 L 284.742188 47.75 L 332.441406 263.878906 L 85.199219 318.445312 Z M 37.5 102.3125 "/></clipPath><clipPath id="eed1265672"><path d="M 37.5 102.3125 L 284.742188 47.75 L 332.441406 263.878906 L 85.199219 318.445312 Z M 37.5 102.3125 "/></clipPath><clipPath id="f68e3bfa8b"><path d="M 82 116 L 130 116 L 130 218 L 82 218 Z M 82 116 "/></clipPath><clipPath id="407e577836"><path d="M 37.5 102.3125 L 284.742188 47.75 L 332.441406 263.878906 L 85.199219 318.445312 Z M 37.5 102.3125 "/></clipPath><clipPath id="0e4a14be30"><path d="M 37.5 102.3125 L 284.742188 47.75 L 332.441406 263.878906 L 85.199219 318.445312 Z M 37.5 102.3125 "/></clipPath><clipPath id="24022fc37a"><path d="M 54 88 L 222 88 L 222 308 L 54 308 Z M 54 88 "/></clipPath><clipPath id="fd84ca8f1f"><path d="M 37.5 102.3125 L 284.742188 47.75 L 332.441406 263.878906 L 85.199219 318.445312 Z M 37.5 102.3125 "/></clipPath><clipPath id="13595f50ac"><path d="M 37.5 102.3125 L 284.742188 47.75 L 332.441406 263.878906 L 85.199219 318.445312 Z M 37.5 102.3125 "/></clipPath><clipPath id="0452a3ee8c"><path d="M 193.769531 132.828125 L 375 132.828125 L 375 239.222656 L 193.769531 239.222656 Z M 193.769531 132.828125 "/></clipPath><clipPath id="e03bba9ea3"><path d="M 219.671875 21.246094 L 246.234375 21.246094 L 246.234375 47.808594 L 219.671875 47.808594 Z M 219.671875 21.246094 "/></clipPath><clipPath id="8ede8c9d65"><path d="M 232.953125 21.246094 C 225.617188 21.246094 219.671875 27.191406 219.671875 34.527344 C 219.671875 41.863281 225.617188 47.808594 232.953125 47.808594 C 240.289062 47.808594 246.234375 41.863281 246.234375 34.527344 C 246.234375 27.191406 240.289062 21.246094 232.953125 21.246094 Z M 232.953125 21.246094 "/></clipPath><clipPath id="142adb3d7b"><path d="M 92.699219 47.808594 L 119.261719 47.808594 L 119.261719 74.375 L 92.699219 74.375 Z M 92.699219 47.808594 "/></clipPath><clipPath id="d83baa9b0d"><path d="M 105.980469 47.808594 C 98.644531 47.808594 92.699219 53.757812 92.699219 61.089844 C 92.699219 68.425781 98.644531 74.375 105.980469 74.375 C 113.316406 74.375 119.261719 68.425781 119.261719 61.089844 C 119.261719 53.757812 113.316406 47.808594 105.980469 47.808594 Z M 105.980469 47.808594 "/></clipPath></defs><g id="cb33e64da7"><rect x="0" width="375" y="0" height="374.999991" style="fill:#ffffff;fill-opacity:1;stroke:none;"/><rect x="0" width="375" y="0" height="374.999991" style="fill:#ffffff;fill-opacity:1;stroke:none;"/><g clip-rule="nonzero" clip-path="url(#17c4baa2a1)"><g clip-rule="nonzero" clip-path="url(#039c2221a6)"><g clip-rule="nonzero" clip-path="url(#eed1265672)"><path style=" stroke:none;fill-rule:nonzero;fill:#107faa;fill-opacity:1;" d="M 168.269531 114.007812 C 171.539062 113.476562 174.609375 112.457031 177.558594 111.304688 C 180.488281 110.105469 183.195312 108.574219 185.707031 106.902344 C 190.660156 103.398438 194.625 99 197.402344 93.964844 C 198.769531 91.421875 199.925781 88.789062 200.84375 86.03125 C 201.074219 85.339844 201.308594 84.675781 201.492188 83.960938 L 201.78125 82.914062 L 201.9375 82.386719 L 202.011719 82.136719 L 202.246094 81.542969 L 202.984375 79.894531 L 203.59375 78.632812 C 204.023438 77.808594 204.453125 76.980469 204.941406 76.148438 C 205.949219 74.46875 206.882812 72.835938 208.917969 70.820312 C 209.359375 70.359375 210.101562 69.714844 210.308594 69.546875 L 211.332031 68.6875 C 212.171875 68.03125 212.964844 67.484375 213.746094 66.929688 C 216.984375 64.757812 220.566406 62.953125 224.425781 61.789062 C 232.15625 59.390625 240.746094 59.757812 248.144531 62.191406 C 255.613281 64.570312 262.015625 68.59375 267.601562 73.109375 C 273.179688 77.671875 277.976562 82.792969 282.285156 88.160156 C 284.488281 90.808594 286.453125 93.609375 288.402344 96.394531 C 290.351562 99.179688 292.117188 102.066406 293.875 104.933594 L 294.183594 105.425781 L 294.203125 105.472656 C 294.691406 106.449219 295.535156 108.132812 296.148438 109.453125 C 296.800781 110.855469 297.355469 112.292969 297.914062 113.714844 C 299.007812 116.578125 299.980469 119.457031 300.761719 122.359375 C 301.539062 125.28125 302.222656 128.203125 302.746094 131.164062 C 303.207031 134.117188 303.628906 137.066406 303.867188 140.027344 C 304.042969 141.496094 304.109375 142.980469 304.171875 144.460938 C 304.25 145.933594 304.34375 147.40625 304.269531 148.890625 C 304.21875 151.847656 304.140625 154.777344 303.863281 157.703125 C 303.679688 160.613281 303.121094 163.5 302.679688 166.371094 C 302.511719 167.804688 302.105469 169.21875 301.773438 170.628906 L 300.710938 174.84375 C 300.316406 171.945312 300.113281 169.105469 299.707031 166.28125 L 299.121094 162.082031 C 298.976562 160.6875 298.605469 159.292969 298.402344 157.921875 C 297.996094 155.160156 297.371094 152.421875 296.757812 149.726562 C 296.488281 148.367188 296.027344 147.054688 295.75 145.707031 C 295.414062 144.375 295.101562 143.039062 294.671875 141.726562 C 293.925781 139.089844 293.035156 136.511719 292.113281 133.960938 C 291.128906 131.425781 290.203125 128.910156 289.097656 126.449219 C 287.988281 124.011719 286.894531 121.601562 285.628906 119.28125 C 285.019531 118.117188 284.347656 116.980469 283.699219 115.867188 C 283.011719 114.664062 282.484375 113.855469 281.542969 112.375 L 281.878906 112.90625 C 278.089844 107.875 274.25 102.957031 270.15625 98.382812 C 268.148438 96.074219 266.046875 93.875 263.878906 91.789062 C 261.761719 89.667969 259.546875 87.726562 257.289062 85.871094 C 252.746094 82.265625 247.953125 79.253906 243.046875 77.511719 C 238.144531 75.742188 233.1875 75.269531 228.332031 76.300781 C 225.90625 76.824219 223.484375 77.691406 221.179688 78.933594 L 219.527344 79.878906 C 219.3125 79.988281 218.929688 80.261719 218.59375 80.46875 C 218.128906 80.773438 218.292969 80.695312 218.15625 80.804688 C 217.796875 80.996094 216.875 82.09375 216.164062 83.152344 C 215.78125 83.699219 215.417969 84.292969 215.046875 84.878906 L 214.1875 86.320312 L 214.117188 86.457031 L 214.078125 86.539062 L 214.0625 86.5625 C 214.113281 86.4375 213.933594 86.890625 214.164062 86.296875 L 214.03125 86.609375 L 213.746094 87.222656 L 213.199219 88.46875 C 212.835938 89.292969 212.410156 90.089844 211.996094 90.90625 C 210.324219 94.117188 208.355469 97.222656 205.957031 100.003906 C 201.277344 105.617188 195.167969 110.058594 188.484375 112.417969 C 185.183594 113.660156 181.734375 114.339844 178.332031 114.628906 C 174.933594 114.929688 171.503906 114.769531 168.269531 114.007812 Z M 168.269531 114.007812 "/></g></g></g><g clip-rule="nonzero" clip-path="url(#f68e3bfa8b)"><g clip-rule="nonzero" clip-path="url(#407e577836)"><g clip-rule="nonzero" clip-path="url(#0e4a14be30)"><path style=" stroke:none;fill-rule:nonzero;fill:#d9f8ff;fill-opacity:1;" d="M 126.714844 126.964844 C 126.160156 126.546875 119.871094 121.714844 119.871094 121.714844 L 119.855469 121.730469 L 118.34375 120.574219 L 117.265625 119.828125 L 116.480469 119.328125 C 116.097656 119.089844 115.726562 118.820312 115.332031 118.628906 L 114.785156 118.324219 C 113.679688 117.695312 112.351562 117.144531 110.847656 116.695312 C 109.148438 116.195312 107.539062 116.097656 106.132812 116.40625 C 105.882812 116.464844 105.636719 116.527344 105.402344 116.609375 L 104.691406 116.847656 C 104.203125 117.09375 103.875 117.246094 103.546875 117.398438 C 103.34375 117.476562 103.207031 117.546875 103.089844 117.601562 L 100.417969 119.425781 L 97.609375 121.996094 L 94.464844 125.734375 C 93.964844 126.328125 93.292969 127.378906 92.570312 128.484375 C 91.953125 129.453125 91.3125 130.429688 90.671875 131.351562 C 88.59375 134.40625 87.15625 138.308594 85.941406 142.050781 C 84.582031 145.988281 83.765625 150.136719 82.992188 155.179688 C 82.769531 157.460938 82.5625 159.734375 82.414062 162.027344 L 82.414062 169.210938 L 82.988281 176.417969 L 84.15625 184.527344 C 84.25 185.460938 84.570312 186.738281 84.910156 188.089844 C 85.179688 189.226562 85.453125 190.363281 85.683594 191.496094 L 86.425781 194.726562 L 87.53125 198.230469 L 89.890625 205.617188 C 90.921875 208.140625 91.945312 210.679688 92.933594 213.253906 L 94.230469 216.664062 L 94.710938 217.652344 C 112.210938 217.609375 105.082031 172.246094 105.605469 169.238281 C 110.5 141.304688 138.554688 135.90625 126.714844 126.964844 Z M 126.714844 126.964844 "/></g></g></g><g clip-rule="nonzero" clip-path="url(#24022fc37a)"><g clip-rule="nonzero" clip-path="url(#fd84ca8f1f)"><g clip-rule="nonzero" clip-path="url(#13595f50ac)"><path style=" stroke:none;fill-rule:nonzero;fill:#ffae4b;fill-opacity:1;" d="M 221.171875 102.753906 C 220.054688 104.609375 218.773438 106.359375 217.417969 108.0625 C 216.042969 109.753906 214.632812 111.421875 213.097656 112.976562 C 211.613281 114.617188 209.910156 116 208.292969 117.5 C 206.628906 118.972656 204.789062 120.203125 203.023438 121.578125 C 201.195312 122.863281 199.199219 123.917969 197.265625 125.089844 C 195.265625 126.121094 193.148438 126.960938 191.058594 127.90625 C 188.953125 128.75 186.695312 129.257812 184.476562 129.941406 C 182.265625 130.679688 179.90625 130.71875 177.589844 131.066406 C 175.269531 131.480469 172.9375 131.289062 170.589844 131.207031 C 168.222656 131.136719 165.855469 131.054688 163.589844 130.453125 C 161.3125 129.960938 158.957031 129.574219 156.6875 128.949219 L 150.140625 126.457031 C 147.890625 125.6875 145.902344 124.550781 143.925781 123.367188 L 137.910156 119.875 C 135.984375 118.621094 134.253906 117.15625 132.425781 115.789062 L 126.980469 111.605469 L 127.375 111.941406 L 125.621094 110.589844 L 124.09375 109.53125 C 123.023438 108.882812 122.003906 108.171875 120.929688 107.628906 C 118.800781 106.398438 116.578125 105.523438 114.363281 104.859375 C 109.9375 103.5625 105.554688 103.546875 101.492188 104.894531 C 100.441406 105.066406 99.488281 105.6875 98.488281 106.128906 C 97.488281 106.5625 96.496094 107.023438 95.578125 107.777344 L 92.722656 109.722656 L 90.039062 112.183594 L 88.699219 113.394531 L 87.476562 114.859375 L 85.027344 117.78125 C 83.390625 119.738281 82.082031 122.105469 80.566406 124.25 C 77.671875 128.527344 75.851562 133.199219 74.203125 138.203125 C 72.488281 143.140625 71.546875 148.394531 70.71875 153.640625 C 70.480469 156.292969 70.242188 158.957031 70.070312 161.628906 L 70.070312 169.695312 L 70.714844 177.789062 L 71.886719 185.890625 C 72.183594 188.597656 73.039062 191.242188 73.578125 193.925781 L 74.5 197.960938 L 75.734375 201.917969 L 78.28125 209.847656 C 79.339844 212.425781 80.382812 215.007812 81.382812 217.621094 L 82.890625 221.554688 L 84.695312 225.359375 L 88.332031 232.992188 C 89.339844 235.285156 91.101562 237.980469 92.429688 240.449219 L 96.683594 248.078125 C 102.53125 257.960938 108.175781 268.023438 114.214844 277.945312 C 117.277344 282.855469 120.058594 288.027344 123.171875 292.894531 C 126.359375 297.691406 129.476562 302.589844 132.605469 307.605469 C 128.523438 303.484375 124.441406 299.28125 120.414062 294.964844 C 116.410156 290.628906 112.820312 286.058594 109.109375 281.535156 C 105.433594 276.980469 101.640625 272.503906 98.191406 267.738281 L 87.648438 253.578125 C 84.242188 248.734375 81.011719 244.253906 77.722656 238.960938 L 73.222656 231.183594 L 70.964844 227.273438 L 69 223.214844 C 67.667969 220.496094 66.390625 217.753906 65.128906 215.007812 C 64 212.195312 62.992188 209.320312 61.917969 206.472656 L 60.347656 202.179688 L 59.097656 197.765625 C 58.332031 194.800781 57.28125 191.90625 56.769531 188.863281 C 56.199219 185.835938 55.535156 182.808594 55.054688 179.761719 L 54.167969 170.484375 C 54.042969 167.367188 54.0625 164.246094 54.011719 161.125 C 54.152344 157.988281 54.371094 154.84375 54.636719 151.722656 C 55.496094 145.484375 56.503906 139.207031 58.574219 133.121094 C 60.601562 127.148438 63.21875 120.9375 66.914062 115.609375 C 68.773438 113.007812 70.355469 110.308594 72.472656 107.824219 L 75.691406 104.109375 L 77.316406 102.273438 L 79.210938 100.578125 C 83.917969 95.863281 90.359375 92.140625 97.363281 90.195312 C 104.460938 88.226562 112.222656 88.785156 118.808594 91.128906 C 122.113281 92.277344 125.234375 93.769531 128.074219 95.574219 C 129.535156 96.414062 130.871094 97.414062 132.203125 98.4375 L 134.128906 100.011719 C 134.765625 100.585938 135.402344 101.148438 135.714844 101.460938 L 136.109375 101.804688 L 140.574219 105.824219 C 142.09375 107.144531 143.527344 108.597656 145.09375 109.828125 L 149.976562 113.183594 C 151.597656 114.339844 153.226562 115.488281 155.019531 116.238281 L 160.25 118.921875 C 162.046875 119.628906 163.925781 120.128906 165.765625 120.777344 C 167.597656 121.519531 169.507812 121.761719 171.4375 122.027344 C 173.351562 122.328125 175.292969 122.746094 177.242188 122.574219 C 179.1875 122.457031 181.199219 122.789062 183.152344 122.40625 C 185.089844 122.078125 187.113281 121.953125 189.054688 121.464844 C 190.984375 120.890625 192.964844 120.433594 194.886719 119.757812 C 196.769531 118.960938 198.691406 118.246094 200.578125 117.375 C 202.390625 116.402344 204.328125 115.5625 206.089844 114.449219 C 207.847656 113.320312 209.703125 112.289062 211.355469 110.988281 C 214.863281 108.585938 218.105469 105.792969 221.171875 102.753906 Z M 221.171875 102.753906 "/></g></g></g><g clip-rule="nonzero" clip-path="url(#0452a3ee8c)"><path style=" stroke:none;fill-rule:nonzero;fill:#ffffff;fill-opacity:1;" d="M 193.769531 132.828125 L 432.742188 132.828125 L 432.742188 239.222656 L 193.769531 239.222656 Z M 193.769531 132.828125 "/></g><g style="fill:#107faa;fill-opacity:1;"><g transform="translate(144.198129, 189.649767)"><path style="stroke:none" d="M 19.359375 0.734375 C 15.929688 0.734375 12.617188 0.269531 9.421875 -0.65625 C 6.234375 -1.582031 3.671875 -2.785156 1.734375 -4.265625 L 5.140625 -11.8125 C 6.992188 -10.445312 9.195312 -9.351562 11.75 -8.53125 C 14.300781 -7.707031 16.859375 -7.296875 19.421875 -7.296875 C 22.265625 -7.296875 24.363281 -7.71875 25.71875 -8.5625 C 27.082031 -9.40625 27.765625 -10.53125 27.765625 -11.9375 C 27.765625 -12.96875 27.363281 -13.820312 26.5625 -14.5 C 25.757812 -15.175781 24.726562 -15.722656 23.46875 -16.140625 C 22.207031 -16.554688 20.507812 -17.007812 18.375 -17.5 C 15.070312 -18.28125 12.367188 -19.0625 10.265625 -19.84375 C 8.160156 -20.632812 6.351562 -21.894531 4.84375 -23.625 C 3.34375 -25.351562 2.59375 -27.660156 2.59375 -30.546875 C 2.59375 -33.066406 3.269531 -35.347656 4.625 -37.390625 C 5.988281 -39.429688 8.039062 -41.046875 10.78125 -42.234375 C 13.53125 -43.429688 16.882812 -44.03125 20.84375 -44.03125 C 23.601562 -44.03125 26.300781 -43.695312 28.9375 -43.03125 C 31.582031 -42.375 33.894531 -41.429688 35.875 -40.203125 L 32.78125 -32.59375 C 28.78125 -34.863281 24.78125 -36 20.78125 -36 C 17.976562 -36 15.90625 -35.539062 14.5625 -34.625 C 13.21875 -33.71875 12.546875 -32.523438 12.546875 -31.046875 C 12.546875 -29.554688 13.316406 -28.453125 14.859375 -27.734375 C 16.410156 -27.015625 18.773438 -26.304688 21.953125 -25.609375 C 25.253906 -24.816406 27.953125 -24.03125 30.046875 -23.25 C 32.148438 -22.46875 33.953125 -21.226562 35.453125 -19.53125 C 36.960938 -17.84375 37.71875 -15.554688 37.71875 -12.671875 C 37.71875 -10.203125 37.023438 -7.945312 35.640625 -5.90625 C 34.265625 -3.863281 32.195312 -2.242188 29.4375 -1.046875 C 26.675781 0.140625 23.316406 0.734375 19.359375 0.734375 Z M 19.359375 0.734375 "/></g></g><g style="fill:#107faa;fill-opacity:1;"><g transform="translate(183.647196, 189.649767)"><path style="stroke:none" d="M 44.53125 0 L 44.46875 -25.96875 L 31.71875 -4.578125 L 27.21875 -4.578125 L 14.53125 -25.421875 L 14.53125 0 L 5.140625 0 L 5.140625 -43.296875 L 13.421875 -43.296875 L 29.625 -16.390625 L 45.578125 -43.296875 L 53.796875 -43.296875 L 53.921875 0 Z M 44.53125 0 "/></g></g><g style="fill:#107faa;fill-opacity:1;"><g transform="translate(242.697156, 189.649767)"><path style="stroke:none" d="M 25.90625 -15.34375 L 25.90625 0 L 15.890625 0 L 15.890625 -15.453125 L -0.859375 -43.296875 L 9.765625 -43.296875 L 21.34375 -24.0625 L 32.90625 -43.296875 L 42.734375 -43.296875 Z M 25.90625 -15.34375 "/></g></g><g style="fill:#107faa;fill-opacity:1;"><g transform="translate(284.495895, 189.649767)"><path style="stroke:none" d="M 5.140625 -43.296875 L 15.15625 -43.296875 L 15.15625 -8.15625 L 36.859375 -8.15625 L 36.859375 0 L 5.140625 0 Z M 5.140625 -43.296875 "/></g></g><g style="fill:#107faa;fill-opacity:1;"><g transform="translate(321.858054, 189.649767)"><path style="stroke:none" d=""/></g></g><g style="fill:#107faa;fill-opacity:1;"><g transform="translate(144.198129, 253.42977)"><path style="stroke:none" d="M 19.359375 0.734375 C 15.929688 0.734375 12.617188 0.269531 9.421875 -0.65625 C 6.234375 -1.582031 3.671875 -2.785156 1.734375 -4.265625 L 5.140625 -11.8125 C 6.992188 -10.445312 9.195312 -9.351562 11.75 -8.53125 C 14.300781 -7.707031 16.859375 -7.296875 19.421875 -7.296875 C 22.265625 -7.296875 24.363281 -7.71875 25.71875 -8.5625 C 27.082031 -9.40625 27.765625 -10.53125 27.765625 -11.9375 C 27.765625 -12.96875 27.363281 -13.820312 26.5625 -14.5 C 25.757812 -15.175781 24.726562 -15.722656 23.46875 -16.140625 C 22.207031 -16.554688 20.507812 -17.007812 18.375 -17.5 C 15.070312 -18.28125 12.367188 -19.0625 10.265625 -19.84375 C 8.160156 -20.632812 6.351562 -21.894531 4.84375 -23.625 C 3.34375 -25.351562 2.59375 -27.660156 2.59375 -30.546875 C 2.59375 -33.066406 3.269531 -35.347656 4.625 -37.390625 C 5.988281 -39.429688 8.039062 -41.046875 10.78125 -42.234375 C 13.53125 -43.429688 16.882812 -44.03125 20.84375 -44.03125 C 23.601562 -44.03125 26.300781 -43.695312 28.9375 -43.03125 C 31.582031 -42.375 33.894531 -41.429688 35.875 -40.203125 L 32.78125 -32.59375 C 28.78125 -34.863281 24.78125 -36 20.78125 -36 C 17.976562 -36 15.90625 -35.539062 14.5625 -34.625 C 13.21875 -33.71875 12.546875 -32.523438 12.546875 -31.046875 C 12.546875 -29.554688 13.316406 -28.453125 14.859375 -27.734375 C 16.410156 -27.015625 18.773438 -26.304688 21.953125 -25.609375 C 25.253906 -24.816406 27.953125 -24.03125 30.046875 -23.25 C 32.148438 -22.46875 33.953125 -21.226562 35.453125 -19.53125 C 36.960938 -17.84375 37.71875 -15.554688 37.71875 -12.671875 C 37.71875 -10.203125 37.023438 -7.945312 35.640625 -5.90625 C 34.265625 -3.863281 32.195312 -2.242188 29.4375 -1.046875 C 26.675781 0.140625 23.316406 0.734375 19.359375 0.734375 Z M 19.359375 0.734375 "/></g></g><g style="fill:#107faa;fill-opacity:1;"><g transform="translate(183.647196, 253.42977)"><path style="stroke:none" d="M 25.90625 -15.34375 L 25.90625 0 L 15.890625 0 L 15.890625 -15.453125 L -0.859375 -43.296875 L 9.765625 -43.296875 L 21.34375 -24.0625 L 32.90625 -43.296875 L 42.734375 -43.296875 Z M 25.90625 -15.34375 "/></g></g><g style="fill:#107faa;fill-opacity:1;"><g transform="translate(225.445935, 253.42977)"><path style="stroke:none" d="M 44.84375 -43.296875 L 44.84375 0 L 36.609375 0 L 15.03125 -26.28125 L 15.03125 0 L 5.140625 0 L 5.140625 -43.296875 L 13.421875 -43.296875 L 34.9375 -17 L 34.9375 -43.296875 Z M 44.84375 -43.296875 "/></g></g><g style="fill:#107faa;fill-opacity:1;"><g transform="translate(275.406551, 253.42977)"><path style="stroke:none" d="M 25.84375 0.734375 C 21.4375 0.734375 17.445312 -0.222656 13.875 -2.140625 C 10.3125 -4.054688 7.507812 -6.710938 5.46875 -10.109375 C 3.425781 -13.515625 2.40625 -17.359375 2.40625 -21.640625 C 2.40625 -25.929688 3.425781 -29.773438 5.46875 -33.171875 C 7.507812 -36.578125 10.3125 -39.238281 13.875 -41.15625 C 17.445312 -43.070312 21.457031 -44.03125 25.90625 -44.03125 C 29.664062 -44.03125 33.054688 -43.367188 36.078125 -42.046875 C 39.109375 -40.734375 41.65625 -38.835938 43.71875 -36.359375 L 37.296875 -30.421875 C 34.367188 -33.804688 30.738281 -35.5 26.40625 -35.5 C 23.726562 -35.5 21.335938 -34.910156 19.234375 -33.734375 C 17.128906 -32.554688 15.488281 -30.914062 14.3125 -28.8125 C 13.132812 -26.71875 12.546875 -24.328125 12.546875 -21.640625 C 12.546875 -18.960938 13.132812 -16.570312 14.3125 -14.46875 C 15.488281 -12.363281 17.128906 -10.722656 19.234375 -9.546875 C 21.335938 -8.378906 23.726562 -7.796875 26.40625 -7.796875 C 30.738281 -7.796875 34.367188 -9.503906 37.296875 -12.921875 L 43.71875 -6.984375 C 41.65625 -4.472656 39.097656 -2.554688 36.046875 -1.234375 C 33.003906 0.078125 29.601562 0.734375 25.84375 0.734375 Z M 25.84375 0.734375 "/></g></g><g style="fill:#022033;fill-opacity:1;"><g transform="translate(144.198129, 292.450387)"><path style="stroke:none" d="M 2.453125 -20.734375 L 11.875 -20.734375 C 14.125 -20.734375 16.113281 -20.300781 17.84375 -19.4375 C 19.570312 -18.582031 20.914062 -17.375 21.875 -15.8125 C 22.832031 -14.257812 23.3125 -12.445312 23.3125 -10.375 C 23.3125 -8.300781 22.832031 -6.484375 21.875 -4.921875 C 20.914062 -3.359375 19.570312 -2.144531 17.84375 -1.28125 C 16.113281 -0.425781 14.125 0 11.875 0 L 2.453125 0 Z M 11.640625 -3.9375 C 13.710938 -3.9375 15.363281 -4.515625 16.59375 -5.671875 C 17.832031 -6.828125 18.453125 -8.394531 18.453125 -10.375 C 18.453125 -12.34375 17.832031 -13.90625 16.59375 -15.0625 C 15.363281 -16.21875 13.710938 -16.796875 11.640625 -16.796875 L 7.265625 -16.796875 L 7.265625 -3.9375 Z M 11.640625 -3.9375 "/></g></g><g style="fill:#022033;fill-opacity:1;"><g transform="translate(171.508233, 292.450387)"><path style="stroke:none" d="M 18.515625 -3.84375 L 18.515625 0 L 2.453125 0 L 2.453125 -20.734375 L 18.125 -20.734375 L 18.125 -16.890625 L 7.234375 -16.890625 L 7.234375 -12.390625 L 16.859375 -12.390625 L 16.859375 -8.65625 L 7.234375 -8.65625 L 7.234375 -3.84375 Z M 18.515625 -3.84375 "/></g></g><g style="fill:#022033;fill-opacity:1;"><g transform="translate(194.227237, 292.450387)"><path style="stroke:none" d="M 21.484375 -20.734375 L 21.484375 0 L 17.53125 0 L 7.203125 -12.59375 L 7.203125 0 L 2.453125 0 L 2.453125 -20.734375 L 6.421875 -20.734375 L 16.734375 -8.140625 L 16.734375 -20.734375 Z M 21.484375 -20.734375 "/></g></g><g style="fill:#022033;fill-opacity:1;"><g transform="translate(221.004178, 292.450387)"><path style="stroke:none" d="M 6.75 -16.828125 L 0.125 -16.828125 L 0.125 -20.734375 L 18.1875 -20.734375 L 18.1875 -16.828125 L 11.546875 -16.828125 L 11.546875 0 L 6.75 0 Z M 6.75 -16.828125 "/></g></g><g style="fill:#022033;fill-opacity:1;"><g transform="translate(242.153317, 292.450387)"><path style="stroke:none" d="M 16.109375 -4.4375 L 6.484375 -4.4375 L 4.65625 0 L -0.265625 0 L 8.96875 -20.734375 L 13.71875 -20.734375 L 22.984375 0 L 17.953125 0 Z M 14.609375 -8.09375 L 11.3125 -16.03125 L 8.03125 -8.09375 Z M 14.609375 -8.09375 "/></g></g><g style="fill:#022033;fill-opacity:1;"><g transform="translate(267.686211, 292.450387)"><path style="stroke:none" d="M 2.453125 -20.734375 L 7.265625 -20.734375 L 7.265625 -3.90625 L 17.65625 -3.90625 L 17.65625 0 L 2.453125 0 Z M 2.453125 -20.734375 "/></g></g><g style="fill:#022033;fill-opacity:1;"><g transform="translate(144.198129, 322.472419)"><path style="stroke:none" d="M 9.265625 0.359375 C 7.628906 0.359375 6.046875 0.132812 4.515625 -0.3125 C 2.984375 -0.757812 1.753906 -1.335938 0.828125 -2.046875 L 2.453125 -5.65625 C 3.347656 -5.007812 4.40625 -4.488281 5.625 -4.09375 C 6.851562 -3.695312 8.078125 -3.5 9.296875 -3.5 C 10.660156 -3.5 11.664062 -3.695312 12.3125 -4.09375 C 12.96875 -4.5 13.296875 -5.039062 13.296875 -5.71875 C 13.296875 -6.207031 13.101562 -6.613281 12.71875 -6.9375 C 12.332031 -7.269531 11.835938 -7.535156 11.234375 -7.734375 C 10.640625 -7.929688 9.828125 -8.148438 8.796875 -8.390625 C 7.210938 -8.765625 5.914062 -9.140625 4.90625 -9.515625 C 3.90625 -9.890625 3.046875 -10.488281 2.328125 -11.3125 C 1.609375 -12.144531 1.25 -13.253906 1.25 -14.640625 C 1.25 -15.835938 1.570312 -16.925781 2.21875 -17.90625 C 2.875 -18.882812 3.859375 -19.660156 5.171875 -20.234375 C 6.484375 -20.804688 8.085938 -21.09375 9.984375 -21.09375 C 11.304688 -21.09375 12.597656 -20.929688 13.859375 -20.609375 C 15.128906 -20.296875 16.238281 -19.84375 17.1875 -19.25 L 15.703125 -15.609375 C 13.785156 -16.691406 11.867188 -17.234375 9.953125 -17.234375 C 8.609375 -17.234375 7.613281 -17.015625 6.96875 -16.578125 C 6.332031 -16.148438 6.015625 -15.582031 6.015625 -14.875 C 6.015625 -14.164062 6.382812 -13.632812 7.125 -13.28125 C 7.863281 -12.9375 8.992188 -12.597656 10.515625 -12.265625 C 12.097656 -11.890625 13.390625 -11.515625 14.390625 -11.140625 C 15.398438 -10.765625 16.265625 -10.171875 16.984375 -9.359375 C 17.710938 -8.546875 18.078125 -7.453125 18.078125 -6.078125 C 18.078125 -4.890625 17.742188 -3.804688 17.078125 -2.828125 C 16.421875 -1.847656 15.425781 -1.070312 14.09375 -0.5 C 12.769531 0.0703125 11.160156 0.359375 9.265625 0.359375 Z M 9.265625 0.359375 "/></g></g><g style="fill:#022033;fill-opacity:1;"><g transform="translate(165.939658, 322.472419)"><path style="stroke:none" d="M 6.75 -16.828125 L 0.125 -16.828125 L 0.125 -20.734375 L 18.1875 -20.734375 L 18.1875 -16.828125 L 11.546875 -16.828125 L 11.546875 0 L 6.75 0 Z M 6.75 -16.828125 "/></g></g><g style="fill:#022033;fill-opacity:1;"><g transform="translate(187.088797, 322.472419)"><path style="stroke:none" d="M 16.109375 -4.4375 L 6.484375 -4.4375 L 4.65625 0 L -0.265625 0 L 8.96875 -20.734375 L 13.71875 -20.734375 L 22.984375 0 L 17.953125 0 Z M 14.609375 -8.09375 L 11.3125 -16.03125 L 8.03125 -8.09375 Z M 14.609375 -8.09375 "/></g></g><g style="fill:#022033;fill-opacity:1;"><g transform="translate(212.621691, 322.472419)"><path style="stroke:none" d="M 7.265625 -16.890625 L 7.265625 -11.40625 L 16.859375 -11.40625 L 16.859375 -7.546875 L 7.265625 -7.546875 L 7.265625 0 L 2.453125 0 L 2.453125 -20.734375 L 18.125 -20.734375 L 18.125 -16.890625 Z M 7.265625 -16.890625 "/></g></g><g style="fill:#022033;fill-opacity:1;"><g transform="translate(234.392843, 322.472419)"><path style="stroke:none" d="M 7.265625 -16.890625 L 7.265625 -11.40625 L 16.859375 -11.40625 L 16.859375 -7.546875 L 7.265625 -7.546875 L 7.265625 0 L 2.453125 0 L 2.453125 -20.734375 L 18.125 -20.734375 L 18.125 -16.890625 Z M 7.265625 -16.890625 "/></g></g><g style="fill:#022033;fill-opacity:1;"><g transform="translate(256.163995, 322.472419)"><path style="stroke:none" d="M 2.453125 -20.734375 L 7.265625 -20.734375 L 7.265625 0 L 2.453125 0 Z M 2.453125 -20.734375 "/></g></g><g style="fill:#022033;fill-opacity:1;"><g transform="translate(268.723326, 322.472419)"><path style="stroke:none" d="M 21.484375 -20.734375 L 21.484375 0 L 17.53125 0 L 7.203125 -12.59375 L 7.203125 0 L 2.453125 0 L 2.453125 -20.734375 L 6.421875 -20.734375 L 16.734375 -8.140625 L 16.734375 -20.734375 Z M 21.484375 -20.734375 "/></g></g><g style="fill:#022033;fill-opacity:1;"><g transform="translate(295.500266, 322.472419)"><path style="stroke:none" d="M 16.46875 -10.6875 L 20.859375 -10.6875 L 20.859375 -2.28125 C 19.734375 -1.425781 18.425781 -0.769531 16.9375 -0.3125 C 15.457031 0.132812 13.96875 0.359375 12.46875 0.359375 C 10.320312 0.359375 8.390625 -0.0976562 6.671875 -1.015625 C 4.953125 -1.941406 3.601562 -3.21875 2.625 -4.84375 C 1.644531 -6.46875 1.15625 -8.3125 1.15625 -10.375 C 1.15625 -12.425781 1.644531 -14.265625 2.625 -15.890625 C 3.601562 -17.523438 4.957031 -18.800781 6.6875 -19.71875 C 8.425781 -20.632812 10.382812 -21.09375 12.5625 -21.09375 C 14.375 -21.09375 16.019531 -20.785156 17.5 -20.171875 C 18.988281 -19.554688 20.234375 -18.671875 21.234375 -17.515625 L 18.15625 -14.671875 C 16.675781 -16.222656 14.890625 -17 12.796875 -17 C 11.472656 -17 10.296875 -16.722656 9.265625 -16.171875 C 8.242188 -15.617188 7.445312 -14.835938 6.875 -13.828125 C 6.300781 -12.828125 6.015625 -11.675781 6.015625 -10.375 C 6.015625 -9.082031 6.300781 -7.929688 6.875 -6.921875 C 7.445312 -5.921875 8.238281 -5.140625 9.25 -4.578125 C 10.269531 -4.015625 11.429688 -3.734375 12.734375 -3.734375 C 14.117188 -3.734375 15.363281 -4.03125 16.46875 -4.625 Z M 16.46875 -10.6875 "/></g></g><g clip-rule="nonzero" clip-path="url(#e03bba9ea3)"><g clip-rule="nonzero" clip-path="url(#8ede8c9d65)"><path style=" stroke:none;fill-rule:nonzero;fill:#107faa;fill-opacity:1;" d="M 219.671875 21.246094 L 246.234375 21.246094 L 246.234375 47.808594 L 219.671875 47.808594 Z M 219.671875 21.246094 "/></g></g><g clip-rule="nonzero" clip-path="url(#142adb3d7b)"><g clip-rule="nonzero" clip-path="url(#d83baa9b0d)"><path style=" stroke:none;fill-rule:nonzero;fill:#ffae4b;fill-opacity:1;" d="M 92.699219 47.808594 L 119.261719 47.808594 L 119.261719 74.375 L 92.699219 74.375 Z M 92.699219 47.808594 "/></g></g></g></svg>