<svg xmlns="http://www.w3.org/2000/svg" xmlns:xlink="http://www.w3.org/1999/xlink" width="500" zoomAndPan="magnify" viewBox="0 0 375 374.999991" height="500" preserveAspectRatio="xMidYMid meet" version="1.2"><defs><clipPath id="6411c9f9df"><path d="M 167 72 L 304 72 L 304 187 L 167 187 Z M 167 72 "/></clipPath><clipPath id="80f1810f72"><path d="M 37.5 114.070312 L 284.3125 59.597656 L 331.832031 274.917969 L 85.019531 329.386719 Z M 37.5 114.070312 "/></clipPath><clipPath id="fd171920e0"><path d="M 37.5 114.070312 L 284.3125 59.597656 L 331.832031 274.917969 L 85.019531 329.386719 Z M 37.5 114.070312 "/></clipPath><clipPath id="0349ed79e7"><path d="M 82 127 L 130 127 L 130 230 L 82 230 Z M 82 127 "/></clipPath><clipPath id="ff2075fd4f"><path d="M 37.5 114.070312 L 284.3125 59.597656 L 331.832031 274.917969 L 85.019531 329.386719 Z M 37.5 114.070312 "/></clipPath><clipPath id="206f7d9bb5"><path d="M 37.5 114.070312 L 284.3125 59.597656 L 331.832031 274.917969 L 85.019531 329.386719 Z M 37.5 114.070312 "/></clipPath><clipPath id="659027aa21"><path d="M 53 100 L 221 100 L 221 319 L 53 319 Z M 53 100 "/></clipPath><clipPath id="992eb5709d"><path d="M 37.5 114.070312 L 284.3125 59.597656 L 331.832031 274.917969 L 85.019531 329.386719 Z M 37.5 114.070312 "/></clipPath><clipPath id="36c935c55b"><path d="M 37.5 114.070312 L 284.3125 59.597656 L 331.832031 274.917969 L 85.019531 329.386719 Z M 37.5 114.070312 "/></clipPath><clipPath id="65b5f2dff4"><path d="M 193.589844 144.546875 L 375 144.546875 L 375 250.820312 L 193.589844 250.820312 Z M 193.589844 144.546875 "/></clipPath><clipPath id="1b8182049c"><path d="M 219.464844 33.09375 L 245.996094 33.09375 L 245.996094 59.625 L 219.464844 59.625 Z M 219.464844 33.09375 "/></clipPath><clipPath id="8c3fcec514"><path d="M 232.730469 33.09375 C 225.402344 33.09375 219.464844 39.03125 219.464844 46.359375 C 219.464844 53.6875 225.402344 59.625 232.730469 59.625 C 240.058594 59.625 245.996094 53.6875 245.996094 46.359375 C 245.996094 39.03125 240.058594 33.09375 232.730469 33.09375 Z M 232.730469 33.09375 "/></clipPath><clipPath id="72a22fbd30"><path d="M 92.636719 59.625 L 119.167969 59.625 L 119.167969 86.160156 L 92.636719 86.160156 Z M 92.636719 59.625 "/></clipPath><clipPath id="6cf225d388"><path d="M 105.902344 59.625 C 98.574219 59.625 92.636719 65.566406 92.636719 72.894531 C 92.636719 80.21875 98.574219 86.160156 105.902344 86.160156 C 113.230469 86.160156 119.167969 80.21875 119.167969 72.894531 C 119.167969 65.566406 113.230469 59.625 105.902344 59.625 Z M 105.902344 59.625 "/></clipPath></defs><g id="0241899958"><rect x="0" width="375" y="0" height="374.999991" style="fill:#ffffff;fill-opacity:1;stroke:none;"/><rect x="0" width="375" y="0" height="374.999991" style="fill:#000000;fill-opacity:1;stroke:none;"/><g clip-rule="nonzero" clip-path="url(#6411c9f9df)"><g clip-rule="nonzero" clip-path="url(#80f1810f72)"><g clip-rule="nonzero" clip-path="url(#fd171920e0)"><path style=" stroke:none;fill-rule:nonzero;fill:#107faa;fill-opacity:1;" d="M 167.992188 125.734375 C 171.253906 125.203125 174.316406 124.1875 177.261719 123.035156 C 180.183594 121.839844 182.882812 120.3125 185.394531 118.644531 C 190.335938 115.148438 194.289062 110.753906 197.0625 105.734375 C 198.425781 103.195312 199.578125 100.566406 200.496094 97.816406 C 200.726562 97.125 200.960938 96.464844 201.144531 95.75 L 201.433594 94.703125 L 201.589844 94.179688 L 201.664062 93.929688 L 201.894531 93.339844 L 202.632812 91.691406 L 203.238281 90.433594 C 203.667969 89.609375 204.097656 88.78125 204.585938 87.953125 C 205.589844 86.277344 206.523438 84.648438 208.554688 82.636719 C 208.996094 82.179688 209.734375 81.535156 209.941406 81.367188 L 210.960938 80.511719 C 211.800781 79.855469 212.589844 79.308594 213.371094 78.753906 C 216.605469 76.589844 220.175781 74.789062 224.03125 73.625 C 231.742188 71.234375 240.3125 71.597656 247.695312 74.027344 C 255.148438 76.402344 261.535156 80.417969 267.113281 84.921875 C 272.679688 89.476562 277.464844 94.585938 281.765625 99.941406 C 283.964844 102.582031 285.921875 105.378906 287.871094 108.15625 C 289.816406 110.9375 291.574219 113.816406 293.328125 116.675781 L 293.640625 117.171875 L 293.65625 117.214844 C 294.144531 118.191406 294.988281 119.871094 295.597656 121.1875 C 296.246094 122.589844 296.804688 124.019531 297.359375 125.441406 C 298.449219 128.300781 299.425781 131.171875 300.203125 134.066406 C 300.980469 136.984375 301.660156 139.898438 302.183594 142.851562 C 302.640625 145.800781 303.0625 148.746094 303.300781 151.699219 C 303.476562 153.164062 303.542969 154.644531 303.605469 156.121094 C 303.679688 157.589844 303.777344 159.0625 303.703125 160.542969 C 303.652344 163.492188 303.574219 166.414062 303.296875 169.332031 C 303.113281 172.242188 302.558594 175.121094 302.117188 177.984375 C 301.949219 179.414062 301.542969 180.828125 301.210938 182.234375 L 300.152344 186.4375 C 299.757812 183.546875 299.554688 180.714844 299.152344 177.898438 L 298.566406 173.707031 C 298.421875 172.3125 298.050781 170.921875 297.847656 169.554688 C 297.441406 166.796875 296.820312 164.066406 296.207031 161.375 C 295.9375 160.019531 295.476562 158.707031 295.199219 157.367188 C 294.867188 156.035156 294.554688 154.703125 294.125 153.394531 C 293.382812 150.761719 292.492188 148.191406 291.570312 145.644531 C 290.589844 143.113281 289.667969 140.601562 288.5625 138.148438 C 287.457031 135.71875 286.363281 133.3125 285.101562 130.996094 C 284.492188 129.835938 283.820312 128.699219 283.175781 127.589844 C 282.492188 126.386719 281.960938 125.582031 281.023438 124.105469 L 281.359375 124.632812 C 277.578125 119.613281 273.746094 114.703125 269.660156 110.140625 C 267.660156 107.835938 265.558594 105.644531 263.398438 103.5625 C 261.285156 101.445312 259.074219 99.507812 256.820312 97.65625 C 252.289062 94.058594 247.503906 91.050781 242.609375 89.316406 C 237.71875 87.546875 232.773438 87.074219 227.925781 88.105469 C 225.507812 88.628906 223.089844 89.492188 220.789062 90.730469 L 219.140625 91.679688 C 218.925781 91.785156 218.546875 92.058594 218.210938 92.265625 C 217.746094 92.566406 217.910156 92.492188 217.769531 92.601562 C 217.414062 92.789062 216.492188 93.886719 215.78125 94.945312 C 215.402344 95.492188 215.042969 96.082031 214.667969 96.664062 L 213.8125 98.105469 L 213.742188 98.242188 L 213.703125 98.320312 L 213.6875 98.34375 C 213.738281 98.222656 213.558594 98.671875 213.789062 98.082031 L 213.65625 98.390625 L 213.371094 99.007812 L 212.824219 100.25 C 212.460938 101.070312 212.039062 101.867188 211.625 102.679688 C 209.957031 105.882812 207.992188 108.984375 205.597656 111.757812 C 200.929688 117.359375 194.832031 121.792969 188.164062 124.148438 C 184.867188 125.386719 181.429688 126.066406 178.03125 126.355469 C 174.640625 126.652344 171.21875 126.496094 167.992188 125.734375 Z M 167.992188 125.734375 "/></g></g></g><g clip-rule="nonzero" clip-path="url(#0349ed79e7)"><g clip-rule="nonzero" clip-path="url(#ff2075fd4f)"><g clip-rule="nonzero" clip-path="url(#206f7d9bb5)"><path style=" stroke:none;fill-rule:nonzero;fill:#d9f8ff;fill-opacity:1;" d="M 126.527344 138.664062 C 125.972656 138.246094 119.695312 133.425781 119.695312 133.425781 L 119.679688 133.4375 L 118.171875 132.285156 L 117.09375 131.542969 L 116.3125 131.042969 C 115.929688 130.804688 115.558594 130.539062 115.164062 130.34375 L 114.621094 130.042969 C 113.519531 129.414062 112.191406 128.863281 110.691406 128.414062 C 108.996094 127.914062 107.390625 127.816406 105.984375 128.128906 C 105.734375 128.183594 105.492188 128.25 105.257812 128.328125 L 104.546875 128.566406 C 104.058594 128.8125 103.734375 128.964844 103.40625 129.117188 C 103.203125 129.195312 103.066406 129.265625 102.949219 129.320312 L 100.285156 131.140625 L 97.480469 133.707031 L 94.34375 137.433594 C 93.84375 138.027344 93.171875 139.074219 92.453125 140.179688 C 91.835938 141.144531 91.199219 142.121094 90.558594 143.042969 C 88.484375 146.085938 87.050781 149.980469 85.839844 153.71875 C 84.480469 157.644531 83.667969 161.785156 82.894531 166.816406 C 82.675781 169.09375 82.464844 171.363281 82.316406 173.652344 L 82.316406 180.820312 L 82.890625 188.011719 L 84.054688 196.105469 C 84.148438 197.035156 84.472656 198.308594 84.808594 199.65625 C 85.078125 200.792969 85.347656 201.925781 85.578125 203.054688 L 86.320312 206.28125 L 87.425781 209.777344 L 89.78125 217.148438 C 90.808594 219.667969 91.828125 222.199219 92.816406 224.769531 L 94.109375 228.171875 L 94.589844 229.160156 C 112.050781 229.113281 104.941406 183.847656 105.457031 180.847656 C 110.347656 152.972656 138.339844 147.585938 126.527344 138.664062 Z M 126.527344 138.664062 "/></g></g></g><g clip-rule="nonzero" clip-path="url(#659027aa21)"><g clip-rule="nonzero" clip-path="url(#992eb5709d)"><g clip-rule="nonzero" clip-path="url(#36c935c55b)"><path style=" stroke:none;fill-rule:nonzero;fill:#ffae4b;fill-opacity:1;" d="M 220.78125 114.503906 C 219.664062 116.351562 218.386719 118.097656 217.035156 119.800781 C 215.664062 121.488281 214.257812 123.152344 212.726562 124.703125 C 211.242188 126.34375 209.542969 127.71875 207.929688 129.21875 C 206.269531 130.6875 204.433594 131.917969 202.671875 133.285156 C 200.847656 134.570312 198.855469 135.621094 196.925781 136.789062 C 194.929688 137.820312 192.816406 138.660156 190.730469 139.601562 C 188.628906 140.445312 186.378906 140.953125 184.164062 141.632812 C 181.960938 142.367188 179.601562 142.40625 177.292969 142.757812 C 174.976562 143.167969 172.652344 142.980469 170.304688 142.894531 C 167.945312 142.824219 165.582031 142.746094 163.324219 142.140625 C 161.046875 141.652344 158.699219 141.265625 156.4375 140.644531 L 149.902344 138.15625 C 147.65625 137.390625 145.671875 136.253906 143.699219 135.074219 L 137.695312 131.585938 C 135.773438 130.335938 134.046875 128.875 132.226562 127.511719 L 126.792969 123.335938 L 127.183594 123.671875 L 125.433594 122.324219 L 123.910156 121.265625 C 122.84375 120.621094 121.824219 119.910156 120.75 119.367188 C 118.628906 118.140625 116.410156 117.265625 114.199219 116.601562 C 109.78125 115.3125 105.410156 115.292969 101.355469 116.640625 C 100.308594 116.8125 99.355469 117.433594 98.359375 117.871094 C 97.363281 118.304688 96.371094 118.761719 95.453125 119.515625 L 92.605469 121.457031 L 89.925781 123.914062 L 88.589844 125.121094 L 87.367188 126.582031 L 84.925781 129.5 C 83.292969 131.453125 81.988281 133.816406 80.472656 135.953125 C 77.585938 140.222656 75.769531 144.882812 74.125 149.878906 C 72.414062 154.804688 71.476562 160.046875 70.644531 165.28125 C 70.410156 167.929688 70.171875 170.585938 70 173.253906 L 70 181.300781 L 70.640625 189.382812 L 71.816406 197.464844 C 72.109375 200.164062 72.964844 202.804688 73.503906 205.480469 L 74.421875 209.507812 L 75.65625 213.457031 L 78.191406 221.367188 C 79.25 223.941406 80.292969 226.519531 81.289062 229.125 L 82.796875 233.054688 L 84.59375 236.847656 L 88.222656 244.464844 C 89.226562 246.753906 90.984375 249.441406 92.3125 251.90625 L 96.558594 259.519531 C 102.390625 269.378906 108.027344 279.421875 114.050781 289.320312 C 117.109375 294.222656 119.882812 299.382812 122.988281 304.242188 C 126.167969 309.027344 129.28125 313.914062 132.402344 318.921875 C 128.328125 314.808594 124.253906 310.613281 120.238281 306.308594 C 116.242188 301.980469 112.660156 297.417969 108.957031 292.902344 C 105.289062 288.359375 101.503906 283.890625 98.058594 279.136719 L 87.542969 265.007812 C 84.140625 260.175781 80.917969 255.703125 77.636719 250.421875 L 73.148438 242.660156 L 70.894531 238.757812 L 68.933594 234.710938 C 67.601562 231.996094 66.328125 229.257812 65.070312 226.519531 C 63.941406 223.710938 62.9375 220.84375 61.867188 218.003906 L 60.300781 213.71875 L 59.050781 209.3125 C 58.289062 206.351562 57.242188 203.464844 56.730469 200.429688 C 56.160156 197.410156 55.496094 194.386719 55.015625 191.347656 L 54.128906 182.089844 C 54.007812 178.976562 54.023438 175.867188 53.972656 172.75 C 54.113281 169.621094 54.335938 166.484375 54.601562 163.367188 C 55.457031 157.144531 56.460938 150.878906 58.53125 144.808594 C 60.550781 138.847656 63.164062 132.648438 66.851562 127.332031 C 68.707031 124.738281 70.285156 122.042969 72.394531 119.5625 L 75.609375 115.855469 L 77.230469 114.023438 L 79.121094 112.332031 C 83.816406 107.628906 90.246094 103.914062 97.234375 101.972656 C 104.320312 100.007812 112.0625 100.5625 118.632812 102.902344 C 121.933594 104.046875 125.046875 105.535156 127.882812 107.335938 C 129.339844 108.179688 130.671875 109.175781 132 110.195312 L 133.921875 111.769531 C 134.558594 112.339844 135.195312 112.902344 135.503906 113.214844 L 135.902344 113.558594 L 140.355469 117.566406 C 141.871094 118.886719 143.300781 120.335938 144.867188 121.5625 L 149.734375 124.910156 C 151.355469 126.066406 152.980469 127.210938 154.769531 127.960938 L 159.992188 130.636719 C 161.78125 131.34375 163.65625 131.84375 165.492188 132.488281 C 167.320312 133.230469 169.226562 133.46875 171.152344 133.738281 C 173.0625 134.035156 175 134.453125 176.945312 134.28125 C 178.882812 134.164062 180.890625 134.496094 182.84375 134.113281 C 184.773438 133.789062 186.792969 133.664062 188.730469 133.175781 C 190.65625 132.597656 192.632812 132.144531 194.550781 131.46875 C 196.429688 130.675781 198.347656 129.960938 200.230469 129.09375 C 202.039062 128.121094 203.972656 127.285156 205.730469 126.175781 C 207.488281 125.046875 209.335938 124.015625 210.984375 122.71875 C 214.488281 120.324219 217.722656 117.535156 220.78125 114.503906 Z M 220.78125 114.503906 "/></g></g></g><g clip-rule="nonzero" clip-path="url(#65b5f2dff4)"><path style=" stroke:none;fill-rule:nonzero;fill:#000000;fill-opacity:1;" d="M 193.589844 144.546875 L 432.292969 144.546875 L 432.292969 250.820312 L 193.589844 250.820312 Z M 193.589844 144.546875 "/></g><g style="fill:#107faa;fill-opacity:1;"><g transform="translate(144.076313, 201.304617)"><path style="stroke:none" d="M 19.328125 0.734375 C 15.910156 0.734375 12.601562 0.273438 9.40625 -0.640625 C 6.21875 -1.566406 3.660156 -2.773438 1.734375 -4.265625 L 5.125 -11.796875 C 6.976562 -10.441406 9.179688 -9.347656 11.734375 -8.515625 C 14.285156 -7.691406 16.835938 -7.28125 19.390625 -7.28125 C 22.234375 -7.28125 24.332031 -7.703125 25.6875 -8.546875 C 27.050781 -9.398438 27.734375 -10.523438 27.734375 -11.921875 C 27.734375 -12.953125 27.332031 -13.804688 26.53125 -14.484375 C 25.726562 -15.160156 24.695312 -15.703125 23.4375 -16.109375 C 22.1875 -16.523438 20.488281 -16.984375 18.34375 -17.484375 C 15.050781 -18.265625 12.351562 -19.046875 10.25 -19.828125 C 8.15625 -20.609375 6.351562 -21.863281 4.84375 -23.59375 C 3.34375 -25.320312 2.59375 -27.628906 2.59375 -30.515625 C 2.59375 -33.023438 3.269531 -35.296875 4.625 -37.328125 C 5.988281 -39.367188 8.039062 -40.988281 10.78125 -42.1875 C 13.519531 -43.382812 16.863281 -43.984375 20.8125 -43.984375 C 23.570312 -43.984375 26.269531 -43.648438 28.90625 -42.984375 C 31.539062 -42.328125 33.847656 -41.378906 35.828125 -40.140625 L 32.734375 -32.546875 C 28.742188 -34.816406 24.75 -35.953125 20.75 -35.953125 C 17.945312 -35.953125 15.875 -35.5 14.53125 -34.59375 C 13.195312 -33.6875 12.53125 -32.488281 12.53125 -31 C 12.53125 -29.519531 13.300781 -28.421875 14.84375 -27.703125 C 16.394531 -26.984375 18.753906 -26.273438 21.921875 -25.578125 C 25.222656 -24.785156 27.921875 -24 30.015625 -23.21875 C 32.117188 -22.4375 33.921875 -21.203125 35.421875 -19.515625 C 36.921875 -17.828125 37.671875 -15.539062 37.671875 -12.65625 C 37.671875 -10.1875 36.976562 -7.929688 35.59375 -5.890625 C 34.21875 -3.859375 32.148438 -2.242188 29.390625 -1.046875 C 26.640625 0.140625 23.285156 0.734375 19.328125 0.734375 Z M 19.328125 0.734375 "/></g></g><g style="fill:#107faa;fill-opacity:1;"><g transform="translate(183.480341, 201.304617)"><path style="stroke:none" d="M 44.46875 0 L 44.40625 -25.9375 L 31.6875 -4.578125 L 27.171875 -4.578125 L 14.515625 -25.390625 L 14.515625 0 L 5.125 0 L 5.125 -43.234375 L 13.40625 -43.234375 L 29.578125 -16.375 L 45.515625 -43.234375 L 53.734375 -43.234375 L 53.859375 0 Z M 44.46875 0 "/></g></g><g style="fill:#107faa;fill-opacity:1;"><g transform="translate(242.462884, 201.304617)"><path style="stroke:none" d="M 25.875 -15.3125 L 25.875 0 L 15.875 0 L 15.875 -15.4375 L -0.859375 -43.234375 L 9.765625 -43.234375 L 21.3125 -24.03125 L 32.859375 -43.234375 L 42.6875 -43.234375 Z M 25.875 -15.3125 "/></g></g><g style="fill:#107faa;fill-opacity:1;"><g transform="translate(284.213901, 201.304617)"><path style="stroke:none" d="M 5.125 -43.234375 L 15.125 -43.234375 L 15.125 -8.15625 L 36.8125 -8.15625 L 36.8125 0 L 5.125 0 Z M 5.125 -43.234375 "/></g></g><g style="fill:#107faa;fill-opacity:1;"><g transform="translate(321.533404, 201.304617)"><path style="stroke:none" d=""/></g></g><g style="fill:#107faa;fill-opacity:1;"><g transform="translate(144.076313, 265.011804)"><path style="stroke:none" d="M 19.328125 0.734375 C 15.910156 0.734375 12.601562 0.273438 9.40625 -0.640625 C 6.21875 -1.566406 3.660156 -2.773438 1.734375 -4.265625 L 5.125 -11.796875 C 6.976562 -10.441406 9.179688 -9.347656 11.734375 -8.515625 C 14.285156 -7.691406 16.835938 -7.28125 19.390625 -7.28125 C 22.234375 -7.28125 24.332031 -7.703125 25.6875 -8.546875 C 27.050781 -9.398438 27.734375 -10.523438 27.734375 -11.921875 C 27.734375 -12.953125 27.332031 -13.804688 26.53125 -14.484375 C 25.726562 -15.160156 24.695312 -15.703125 23.4375 -16.109375 C 22.1875 -16.523438 20.488281 -16.984375 18.34375 -17.484375 C 15.050781 -18.265625 12.351562 -19.046875 10.25 -19.828125 C 8.15625 -20.609375 6.351562 -21.863281 4.84375 -23.59375 C 3.34375 -25.320312 2.59375 -27.628906 2.59375 -30.515625 C 2.59375 -33.023438 3.269531 -35.296875 4.625 -37.328125 C 5.988281 -39.367188 8.039062 -40.988281 10.78125 -42.1875 C 13.519531 -43.382812 16.863281 -43.984375 20.8125 -43.984375 C 23.570312 -43.984375 26.269531 -43.648438 28.90625 -42.984375 C 31.539062 -42.328125 33.847656 -41.378906 35.828125 -40.140625 L 32.734375 -32.546875 C 28.742188 -34.816406 24.75 -35.953125 20.75 -35.953125 C 17.945312 -35.953125 15.875 -35.5 14.53125 -34.59375 C 13.195312 -33.6875 12.53125 -32.488281 12.53125 -31 C 12.53125 -29.519531 13.300781 -28.421875 14.84375 -27.703125 C 16.394531 -26.984375 18.753906 -26.273438 21.921875 -25.578125 C 25.222656 -24.785156 27.921875 -24 30.015625 -23.21875 C 32.117188 -22.4375 33.921875 -21.203125 35.421875 -19.515625 C 36.921875 -17.828125 37.671875 -15.539062 37.671875 -12.65625 C 37.671875 -10.1875 36.976562 -7.929688 35.59375 -5.890625 C 34.21875 -3.859375 32.148438 -2.242188 29.390625 -1.046875 C 26.640625 0.140625 23.285156 0.734375 19.328125 0.734375 Z M 19.328125 0.734375 "/></g></g><g style="fill:#107faa;fill-opacity:1;"><g transform="translate(183.480341, 265.011804)"><path style="stroke:none" d="M 25.875 -15.3125 L 25.875 0 L 15.875 0 L 15.875 -15.4375 L -0.859375 -43.234375 L 9.765625 -43.234375 L 21.3125 -24.03125 L 32.859375 -43.234375 L 42.6875 -43.234375 Z M 25.875 -15.3125 "/></g></g><g style="fill:#107faa;fill-opacity:1;"><g transform="translate(225.231359, 265.011804)"><path style="stroke:none" d="M 44.78125 -43.234375 L 44.78125 0 L 36.5625 0 L 15.015625 -26.25 L 15.015625 0 L 5.125 0 L 5.125 -43.234375 L 13.40625 -43.234375 L 34.890625 -16.984375 L 34.890625 -43.234375 Z M 44.78125 -43.234375 "/></g></g><g style="fill:#107faa;fill-opacity:1;"><g transform="translate(275.134935, 265.011804)"><path style="stroke:none" d="M 25.8125 0.734375 C 21.40625 0.734375 17.421875 -0.21875 13.859375 -2.125 C 10.304688 -4.039062 7.507812 -6.695312 5.46875 -10.09375 C 3.425781 -13.488281 2.40625 -17.332031 2.40625 -21.625 C 2.40625 -25.90625 3.425781 -29.742188 5.46875 -33.140625 C 7.507812 -36.535156 10.304688 -39.191406 13.859375 -41.109375 C 17.421875 -43.023438 21.425781 -43.984375 25.875 -43.984375 C 29.625 -43.984375 33.007812 -43.320312 36.03125 -42 C 39.0625 -40.6875 41.609375 -38.789062 43.671875 -36.3125 L 37.25 -30.390625 C 34.320312 -33.765625 30.695312 -35.453125 26.375 -35.453125 C 23.695312 -35.453125 21.304688 -34.863281 19.203125 -33.6875 C 17.109375 -32.519531 15.472656 -30.882812 14.296875 -28.78125 C 13.117188 -26.675781 12.53125 -24.289062 12.53125 -21.625 C 12.53125 -18.945312 13.117188 -16.554688 14.296875 -14.453125 C 15.472656 -12.347656 17.109375 -10.707031 19.203125 -9.53125 C 21.304688 -8.363281 23.695312 -7.78125 26.375 -7.78125 C 30.695312 -7.78125 34.320312 -9.488281 37.25 -12.90625 L 43.671875 -6.984375 C 41.609375 -4.472656 39.050781 -2.554688 36 -1.234375 C 32.957031 0.078125 29.5625 0.734375 25.8125 0.734375 Z M 25.8125 0.734375 "/></g></g><g style="fill:#d9f8ff;fill-opacity:1;"><g transform="translate(144.076313, 303.987874)"><path style="stroke:none" d="M 2.453125 -20.71875 L 11.859375 -20.71875 C 14.109375 -20.71875 16.097656 -20.285156 17.828125 -19.421875 C 19.554688 -18.566406 20.898438 -17.359375 21.859375 -15.796875 C 22.816406 -14.242188 23.296875 -12.429688 23.296875 -10.359375 C 23.296875 -8.285156 22.816406 -6.46875 21.859375 -4.90625 C 20.898438 -3.351562 19.554688 -2.144531 17.828125 -1.28125 C 16.097656 -0.425781 14.109375 0 11.859375 0 L 2.453125 0 Z M 11.625 -3.9375 C 13.695312 -3.9375 15.347656 -4.507812 16.578125 -5.65625 C 17.816406 -6.8125 18.4375 -8.378906 18.4375 -10.359375 C 18.4375 -12.328125 17.816406 -13.890625 16.578125 -15.046875 C 15.347656 -16.203125 13.695312 -16.78125 11.625 -16.78125 L 7.25 -16.78125 L 7.25 -3.9375 Z M 11.625 -3.9375 "/></g></g><g style="fill:#d9f8ff;fill-opacity:1;"><g transform="translate(171.355237, 303.987874)"><path style="stroke:none" d="M 18.5 -3.84375 L 18.5 0 L 2.453125 0 L 2.453125 -20.71875 L 18.109375 -20.71875 L 18.109375 -16.875 L 7.21875 -16.875 L 7.21875 -12.375 L 16.84375 -12.375 L 16.84375 -8.640625 L 7.21875 -8.640625 L 7.21875 -3.84375 Z M 18.5 -3.84375 "/></g></g><g style="fill:#d9f8ff;fill-opacity:1;"><g transform="translate(194.048303, 303.987874)"><path style="stroke:none" d="M 21.453125 -20.71875 L 21.453125 0 L 17.515625 0 L 7.1875 -12.578125 L 7.1875 0 L 2.453125 0 L 2.453125 -20.71875 L 6.421875 -20.71875 L 16.71875 -8.140625 L 16.71875 -20.71875 Z M 21.453125 -20.71875 "/></g></g><g style="fill:#d9f8ff;fill-opacity:1;"><g transform="translate(220.794673, 303.987874)"><path style="stroke:none" d="M 6.75 -16.8125 L 0.125 -16.8125 L 0.125 -20.71875 L 18.171875 -20.71875 L 18.171875 -16.8125 L 11.546875 -16.8125 L 11.546875 0 L 6.75 0 Z M 6.75 -16.8125 "/></g></g><g style="fill:#d9f8ff;fill-opacity:1;"><g transform="translate(241.919667, 303.987874)"><path style="stroke:none" d="M 16.09375 -4.4375 L 6.484375 -4.4375 L 4.640625 0 L -0.265625 0 L 8.96875 -20.71875 L 13.703125 -20.71875 L 22.96875 0 L 17.9375 0 Z M 14.59375 -8.078125 L 11.3125 -16.015625 L 8.015625 -8.078125 Z M 14.59375 -8.078125 "/></g></g><g style="fill:#d9f8ff;fill-opacity:1;"><g transform="translate(267.42341, 303.987874)"><path style="stroke:none" d="M 2.453125 -20.71875 L 7.25 -20.71875 L 7.25 -3.90625 L 17.640625 -3.90625 L 17.640625 0 L 2.453125 0 Z M 2.453125 -20.71875 "/></g></g><g style="fill:#d9f8ff;fill-opacity:1;"><g transform="translate(144.076313, 333.975631)"><path style="stroke:none" d="M 9.265625 0.359375 C 7.628906 0.359375 6.046875 0.132812 4.515625 -0.3125 C 2.984375 -0.757812 1.753906 -1.335938 0.828125 -2.046875 L 2.453125 -5.65625 C 3.335938 -5 4.390625 -4.472656 5.609375 -4.078125 C 6.835938 -3.679688 8.066406 -3.484375 9.296875 -3.484375 C 10.648438 -3.484375 11.648438 -3.6875 12.296875 -4.09375 C 12.953125 -4.5 13.28125 -5.039062 13.28125 -5.71875 C 13.28125 -6.207031 13.085938 -6.613281 12.703125 -6.9375 C 12.328125 -7.257812 11.835938 -7.519531 11.234375 -7.71875 C 10.628906 -7.914062 9.816406 -8.132812 8.796875 -8.375 C 7.210938 -8.75 5.914062 -9.125 4.90625 -9.5 C 3.90625 -9.875 3.046875 -10.472656 2.328125 -11.296875 C 1.609375 -12.128906 1.25 -13.238281 1.25 -14.625 C 1.25 -15.820312 1.570312 -16.910156 2.21875 -17.890625 C 2.875 -18.867188 3.851562 -19.644531 5.15625 -20.21875 C 6.46875 -20.789062 8.070312 -21.078125 9.96875 -21.078125 C 11.289062 -21.078125 12.582031 -20.914062 13.84375 -20.59375 C 15.113281 -20.28125 16.222656 -19.828125 17.171875 -19.234375 L 15.6875 -15.59375 C 13.769531 -16.675781 11.851562 -17.21875 9.9375 -17.21875 C 8.601562 -17.21875 7.613281 -17 6.96875 -16.5625 C 6.320312 -16.132812 6 -15.566406 6 -14.859375 C 6 -14.148438 6.367188 -13.617188 7.109375 -13.265625 C 7.859375 -12.921875 8.988281 -12.582031 10.5 -12.25 C 12.082031 -11.875 13.375 -11.5 14.375 -11.125 C 15.382812 -10.75 16.25 -10.15625 16.96875 -9.34375 C 17.6875 -8.539062 18.046875 -7.445312 18.046875 -6.0625 C 18.046875 -4.882812 17.710938 -3.804688 17.046875 -2.828125 C 16.390625 -1.847656 15.398438 -1.070312 14.078125 -0.5 C 12.765625 0.0703125 11.160156 0.359375 9.265625 0.359375 Z M 9.265625 0.359375 "/></g></g><g style="fill:#d9f8ff;fill-opacity:1;"><g transform="translate(165.793019, 333.975631)"><path style="stroke:none" d="M 6.75 -16.8125 L 0.125 -16.8125 L 0.125 -20.71875 L 18.171875 -20.71875 L 18.171875 -16.8125 L 11.546875 -16.8125 L 11.546875 0 L 6.75 0 Z M 6.75 -16.8125 "/></g></g><g style="fill:#d9f8ff;fill-opacity:1;"><g transform="translate(186.918013, 333.975631)"><path style="stroke:none" d="M 16.09375 -4.4375 L 6.484375 -4.4375 L 4.640625 0 L -0.265625 0 L 8.96875 -20.71875 L 13.703125 -20.71875 L 22.96875 0 L 17.9375 0 Z M 14.59375 -8.078125 L 11.3125 -16.015625 L 8.015625 -8.078125 Z M 14.59375 -8.078125 "/></g></g><g style="fill:#d9f8ff;fill-opacity:1;"><g transform="translate(212.421756, 333.975631)"><path style="stroke:none" d="M 7.25 -16.875 L 7.25 -11.390625 L 16.84375 -11.390625 L 16.84375 -7.546875 L 7.25 -7.546875 L 7.25 0 L 2.453125 0 L 2.453125 -20.71875 L 18.109375 -20.71875 L 18.109375 -16.875 Z M 7.25 -16.875 "/></g></g><g style="fill:#d9f8ff;fill-opacity:1;"><g transform="translate(234.168052, 333.975631)"><path style="stroke:none" d="M 7.25 -16.875 L 7.25 -11.390625 L 16.84375 -11.390625 L 16.84375 -7.546875 L 7.25 -7.546875 L 7.25 0 L 2.453125 0 L 2.453125 -20.71875 L 18.109375 -20.71875 L 18.109375 -16.875 Z M 7.25 -16.875 "/></g></g><g style="fill:#d9f8ff;fill-opacity:1;"><g transform="translate(255.914349, 333.975631)"><path style="stroke:none" d="M 2.453125 -20.71875 L 7.25 -20.71875 L 7.25 0 L 2.453125 0 Z M 2.453125 -20.71875 "/></g></g><g style="fill:#d9f8ff;fill-opacity:1;"><g transform="translate(268.459341, 333.975631)"><path style="stroke:none" d="M 21.453125 -20.71875 L 21.453125 0 L 17.515625 0 L 7.1875 -12.578125 L 7.1875 0 L 2.453125 0 L 2.453125 -20.71875 L 6.421875 -20.71875 L 16.71875 -8.140625 L 16.71875 -20.71875 Z M 21.453125 -20.71875 "/></g></g><g style="fill:#d9f8ff;fill-opacity:1;"><g transform="translate(295.205711, 333.975631)"><path style="stroke:none" d="M 16.453125 -10.6875 L 20.828125 -10.6875 L 20.828125 -2.28125 C 19.703125 -1.425781 18.398438 -0.769531 16.921875 -0.3125 C 15.441406 0.132812 13.953125 0.359375 12.453125 0.359375 C 10.304688 0.359375 8.375 -0.0976562 6.65625 -1.015625 C 4.9375 -1.929688 3.585938 -3.203125 2.609375 -4.828125 C 1.640625 -6.460938 1.15625 -8.304688 1.15625 -10.359375 C 1.15625 -12.410156 1.640625 -14.25 2.609375 -15.875 C 3.585938 -17.5 4.945312 -18.769531 6.6875 -19.6875 C 8.425781 -20.613281 10.378906 -21.078125 12.546875 -21.078125 C 14.359375 -21.078125 16.003906 -20.769531 17.484375 -20.15625 C 18.960938 -19.539062 20.207031 -18.648438 21.21875 -17.484375 L 18.140625 -14.65625 C 16.660156 -16.207031 14.875 -16.984375 12.78125 -16.984375 C 11.457031 -16.984375 10.28125 -16.707031 9.25 -16.15625 C 8.226562 -15.601562 7.429688 -14.820312 6.859375 -13.8125 C 6.285156 -12.8125 6 -11.660156 6 -10.359375 C 6 -9.078125 6.285156 -7.929688 6.859375 -6.921875 C 7.429688 -5.921875 8.222656 -5.140625 9.234375 -4.578125 C 10.253906 -4.015625 11.414062 -3.734375 12.71875 -3.734375 C 14.101562 -3.734375 15.347656 -4.023438 16.453125 -4.609375 Z M 16.453125 -10.6875 "/></g></g><g clip-rule="nonzero" clip-path="url(#1b8182049c)"><g clip-rule="nonzero" clip-path="url(#8c3fcec514)"><path style=" stroke:none;fill-rule:nonzero;fill:#107faa;fill-opacity:1;" d="M 219.464844 33.09375 L 245.996094 33.09375 L 245.996094 59.625 L 219.464844 59.625 Z M 219.464844 33.09375 "/></g></g><g clip-rule="nonzero" clip-path="url(#72a22fbd30)"><g clip-rule="nonzero" clip-path="url(#6cf225d388)"><path style=" stroke:none;fill-rule:nonzero;fill:#ffae4b;fill-opacity:1;" d="M 92.636719 59.625 L 119.167969 59.625 L 119.167969 86.160156 L 92.636719 86.160156 Z M 92.636719 59.625 "/></g></g></g></svg>