<svg xmlns="http://www.w3.org/2000/svg" xmlns:xlink="http://www.w3.org/1999/xlink" width="400" zoomAndPan="magnify" viewBox="0 0 300 187.499995" height="250" preserveAspectRatio="xMidYMid meet" version="1.0"><defs><g/><clipPath id="fcef568944"><path d="M 0.398438 0 L 299.601562 0 L 299.601562 187 L 0.398438 187 Z M 0.398438 0 " clip-rule="nonzero"/></clipPath><clipPath id="f1b4a34350"><path d="M 60 39 L 122 39 L 122 90 L 60 90 Z M 60 39 " clip-rule="nonzero"/></clipPath><clipPath id="8ccd199bbf"><path d="M 3.082031 57.902344 L 112.648438 33.722656 L 133.765625 129.40625 L 24.199219 153.589844 Z M 3.082031 57.902344 " clip-rule="nonzero"/></clipPath><clipPath id="d388435aa9"><path d="M 3.082031 57.902344 L 112.648438 33.722656 L 133.765625 129.40625 L 24.199219 153.589844 Z M 3.082031 57.902344 " clip-rule="nonzero"/></clipPath><clipPath id="a2c2fa6265"><path d="M 22 64 L 44 64 L 44 109 L 22 109 Z M 22 64 " clip-rule="nonzero"/></clipPath><clipPath id="be235840a7"><path d="M 3.082031 57.902344 L 112.648438 33.722656 L 133.765625 129.40625 L 24.199219 153.589844 Z M 3.082031 57.902344 " clip-rule="nonzero"/></clipPath><clipPath id="ebc8284fe0"><path d="M 3.082031 57.902344 L 112.648438 33.722656 L 133.765625 129.40625 L 24.199219 153.589844 Z M 3.082031 57.902344 " clip-rule="nonzero"/></clipPath><clipPath id="62927044d7"><path d="M 10 52 L 85 52 L 85 149 L 10 149 Z M 10 52 " clip-rule="nonzero"/></clipPath><clipPath id="fbcb7a186e"><path d="M 3.082031 57.902344 L 112.648438 33.722656 L 133.765625 129.40625 L 24.199219 153.589844 Z M 3.082031 57.902344 " clip-rule="nonzero"/></clipPath><clipPath id="0db30da7b2"><path d="M 3.082031 57.902344 L 112.648438 33.722656 L 133.765625 129.40625 L 24.199219 153.589844 Z M 3.082031 57.902344 " clip-rule="nonzero"/></clipPath><clipPath id="758e6101ff"><path d="M 72.207031 71.398438 L 177.980469 71.398438 L 177.980469 118.460938 L 72.207031 118.460938 Z M 72.207031 71.398438 " clip-rule="nonzero"/></clipPath><clipPath id="aa9ba31778"><path d="M 0.207031 0.398438 L 105.980469 0.398438 L 105.980469 47.460938 L 0.207031 47.460938 Z M 0.207031 0.398438 " clip-rule="nonzero"/></clipPath><clipPath id="e57162f3c3"><rect x="0" width="106" y="0" height="48"/></clipPath><clipPath id="c51409ed0e"><rect x="0" width="159" y="0" height="35"/></clipPath><clipPath id="780614bb86"><rect x="0" width="230" y="0" height="26"/></clipPath><clipPath id="ef8f5f1091"><path d="M 83.664062 22.042969 L 95.414062 22.042969 L 95.414062 33.792969 L 83.664062 33.792969 Z M 83.664062 22.042969 " clip-rule="nonzero"/></clipPath><clipPath id="64d2097c30"><path d="M 89.539062 22.042969 C 86.292969 22.042969 83.664062 24.675781 83.664062 27.917969 C 83.664062 31.164062 86.292969 33.792969 89.539062 33.792969 C 92.785156 33.792969 95.414062 31.164062 95.414062 27.917969 C 95.414062 24.675781 92.785156 22.042969 89.539062 22.042969 Z M 89.539062 22.042969 " clip-rule="nonzero"/></clipPath><clipPath id="0ae74a40d1"><path d="M 0.664062 0.0429688 L 12.414062 0.0429688 L 12.414062 11.792969 L 0.664062 11.792969 Z M 0.664062 0.0429688 " clip-rule="nonzero"/></clipPath><clipPath id="c0db803e0b"><path d="M 6.539062 0.0429688 C 3.292969 0.0429688 0.664062 2.675781 0.664062 5.917969 C 0.664062 9.164062 3.292969 11.792969 6.539062 11.792969 C 9.785156 11.792969 12.414062 9.164062 12.414062 5.917969 C 12.414062 2.675781 9.785156 0.0429688 6.539062 0.0429688 Z M 6.539062 0.0429688 " clip-rule="nonzero"/></clipPath><clipPath id="242c8f4bff"><rect x="0" width="13" y="0" height="12"/></clipPath><clipPath id="7650174c20"><path d="M 27.5 33.792969 L 39.25 33.792969 L 39.25 45.542969 L 27.5 45.542969 Z M 27.5 33.792969 " clip-rule="nonzero"/></clipPath><clipPath id="6aada33aa1"><path d="M 33.375 33.792969 C 30.128906 33.792969 27.5 36.425781 27.5 39.667969 C 27.5 42.914062 30.128906 45.542969 33.375 45.542969 C 36.621094 45.542969 39.25 42.914062 39.25 39.667969 C 39.25 36.425781 36.621094 33.792969 33.375 33.792969 Z M 33.375 33.792969 " clip-rule="nonzero"/></clipPath><clipPath id="527d828079"><path d="M 0.5 0.792969 L 12.25 0.792969 L 12.25 12.542969 L 0.5 12.542969 Z M 0.5 0.792969 " clip-rule="nonzero"/></clipPath><clipPath id="7f70305d25"><path d="M 6.375 0.792969 C 3.128906 0.792969 0.5 3.425781 0.5 6.667969 C 0.5 9.914062 3.128906 12.542969 6.375 12.542969 C 9.621094 12.542969 12.25 9.914062 12.25 6.667969 C 12.25 3.425781 9.621094 0.792969 6.375 0.792969 Z M 6.375 0.792969 " clip-rule="nonzero"/></clipPath><clipPath id="4b5734daa7"><rect x="0" width="13" y="0" height="13"/></clipPath></defs><g clip-path="url(#fcef568944)"><path fill="#ffffff" d="M 0.398438 0 L 299.601562 0 L 299.601562 187 L 0.398438 187 Z M 0.398438 0 " fill-opacity="1" fill-rule="nonzero"/><path fill="#ffffff" d="M 0.398438 0 L 299.601562 0 L 299.601562 187 L 0.398438 187 Z M 0.398438 0 " fill-opacity="1" fill-rule="nonzero"/></g><g clip-path="url(#f1b4a34350)"><g clip-path="url(#8ccd199bbf)"><g clip-path="url(#d388435aa9)"><path fill="#107faa" d="M 60.925781 63.074219 C 62.371094 62.839844 63.726562 62.390625 65.035156 61.878906 C 66.328125 61.347656 67.527344 60.671875 68.636719 59.933594 C 70.828125 58.382812 72.582031 56.4375 73.808594 54.210938 C 74.414062 53.085938 74.925781 51.921875 75.332031 50.703125 C 75.433594 50.394531 75.539062 50.101562 75.621094 49.785156 L 75.746094 49.320312 L 75.816406 49.089844 L 75.851562 48.980469 L 75.953125 48.714844 L 76.28125 47.988281 L 76.546875 47.429688 C 76.738281 47.0625 76.929688 46.695312 77.144531 46.328125 C 77.589844 45.585938 78.003906 44.863281 78.90625 43.972656 C 79.097656 43.769531 79.425781 43.484375 79.519531 43.410156 L 79.972656 43.03125 C 80.34375 42.738281 80.695312 42.496094 81.039062 42.253906 C 82.472656 41.292969 84.054688 40.492188 85.765625 39.980469 C 89.183594 38.917969 92.980469 39.078125 96.253906 40.15625 C 99.558594 41.210938 102.390625 42.988281 104.859375 44.984375 C 107.328125 47.003906 109.449219 49.269531 111.355469 51.644531 C 112.328125 52.8125 113.199219 54.054688 114.0625 55.285156 C 114.921875 56.515625 115.703125 57.792969 116.480469 59.0625 L 116.617188 59.28125 L 116.625 59.300781 C 116.84375 59.734375 117.214844 60.476562 117.488281 61.0625 C 117.773438 61.683594 118.023438 62.316406 118.265625 62.945312 C 118.75 64.210938 119.183594 65.484375 119.527344 66.769531 C 119.871094 68.0625 120.175781 69.355469 120.40625 70.664062 C 120.609375 71.96875 120.796875 73.273438 120.902344 74.585938 C 120.980469 75.234375 121.007812 75.890625 121.035156 76.546875 C 121.070312 77.195312 121.113281 77.847656 121.078125 78.503906 C 121.054688 79.8125 121.023438 81.109375 120.898438 82.402344 C 120.816406 83.691406 120.570312 84.964844 120.375 86.234375 C 120.300781 86.871094 120.121094 87.496094 119.972656 88.121094 L 119.503906 89.984375 C 119.328125 88.703125 119.238281 87.445312 119.0625 86.195312 L 118.800781 84.339844 C 118.738281 83.722656 118.574219 83.105469 118.484375 82.5 C 118.304688 81.277344 118.027344 80.066406 117.757812 78.875 C 117.636719 78.273438 117.433594 77.691406 117.3125 77.097656 C 117.164062 76.507812 117.023438 75.917969 116.832031 75.335938 C 116.503906 74.167969 116.109375 73.03125 115.703125 71.902344 C 115.265625 70.78125 114.859375 69.667969 114.367188 68.578125 C 113.878906 67.5 113.394531 66.433594 112.832031 65.40625 C 112.566406 64.894531 112.265625 64.390625 111.980469 63.898438 C 111.675781 63.367188 111.441406 63.007812 111.027344 62.355469 L 111.175781 62.585938 C 109.5 60.363281 107.800781 58.1875 105.988281 56.164062 C 105.101562 55.144531 104.171875 54.171875 103.214844 53.25 C 102.277344 52.308594 101.296875 51.449219 100.296875 50.632812 C 98.289062 49.035156 96.167969 47.703125 94 46.933594 C 91.832031 46.148438 89.640625 45.941406 87.492188 46.398438 C 86.417969 46.628906 85.347656 47.011719 84.328125 47.5625 L 83.597656 47.980469 C 83.5 48.027344 83.332031 48.148438 83.183594 48.242188 C 82.976562 48.375 83.050781 48.339844 82.988281 48.390625 C 82.832031 48.472656 82.421875 48.960938 82.109375 49.429688 C 81.9375 49.671875 81.78125 49.933594 81.613281 50.191406 L 81.234375 50.828125 L 81.203125 50.890625 L 81.1875 50.925781 L 81.179688 50.933594 C 81.203125 50.882812 81.121094 51.082031 81.222656 50.820312 L 81.164062 50.957031 L 81.039062 51.230469 L 80.796875 51.78125 C 80.636719 52.144531 80.449219 52.496094 80.265625 52.855469 C 79.527344 54.277344 78.65625 55.652344 77.59375 56.882812 C 75.523438 59.363281 72.820312 61.328125 69.867188 62.371094 C 68.40625 62.921875 66.882812 63.222656 65.375 63.351562 C 63.871094 63.484375 62.355469 63.414062 60.925781 63.074219 Z M 60.925781 63.074219 " fill-opacity="1" fill-rule="nonzero"/></g></g></g><g clip-path="url(#a2c2fa6265)"><g clip-path="url(#be235840a7)"><g clip-path="url(#ebc8284fe0)"><path fill="#d9f8ff" d="M 42.546875 68.808594 C 42.300781 68.621094 39.515625 66.484375 39.515625 66.484375 L 39.511719 66.492188 L 38.84375 65.980469 L 38.363281 65.648438 L 38.019531 65.429688 C 37.847656 65.324219 37.683594 65.203125 37.507812 65.117188 L 37.265625 64.984375 C 36.777344 64.707031 36.191406 64.464844 35.527344 64.265625 C 34.773438 64.042969 34.0625 64 33.441406 64.136719 C 33.328125 64.160156 33.222656 64.191406 33.117188 64.226562 L 32.804688 64.332031 C 32.585938 64.441406 32.441406 64.507812 32.296875 64.574219 C 32.207031 64.609375 32.148438 64.640625 32.09375 64.664062 L 30.914062 65.472656 L 29.671875 66.609375 L 28.28125 68.261719 C 28.058594 68.523438 27.761719 68.988281 27.441406 69.476562 C 27.167969 69.90625 26.886719 70.339844 26.601562 70.746094 C 25.683594 72.097656 25.046875 73.824219 24.511719 75.480469 C 23.90625 77.222656 23.546875 79.054688 23.207031 81.285156 C 23.109375 82.292969 23.015625 83.300781 22.949219 84.316406 L 22.949219 87.492188 L 23.203125 90.679688 L 23.71875 94.269531 C 23.761719 94.679688 23.902344 95.246094 24.054688 95.84375 C 24.175781 96.34375 24.292969 96.847656 24.394531 97.347656 L 24.722656 98.777344 L 25.214844 100.328125 L 26.257812 103.59375 C 26.714844 104.710938 27.164062 105.835938 27.601562 106.972656 L 28.175781 108.480469 L 28.390625 108.917969 C 36.128906 108.898438 32.976562 88.835938 33.207031 87.503906 C 35.375 75.148438 47.78125 72.761719 42.546875 68.808594 Z M 42.546875 68.808594 " fill-opacity="1" fill-rule="nonzero"/></g></g></g><g clip-path="url(#62927044d7)"><g clip-path="url(#fbcb7a186e)"><g clip-path="url(#0db30da7b2)"><path fill="#ffae4b" d="M 84.324219 58.097656 C 83.828125 58.917969 83.261719 59.691406 82.664062 60.445312 C 82.054688 61.195312 81.433594 61.929688 80.753906 62.617188 C 80.097656 63.34375 79.34375 63.957031 78.625 64.621094 C 77.890625 65.273438 77.078125 65.816406 76.296875 66.421875 C 75.488281 66.992188 74.605469 67.460938 73.75 67.976562 C 72.867188 68.433594 71.929688 68.804688 71.003906 69.222656 C 70.074219 69.597656 69.074219 69.820312 68.09375 70.121094 C 67.117188 70.449219 66.070312 70.464844 65.046875 70.621094 C 64.019531 70.804688 62.988281 70.71875 61.949219 70.683594 C 60.902344 70.652344 59.855469 70.617188 58.855469 70.347656 C 57.847656 70.132812 56.804688 69.960938 55.800781 69.683594 L 52.90625 68.582031 C 51.910156 68.242188 51.03125 67.738281 50.15625 67.214844 L 47.496094 65.671875 C 46.644531 65.117188 45.878906 64.46875 45.070312 63.863281 L 42.664062 62.011719 L 42.835938 62.160156 L 42.0625 61.5625 L 41.386719 61.097656 C 40.914062 60.808594 40.460938 60.496094 39.984375 60.253906 C 39.042969 59.710938 38.0625 59.324219 37.082031 59.027344 C 35.125 58.457031 33.183594 58.449219 31.386719 59.042969 C 30.925781 59.121094 30.5 59.394531 30.058594 59.589844 C 29.617188 59.78125 29.179688 59.984375 28.773438 60.320312 L 27.507812 61.179688 L 26.324219 62.269531 L 25.730469 62.804688 L 25.1875 63.453125 L 24.105469 64.746094 C 23.382812 65.609375 22.804688 66.65625 22.132812 67.605469 C 20.851562 69.496094 20.046875 71.5625 19.316406 73.777344 C 18.558594 75.960938 18.144531 78.285156 17.777344 80.605469 C 17.671875 81.777344 17.566406 82.957031 17.488281 84.136719 L 17.488281 87.707031 L 17.773438 91.289062 L 18.292969 94.871094 C 18.425781 96.066406 18.804688 97.238281 19.042969 98.425781 L 19.449219 100.210938 L 19.996094 101.960938 L 21.121094 105.464844 C 21.589844 106.605469 22.050781 107.75 22.492188 108.90625 L 23.160156 110.644531 L 23.960938 112.328125 L 25.566406 115.703125 C 26.011719 116.71875 26.792969 117.910156 27.378906 119 L 29.261719 122.375 C 31.847656 126.746094 34.34375 131.199219 37.015625 135.585938 C 38.371094 137.757812 39.601562 140.046875 40.976562 142.199219 C 42.386719 144.320312 43.765625 146.488281 45.148438 148.707031 C 43.34375 146.882812 41.539062 145.023438 39.757812 143.117188 C 37.988281 141.199219 36.398438 139.175781 34.757812 137.175781 C 33.132812 135.160156 31.453125 133.179688 29.925781 131.074219 L 25.265625 124.808594 C 23.757812 122.667969 22.328125 120.683594 20.875 118.34375 L 18.886719 114.902344 L 17.886719 113.171875 L 17.015625 111.378906 C 16.425781 110.175781 15.863281 108.964844 15.304688 107.75 C 14.804688 106.503906 14.359375 105.234375 13.886719 103.972656 L 13.191406 102.074219 L 12.636719 100.121094 C 12.296875 98.808594 11.835938 97.53125 11.609375 96.183594 C 11.355469 94.847656 11.0625 93.507812 10.847656 92.160156 L 10.457031 88.054688 C 10.402344 86.675781 10.410156 85.296875 10.386719 83.914062 C 10.449219 82.527344 10.546875 81.136719 10.664062 79.757812 C 11.042969 77 11.488281 74.222656 12.40625 71.53125 C 13.300781 68.886719 14.460938 66.140625 16.09375 63.785156 C 16.917969 62.632812 17.617188 61.4375 18.550781 60.339844 L 19.976562 58.695312 L 20.695312 57.886719 L 21.53125 57.136719 C 23.613281 55.050781 26.464844 53.402344 29.5625 52.542969 C 32.703125 51.671875 36.132812 51.917969 39.046875 52.957031 C 40.507812 53.464844 41.890625 54.125 43.144531 54.921875 C 43.792969 55.292969 44.382812 55.738281 44.972656 56.1875 L 45.824219 56.886719 C 46.105469 57.136719 46.386719 57.386719 46.523438 57.527344 L 46.699219 57.679688 L 48.675781 59.457031 C 49.347656 60.039062 49.980469 60.683594 50.675781 61.226562 L 52.832031 62.710938 C 53.550781 63.222656 54.269531 63.730469 55.0625 64.0625 L 57.378906 65.25 C 58.171875 65.5625 59.003906 65.785156 59.816406 66.070312 C 60.628906 66.398438 61.472656 66.503906 62.324219 66.621094 C 63.171875 66.757812 64.03125 66.941406 64.894531 66.863281 C 65.753906 66.8125 66.644531 66.957031 67.507812 66.789062 C 68.363281 66.644531 69.257812 66.589844 70.117188 66.375 C 70.972656 66.117188 71.847656 65.917969 72.695312 65.617188 C 73.53125 65.265625 74.378906 64.949219 75.214844 64.566406 C 76.015625 64.132812 76.875 63.761719 77.652344 63.273438 C 78.429688 62.769531 79.25 62.316406 79.980469 61.738281 C 81.535156 60.675781 82.96875 59.441406 84.324219 58.097656 Z M 84.324219 58.097656 " fill-opacity="1" fill-rule="nonzero"/></g></g></g><g clip-path="url(#758e6101ff)"><g transform="matrix(1, 0, 0, 1, 72, 71)"><g clip-path="url(#e57162f3c3)"><g clip-path="url(#aa9ba31778)"><path fill="#ffffff" d="M 0.207031 0.398438 L 105.914062 0.398438 L 105.914062 47.460938 L 0.207031 47.460938 Z M 0.207031 0.398438 " fill-opacity="1" fill-rule="nonzero"/></g></g></g></g><g transform="matrix(1, 0, 0, 1, 57, 70)"><g clip-path="url(#c51409ed0e)"><g fill="#107faa" fill-opacity="1"><g transform="translate(0.398629, 26.53456)"><g><path d="M 8.5625 0.328125 C 7.050781 0.328125 5.585938 0.125 4.171875 -0.28125 C 2.753906 -0.695312 1.617188 -1.234375 0.765625 -1.890625 L 2.265625 -5.21875 C 3.085938 -4.625 4.0625 -4.144531 5.1875 -3.78125 C 6.320312 -3.414062 7.457031 -3.234375 8.59375 -3.234375 C 9.851562 -3.234375 10.78125 -3.414062 11.375 -3.78125 C 11.976562 -4.15625 12.28125 -4.65625 12.28125 -5.28125 C 12.28125 -5.738281 12.101562 -6.117188 11.75 -6.421875 C 11.394531 -6.722656 10.9375 -6.960938 10.375 -7.140625 C 9.820312 -7.328125 9.070312 -7.53125 8.125 -7.75 C 6.664062 -8.09375 5.46875 -8.4375 4.53125 -8.78125 C 3.601562 -9.125 2.804688 -9.675781 2.140625 -10.4375 C 1.484375 -11.207031 1.15625 -12.234375 1.15625 -13.515625 C 1.15625 -14.628906 1.453125 -15.632812 2.046875 -16.53125 C 2.648438 -17.4375 3.554688 -18.15625 4.765625 -18.6875 C 5.984375 -19.21875 7.46875 -19.484375 9.21875 -19.484375 C 10.4375 -19.484375 11.628906 -19.335938 12.796875 -19.046875 C 13.972656 -18.753906 15 -18.332031 15.875 -17.78125 L 14.5 -14.421875 C 12.726562 -15.421875 10.957031 -15.921875 9.1875 -15.921875 C 7.945312 -15.921875 7.03125 -15.71875 6.4375 -15.3125 C 5.84375 -14.914062 5.546875 -14.390625 5.546875 -13.734375 C 5.546875 -13.078125 5.890625 -12.585938 6.578125 -12.265625 C 7.265625 -11.953125 8.3125 -11.640625 9.71875 -11.328125 C 11.175781 -10.984375 12.367188 -10.632812 13.296875 -10.28125 C 14.222656 -9.9375 15.019531 -9.390625 15.6875 -8.640625 C 16.351562 -7.898438 16.6875 -6.890625 16.6875 -5.609375 C 16.6875 -4.515625 16.378906 -3.515625 15.765625 -2.609375 C 15.160156 -1.710938 14.242188 -1 13.015625 -0.46875 C 11.796875 0.0625 10.3125 0.328125 8.5625 0.328125 Z M 8.5625 0.328125 "/></g></g></g><g fill="#107faa" fill-opacity="1"><g transform="translate(17.848276, 26.53456)"><g><path d="M 19.703125 0 L 19.671875 -11.484375 L 14.03125 -2.03125 L 12.03125 -2.03125 L 6.421875 -11.25 L 6.421875 0 L 2.265625 0 L 2.265625 -19.15625 L 5.9375 -19.15625 L 13.109375 -7.25 L 20.15625 -19.15625 L 23.796875 -19.15625 L 23.859375 0 Z M 19.703125 0 "/></g></g></g><g fill="#107faa" fill-opacity="1"><g transform="translate(43.968055, 26.53456)"><g><path d="M 11.46875 -6.78125 L 11.46875 0 L 7.03125 0 L 7.03125 -6.84375 L -0.390625 -19.15625 L 4.328125 -19.15625 L 9.4375 -10.640625 L 14.5625 -19.15625 L 18.90625 -19.15625 Z M 11.46875 -6.78125 "/></g></g></g><g fill="#107faa" fill-opacity="1"><g transform="translate(62.45704, 26.53456)"><g><path d="M 2.265625 -19.15625 L 6.703125 -19.15625 L 6.703125 -3.609375 L 16.3125 -3.609375 L 16.3125 0 L 2.265625 0 Z M 2.265625 -19.15625 "/></g></g></g><g fill="#107faa" fill-opacity="1"><g transform="translate(78.976768, 26.53456)"><g><path d="M 8.5625 0.328125 C 7.050781 0.328125 5.585938 0.125 4.171875 -0.28125 C 2.753906 -0.695312 1.617188 -1.234375 0.765625 -1.890625 L 2.265625 -5.21875 C 3.085938 -4.625 4.0625 -4.144531 5.1875 -3.78125 C 6.320312 -3.414062 7.457031 -3.234375 8.59375 -3.234375 C 9.851562 -3.234375 10.78125 -3.414062 11.375 -3.78125 C 11.976562 -4.15625 12.28125 -4.65625 12.28125 -5.28125 C 12.28125 -5.738281 12.101562 -6.117188 11.75 -6.421875 C 11.394531 -6.722656 10.9375 -6.960938 10.375 -7.140625 C 9.820312 -7.328125 9.070312 -7.53125 8.125 -7.75 C 6.664062 -8.09375 5.46875 -8.4375 4.53125 -8.78125 C 3.601562 -9.125 2.804688 -9.675781 2.140625 -10.4375 C 1.484375 -11.207031 1.15625 -12.234375 1.15625 -13.515625 C 1.15625 -14.628906 1.453125 -15.632812 2.046875 -16.53125 C 2.648438 -17.4375 3.554688 -18.15625 4.765625 -18.6875 C 5.984375 -19.21875 7.46875 -19.484375 9.21875 -19.484375 C 10.4375 -19.484375 11.628906 -19.335938 12.796875 -19.046875 C 13.972656 -18.753906 15 -18.332031 15.875 -17.78125 L 14.5 -14.421875 C 12.726562 -15.421875 10.957031 -15.921875 9.1875 -15.921875 C 7.945312 -15.921875 7.03125 -15.71875 6.4375 -15.3125 C 5.84375 -14.914062 5.546875 -14.390625 5.546875 -13.734375 C 5.546875 -13.078125 5.890625 -12.585938 6.578125 -12.265625 C 7.265625 -11.953125 8.3125 -11.640625 9.71875 -11.328125 C 11.175781 -10.984375 12.367188 -10.632812 13.296875 -10.28125 C 14.222656 -9.9375 15.019531 -9.390625 15.6875 -8.640625 C 16.351562 -7.898438 16.6875 -6.890625 16.6875 -5.609375 C 16.6875 -4.515625 16.378906 -3.515625 15.765625 -2.609375 C 15.160156 -1.710938 14.242188 -1 13.015625 -0.46875 C 11.796875 0.0625 10.3125 0.328125 8.5625 0.328125 Z M 8.5625 0.328125 "/></g></g></g><g fill="#107faa" fill-opacity="1"><g transform="translate(96.426415, 26.53456)"><g><path d="M 11.46875 -6.78125 L 11.46875 0 L 7.03125 0 L 7.03125 -6.84375 L -0.390625 -19.15625 L 4.328125 -19.15625 L 9.4375 -10.640625 L 14.5625 -19.15625 L 18.90625 -19.15625 Z M 11.46875 -6.78125 "/></g></g></g><g fill="#107faa" fill-opacity="1"><g transform="translate(114.9154, 26.53456)"><g><path d="M 19.828125 -19.15625 L 19.828125 0 L 16.203125 0 L 6.640625 -11.625 L 6.640625 0 L 2.265625 0 L 2.265625 -19.15625 L 5.9375 -19.15625 L 15.453125 -7.53125 L 15.453125 -19.15625 Z M 19.828125 -19.15625 "/></g></g></g><g fill="#107faa" fill-opacity="1"><g transform="translate(137.014658, 26.53456)"><g><path d="M 11.4375 0.328125 C 9.488281 0.328125 7.722656 -0.09375 6.140625 -0.9375 C 4.566406 -1.789062 3.328125 -2.96875 2.421875 -4.46875 C 1.515625 -5.976562 1.0625 -7.679688 1.0625 -9.578125 C 1.0625 -11.472656 1.515625 -13.171875 2.421875 -14.671875 C 3.328125 -16.179688 4.566406 -17.359375 6.140625 -18.203125 C 7.722656 -19.054688 9.5 -19.484375 11.46875 -19.484375 C 13.125 -19.484375 14.617188 -19.191406 15.953125 -18.609375 C 17.296875 -18.023438 18.425781 -17.1875 19.34375 -16.09375 L 16.5 -13.453125 C 15.207031 -14.953125 13.601562 -15.703125 11.6875 -15.703125 C 10.5 -15.703125 9.4375 -15.441406 8.5 -14.921875 C 7.570312 -14.398438 6.847656 -13.675781 6.328125 -12.75 C 5.804688 -11.820312 5.546875 -10.765625 5.546875 -9.578125 C 5.546875 -8.390625 5.804688 -7.328125 6.328125 -6.390625 C 6.847656 -5.460938 7.570312 -4.738281 8.5 -4.21875 C 9.4375 -3.707031 10.5 -3.453125 11.6875 -3.453125 C 13.601562 -3.453125 15.207031 -4.207031 16.5 -5.71875 L 19.34375 -3.09375 C 18.425781 -1.976562 17.289062 -1.128906 15.9375 -0.546875 C 14.59375 0.0351562 13.09375 0.328125 11.4375 0.328125 Z M 11.4375 0.328125 "/></g></g></g></g></g><g transform="matrix(1, 0, 0, 1, 57, 103)"><g clip-path="url(#780614bb86)"><g fill="#022033" fill-opacity="1"><g transform="translate(0.398629, 18.979223)"><g><path d="M 1.6875 -14.265625 L 8.171875 -14.265625 C 9.722656 -14.265625 11.09375 -13.96875 12.28125 -13.375 C 13.46875 -12.789062 14.390625 -11.960938 15.046875 -10.890625 C 15.710938 -9.816406 16.046875 -8.566406 16.046875 -7.140625 C 16.046875 -5.710938 15.710938 -4.460938 15.046875 -3.390625 C 14.390625 -2.316406 13.46875 -1.484375 12.28125 -0.890625 C 11.09375 -0.296875 9.722656 0 8.171875 0 L 1.6875 0 Z M 8.015625 -2.71875 C 9.441406 -2.71875 10.578125 -3.113281 11.421875 -3.90625 C 12.273438 -4.695312 12.703125 -5.773438 12.703125 -7.140625 C 12.703125 -8.492188 12.273438 -9.566406 11.421875 -10.359375 C 10.578125 -11.160156 9.441406 -11.5625 8.015625 -11.5625 L 5 -11.5625 L 5 -2.71875 Z M 8.015625 -2.71875 "/></g></g></g><g fill="#022033" fill-opacity="1"><g transform="translate(19.202345, 18.979223)"><g><path d="M 12.75 -2.65625 L 12.75 0 L 1.6875 0 L 1.6875 -14.265625 L 12.484375 -14.265625 L 12.484375 -11.625 L 4.96875 -11.625 L 4.96875 -8.515625 L 11.609375 -8.515625 L 11.609375 -5.953125 L 4.96875 -5.953125 L 4.96875 -2.65625 Z M 12.75 -2.65625 "/></g></g></g><g fill="#022033" fill-opacity="1"><g transform="translate(34.84497, 18.979223)"><g><path d="M 14.78125 -14.265625 L 14.78125 0 L 12.078125 0 L 4.953125 -8.671875 L 4.953125 0 L 1.6875 0 L 1.6875 -14.265625 L 4.421875 -14.265625 L 11.515625 -5.609375 L 11.515625 -14.265625 Z M 14.78125 -14.265625 "/></g></g></g><g fill="#022033" fill-opacity="1"><g transform="translate(53.281589, 18.979223)"><g><path d="M 4.65625 -11.578125 L 0.078125 -11.578125 L 0.078125 -14.265625 L 12.515625 -14.265625 L 12.515625 -11.578125 L 7.953125 -11.578125 L 7.953125 0 L 4.65625 0 Z M 4.65625 -11.578125 "/></g></g></g><g fill="#022033" fill-opacity="1"><g transform="translate(67.843321, 18.979223)"><g><path d="M 11.09375 -3.0625 L 4.46875 -3.0625 L 3.203125 0 L -0.1875 0 L 6.171875 -14.265625 L 9.4375 -14.265625 L 15.828125 0 L 12.359375 0 Z M 10.046875 -5.5625 L 7.796875 -11.03125 L 5.53125 -5.5625 Z M 10.046875 -5.5625 "/></g></g></g><g fill="#022033" fill-opacity="1"><g transform="translate(85.423382, 18.979223)"><g><path d="M 1.6875 -14.265625 L 5 -14.265625 L 5 -2.6875 L 12.15625 -2.6875 L 12.15625 0 L 1.6875 0 Z M 1.6875 -14.265625 "/></g></g></g><g fill="#022033" fill-opacity="1"><g transform="translate(99.699589, 18.979223)"><g/></g></g><g fill="#022033" fill-opacity="1"><g transform="translate(107.429267, 18.979223)"><g><path d="M 6.375 0.25 C 5.25 0.25 4.160156 0.0976562 3.109375 -0.203125 C 2.054688 -0.515625 1.210938 -0.914062 0.578125 -1.40625 L 1.6875 -3.890625 C 2.300781 -3.441406 3.03125 -3.082031 3.875 -2.8125 C 4.71875 -2.539062 5.5625 -2.40625 6.40625 -2.40625 C 7.34375 -2.40625 8.035156 -2.539062 8.484375 -2.8125 C 8.929688 -3.09375 9.15625 -3.46875 9.15625 -3.9375 C 9.15625 -4.269531 9.019531 -4.550781 8.75 -4.78125 C 8.488281 -5.007812 8.148438 -5.191406 7.734375 -5.328125 C 7.316406 -5.460938 6.757812 -5.609375 6.0625 -5.765625 C 4.96875 -6.023438 4.070312 -6.285156 3.375 -6.546875 C 2.6875 -6.804688 2.09375 -7.21875 1.59375 -7.78125 C 1.101562 -8.351562 0.859375 -9.117188 0.859375 -10.078125 C 0.859375 -10.898438 1.082031 -11.644531 1.53125 -12.3125 C 1.976562 -12.988281 2.65625 -13.523438 3.5625 -13.921875 C 4.46875 -14.316406 5.570312 -14.515625 6.875 -14.515625 C 7.78125 -14.515625 8.664062 -14.40625 9.53125 -14.1875 C 10.40625 -13.96875 11.171875 -13.65625 11.828125 -13.25 L 10.8125 -10.75 C 9.488281 -11.5 8.164062 -11.875 6.84375 -11.875 C 5.925781 -11.875 5.242188 -11.722656 4.796875 -11.421875 C 4.359375 -11.117188 4.140625 -10.722656 4.140625 -10.234375 C 4.140625 -9.742188 4.394531 -9.378906 4.90625 -9.140625 C 5.414062 -8.898438 6.191406 -8.664062 7.234375 -8.4375 C 8.328125 -8.175781 9.21875 -7.914062 9.90625 -7.65625 C 10.601562 -7.40625 11.195312 -7 11.6875 -6.4375 C 12.1875 -5.882812 12.4375 -5.132812 12.4375 -4.1875 C 12.4375 -3.363281 12.207031 -2.613281 11.75 -1.9375 C 11.300781 -1.269531 10.617188 -0.738281 9.703125 -0.34375 C 8.796875 0.0507812 7.6875 0.25 6.375 0.25 Z M 6.375 0.25 "/></g></g></g><g fill="#022033" fill-opacity="1"><g transform="translate(122.398874, 18.979223)"><g><path d="M 4.65625 -11.578125 L 0.078125 -11.578125 L 0.078125 -14.265625 L 12.515625 -14.265625 L 12.515625 -11.578125 L 7.953125 -11.578125 L 7.953125 0 L 4.65625 0 Z M 4.65625 -11.578125 "/></g></g></g><g fill="#022033" fill-opacity="1"><g transform="translate(136.960606, 18.979223)"><g><path d="M 11.09375 -3.0625 L 4.46875 -3.0625 L 3.203125 0 L -0.1875 0 L 6.171875 -14.265625 L 9.4375 -14.265625 L 15.828125 0 L 12.359375 0 Z M 10.046875 -5.5625 L 7.796875 -11.03125 L 5.53125 -5.5625 Z M 10.046875 -5.5625 "/></g></g></g><g fill="#022033" fill-opacity="1"><g transform="translate(154.540666, 18.979223)"><g><path d="M 5 -11.625 L 5 -7.84375 L 11.609375 -7.84375 L 11.609375 -5.203125 L 5 -5.203125 L 5 0 L 1.6875 0 L 1.6875 -14.265625 L 12.484375 -14.265625 L 12.484375 -11.625 Z M 5 -11.625 "/></g></g></g><g fill="#022033" fill-opacity="1"><g transform="translate(169.53067, 18.979223)"><g><path d="M 5 -11.625 L 5 -7.84375 L 11.609375 -7.84375 L 11.609375 -5.203125 L 5 -5.203125 L 5 0 L 1.6875 0 L 1.6875 -14.265625 L 12.484375 -14.265625 L 12.484375 -11.625 Z M 5 -11.625 "/></g></g></g><g fill="#022033" fill-opacity="1"><g transform="translate(184.520674, 18.979223)"><g><path d="M 1.6875 -14.265625 L 5 -14.265625 L 5 0 L 1.6875 0 Z M 1.6875 -14.265625 "/></g></g></g><g fill="#022033" fill-opacity="1"><g transform="translate(193.1681, 18.979223)"><g><path d="M 14.78125 -14.265625 L 14.78125 0 L 12.078125 0 L 4.953125 -8.671875 L 4.953125 0 L 1.6875 0 L 1.6875 -14.265625 L 4.421875 -14.265625 L 11.515625 -5.609375 L 11.515625 -14.265625 Z M 14.78125 -14.265625 "/></g></g></g><g fill="#022033" fill-opacity="1"><g transform="translate(211.604719, 18.979223)"><g><path d="M 11.34375 -7.359375 L 14.359375 -7.359375 L 14.359375 -1.5625 C 13.578125 -0.976562 12.675781 -0.53125 11.65625 -0.21875 C 10.644531 0.09375 9.617188 0.25 8.578125 0.25 C 7.097656 0.25 5.765625 -0.0664062 4.578125 -0.703125 C 3.398438 -1.335938 2.472656 -2.210938 1.796875 -3.328125 C 1.128906 -4.453125 0.796875 -5.722656 0.796875 -7.140625 C 0.796875 -8.546875 1.128906 -9.8125 1.796875 -10.9375 C 2.472656 -12.0625 3.410156 -12.9375 4.609375 -13.5625 C 5.804688 -14.195312 7.148438 -14.515625 8.640625 -14.515625 C 9.890625 -14.515625 11.023438 -14.300781 12.046875 -13.875 C 13.066406 -13.457031 13.925781 -12.847656 14.625 -12.046875 L 12.5 -10.09375 C 11.476562 -11.164062 10.25 -11.703125 8.8125 -11.703125 C 7.894531 -11.703125 7.082031 -11.507812 6.375 -11.125 C 5.675781 -10.75 5.128906 -10.210938 4.734375 -9.515625 C 4.335938 -8.828125 4.140625 -8.035156 4.140625 -7.140625 C 4.140625 -6.253906 4.335938 -5.460938 4.734375 -4.765625 C 5.128906 -4.078125 5.675781 -3.535156 6.375 -3.140625 C 7.070312 -2.753906 7.867188 -2.5625 8.765625 -2.5625 C 9.710938 -2.5625 10.570312 -2.769531 11.34375 -3.1875 Z M 11.34375 -7.359375 "/></g></g></g></g></g><g clip-path="url(#ef8f5f1091)"><g clip-path="url(#64d2097c30)"><g transform="matrix(1, 0, 0, 1, 83, 22)"><g clip-path="url(#242c8f4bff)"><g clip-path="url(#0ae74a40d1)"><g clip-path="url(#c0db803e0b)"><path fill="#107faa" d="M 0.664062 0.0429688 L 12.414062 0.0429688 L 12.414062 11.792969 L 0.664062 11.792969 Z M 0.664062 0.0429688 " fill-opacity="1" fill-rule="nonzero"/></g></g></g></g></g></g><g clip-path="url(#7650174c20)"><g clip-path="url(#6aada33aa1)"><g transform="matrix(1, 0, 0, 1, 27, 33)"><g clip-path="url(#4b5734daa7)"><g clip-path="url(#527d828079)"><g clip-path="url(#7f70305d25)"><path fill="#ffae4b" d="M 0.5 0.792969 L 12.25 0.792969 L 12.25 12.542969 L 0.5 12.542969 Z M 0.5 0.792969 " fill-opacity="1" fill-rule="nonzero"/></g></g></g></g></g></g></svg>