<svg xmlns="http://www.w3.org/2000/svg" xmlns:xlink="http://www.w3.org/1999/xlink" width="84" zoomAndPan="magnify" viewBox="0 0 63.12 71.04" height="84" preserveAspectRatio="xMidYMid meet" version="1.0"><defs><clipPath id="d4e341b939"><path d="M 0 0.015625 L 62.132812 0.015625 L 62.132812 62.148438 L 0 62.148438 Z M 0 0.015625 " clip-rule="nonzero"/></clipPath><clipPath id="43fb3f5035"><path d="M 33 44 L 40 44 L 40 58.652344 L 33 58.652344 Z M 33 44 " clip-rule="nonzero"/></clipPath><clipPath id="8b40331181"><path d="M 34 3.175781 L 37 3.175781 L 37 7 L 34 7 Z M 34 3.175781 " clip-rule="nonzero"/></clipPath><clipPath id="ea90ec3550"><path d="M 45 27 L 55.792969 27 L 55.792969 29 L 45 29 Z M 45 27 " clip-rule="nonzero"/></clipPath><clipPath id="14645a933f"><path d="M 44 24 L 55.792969 24 L 55.792969 26 L 44 26 Z M 44 24 " clip-rule="nonzero"/></clipPath><clipPath id="11bdc4e3d7"><path d="M 44 22 L 55.792969 22 L 55.792969 23 L 44 23 Z M 44 22 " clip-rule="nonzero"/></clipPath><clipPath id="b714b4e923"><path d="M 44 21 L 55.792969 21 L 55.792969 22 L 44 22 Z M 44 21 " clip-rule="nonzero"/></clipPath><clipPath id="7581520ae8"><path d="M 7.710938 24 L 14 24 L 14 29 L 7.710938 29 Z M 7.710938 24 " clip-rule="nonzero"/></clipPath><clipPath id="97589b7643"><path d="M 9 7 L 55 7 L 55 58.652344 L 9 58.652344 Z M 9 7 " clip-rule="nonzero"/></clipPath><clipPath id="dc83414826"><path d="M 17 3.175781 L 18 3.175781 L 18 4 L 17 4 Z M 17 3.175781 " clip-rule="nonzero"/></clipPath></defs><g clip-path="url(#d4e341b939)"><path fill="#ffffff" d="M 0 0.015625 L 62.132812 0.015625 L 62.132812 62.148438 L 0 62.148438 Z M 0 0.015625 " fill-opacity="1" fill-rule="nonzero"/><path fill="#ffffff" d="M 0 0.015625 L 62.132812 0.015625 L 62.132812 62.148438 L 0 62.148438 Z M 0 0.015625 " fill-opacity="1" fill-rule="nonzero"/></g><g clip-path="url(#43fb3f5035)"><path fill="#107faa" d="M 33.492188 44.414062 L 34.46875 56.476562 C 34.585938 57.914062 35.84375 58.984375 37.28125 58.871094 C 38.71875 58.753906 39.789062 57.496094 39.671875 56.054688 L 38.949219 47.144531 C 36.738281 47.097656 34.769531 46.039062 33.492188 44.414062 Z M 33.492188 44.414062 " fill-opacity="1" fill-rule="nonzero"/></g><path fill="#107faa" d="M 32.792969 10.085938 C 32.566406 10.621094 32.140625 11.03125 31.601562 11.25 C 29.605469 12.046875 28.273438 12.839844 27.453125 13.542969 C 27.453125 13.554688 27.449219 13.570312 27.449219 13.585938 C 27.449219 16.207031 29.578125 18.335938 32.203125 18.335938 C 34.828125 18.335938 36.953125 16.207031 36.953125 13.585938 C 36.953125 11.210938 35.214844 9.246094 32.941406 8.890625 C 33.003906 9.292969 32.957031 9.703125 32.792969 10.085938 Z M 35.253906 15.058594 C 35.503906 15.875 34.109375 15.410156 32.695312 15.84375 C 31.285156 16.277344 30.390625 17.445312 30.140625 16.628906 C 29.886719 15.8125 30.828125 14.796875 32.242188 14.363281 C 33.652344 13.929688 35 14.238281 35.253906 15.058594 Z M 35.253906 15.058594 " fill-opacity="1" fill-rule="nonzero"/><path fill="#107faa" d="M 40.914062 5.007812 C 40.230469 3.515625 37.460938 5.007812 37.164062 6.878906 C 39.589844 5.839844 41.558594 6.414062 40.914062 5.007812 Z M 40.914062 5.007812 " fill-opacity="1" fill-rule="nonzero"/><g clip-path="url(#8b40331181)"><path fill="#107faa" d="M 34.984375 6.917969 C 35.710938 4.957031 37.113281 4.136719 35.957031 3.742188 C 34.722656 3.320312 34.070312 5.726562 34.984375 6.917969 Z M 34.984375 6.917969 " fill-opacity="1" fill-rule="nonzero"/></g><path fill="#107faa" d="M 37.605469 9.605469 C 39.390625 9.207031 40.65625 9.851562 40.402344 8.8125 C 40.125 7.707031 38.050781 8.367188 37.605469 9.605469 Z M 37.605469 9.605469 " fill-opacity="1" fill-rule="nonzero"/><g clip-path="url(#ea90ec3550)"><path fill="#107faa" d="M 45.433594 27.441406 L 55.886719 27.441406 L 55.886719 28.128906 L 45.433594 28.128906 Z M 45.433594 27.441406 " fill-opacity="1" fill-rule="nonzero"/></g><path fill="#107faa" d="M 44.097656 26.15625 L 54.550781 26.15625 L 54.550781 26.84375 L 44.097656 26.84375 Z M 44.097656 26.15625 " fill-opacity="1" fill-rule="nonzero"/><g clip-path="url(#14645a933f)"><path fill="#107faa" d="M 44.941406 24.871094 L 55.394531 24.871094 L 55.394531 25.554688 L 44.941406 25.554688 Z M 44.941406 24.871094 " fill-opacity="1" fill-rule="nonzero"/></g><path fill="#107faa" d="M 44.449219 23.582031 L 54.902344 23.582031 L 54.902344 24.269531 L 44.449219 24.269531 Z M 44.449219 23.582031 " fill-opacity="1" fill-rule="nonzero"/><g clip-path="url(#11bdc4e3d7)"><path fill="#107faa" d="M 44.871094 22.296875 L 55.324219 22.296875 L 55.324219 22.984375 L 44.871094 22.984375 Z M 44.871094 22.296875 " fill-opacity="1" fill-rule="nonzero"/></g><g clip-path="url(#b714b4e923)"><path fill="#107faa" d="M 44.871094 21.011719 L 55.324219 21.011719 L 55.324219 21.695312 L 44.871094 21.695312 Z M 44.871094 21.011719 " fill-opacity="1" fill-rule="nonzero"/></g><path fill="#107faa" d="M 9.183594 29.035156 L 19.269531 27.066406 L 19.390625 27.6875 L 9.304688 29.65625 Z M 9.183594 29.035156 " fill-opacity="1" fill-rule="nonzero"/><g clip-path="url(#7581520ae8)"><path fill="#107faa" d="M 9.34375 27.921875 C 9.398438 28.203125 9.675781 28.390625 9.957031 28.335938 L 12.699219 27.800781 C 12.984375 27.742188 13.171875 27.46875 13.113281 27.183594 L 12.507812 24.082031 L 8.738281 24.820312 L 8.859375 25.429688 L 8.390625 25.523438 C 8 25.597656 7.742188 25.980469 7.820312 26.371094 L 7.972656 27.152344 C 8.046875 27.542969 8.429688 27.800781 8.820312 27.722656 L 9.289062 27.632812 Z M 8.71875 27.207031 C 8.613281 27.230469 8.507812 27.160156 8.484375 27.050781 L 8.332031 26.269531 C 8.3125 26.164062 8.382812 26.058594 8.492188 26.035156 L 8.957031 25.945312 L 9.1875 27.117188 Z M 8.71875 27.207031 " fill-opacity="1" fill-rule="nonzero"/></g><path fill="#107faa" d="M 11.882812 22.585938 C 11.613281 21.671875 10.46875 21.761719 9.953125 22.195312 C 9.492188 22.585938 9.21875 23.074219 8.019531 22.785156 C 8.308594 23.128906 9.269531 23.476562 9.792969 23.105469 C 10.113281 22.910156 11.261719 22.472656 11.136719 23.964844 C 11.820312 23.414062 12.003906 23.0625 11.882812 22.585938 Z M 11.882812 22.585938 " fill-opacity="1" fill-rule="nonzero"/><path fill="#107faa" d="M 13.285156 25.304688 L 13.4375 26.082031 C 13.515625 26.476562 13.894531 26.730469 14.285156 26.65625 L 14.753906 26.5625 L 14.808594 26.851562 C 14.867188 27.136719 15.140625 27.324219 15.425781 27.265625 L 18.167969 26.730469 C 18.449219 26.675781 18.636719 26.402344 18.582031 26.117188 L 17.976562 23.015625 L 14.203125 23.753906 L 14.324219 24.363281 L 13.855469 24.453125 C 13.464844 24.53125 13.207031 24.910156 13.285156 25.304688 Z M 13.957031 24.96875 L 14.425781 24.878906 L 14.652344 26.050781 L 14.1875 26.140625 C 14.078125 26.160156 13.972656 26.089844 13.953125 25.984375 L 13.800781 25.203125 C 13.777344 25.09375 13.847656 24.988281 13.957031 24.96875 Z M 13.957031 24.96875 " fill-opacity="1" fill-rule="nonzero"/><path fill="#107faa" d="M 17.347656 21.519531 C 17.082031 20.605469 15.933594 20.695312 15.421875 21.128906 C 14.960938 21.519531 14.6875 22.003906 13.484375 21.71875 C 13.773438 22.0625 14.734375 22.40625 15.257812 22.039062 C 15.578125 21.84375 16.730469 21.40625 16.601562 22.898438 C 17.285156 22.347656 17.472656 21.996094 17.347656 21.519531 Z M 17.347656 21.519531 " fill-opacity="1" fill-rule="nonzero"/><g clip-path="url(#97589b7643)"><path fill="#107faa" d="M 22.863281 46.257812 L 20.972656 45.136719 L 22.011719 43.382812 L 20.484375 42.476562 C 23.242188 39.644531 25.171875 35.878906 26.492188 32.421875 L 26.492188 34.332031 L 24.730469 56.054688 C 24.613281 57.492188 25.6875 58.753906 27.121094 58.871094 C 28.558594 58.984375 29.820312 57.914062 29.9375 56.476562 L 31.492188 37.246094 L 32.519531 37.246094 C 33.453125 35.03125 35.476562 33.382812 37.914062 32.972656 L 37.914062 30.273438 C 38.628906 30.917969 39.40625 31.699219 40.171875 32.601562 C 41.804688 34.53125 43.375 37.03125 44.113281 40.039062 C 44.300781 40.808594 44.992188 41.328125 45.75 41.328125 C 45.882812 41.328125 46.019531 41.308594 46.15625 41.277344 C 47.0625 41.054688 47.617188 40.140625 47.394531 39.234375 C 46.746094 36.589844 45.578125 34.300781 44.25 32.371094 C 44.109375 32.164062 43.964844 31.960938 43.816406 31.761719 C 45.1875 32.234375 46.765625 32.527344 48.578125 32.527344 C 48.855469 32.527344 49.136719 32.523438 49.425781 32.507812 C 50.355469 32.460938 51.074219 31.671875 51.03125 30.738281 C 50.984375 29.804688 50.199219 29.085938 49.261719 29.132812 C 42.207031 29.480469 39.449219 24.351562 38.636719 22.316406 C 41.351562 21.40625 46.585938 19.316406 50.878906 15.640625 L 51.449219 16.410156 L 54.328125 14.261719 L 50.707031 9.410156 L 47.828125 11.558594 L 48.851562 12.925781 C 44.003906 17.160156 37.460938 19.175781 36.191406 19.539062 L 29.652344 19.539062 C 27.871094 18.394531 25.832031 16.65625 25.878906 15.164062 C 25.886719 14.933594 25.953125 14.691406 26.070312 14.449219 C 26.648438 13.25 28.527344 11.953125 31.421875 10.796875 C 32.289062 10.449219 32.710938 9.46875 32.363281 8.601562 C 32.015625 7.734375 31.035156 7.3125 30.167969 7.660156 C 26.320312 9.199219 23.949219 10.964844 22.992188 13.019531 C 22.6875 13.671875 22.523438 14.351562 22.5 15.066406 C 22.472656 15.972656 22.695312 16.824219 23.078125 17.617188 C 20.617188 16.5 17.714844 14.886719 15.28125 12.691406 C 15.214844 12.628906 15.140625 12.578125 15.066406 12.527344 L 15.828125 10.945312 L 14.9375 10.519531 L 14.105469 12.257812 C 13.660156 12.269531 13.21875 12.457031 12.898438 12.8125 C 12.34375 13.425781 12.324219 14.332031 12.804688 14.964844 L 11.375 17.945312 L 11.308594 19.199219 L 12.265625 18.371094 L 13.558594 15.671875 C 17.648438 19.160156 22.582031 21.214844 25.378906 22.183594 C 25.34375 22.511719 24.570312 28.160156 14.226562 29.515625 C 13.300781 29.636719 12.648438 30.484375 12.769531 31.410156 C 12.882812 32.261719 13.609375 32.878906 14.445312 32.878906 C 14.515625 32.878906 14.589844 32.875 14.664062 32.867188 C 18.855469 32.316406 21.796875 31.113281 23.867188 29.714844 C 22.664062 33.273438 20.765625 37.421875 17.914062 40.273438 C 17.773438 40.417969 17.660156 40.578125 17.582031 40.753906 L 16.382812 40.042969 L 15.339844 41.800781 L 13.449219 40.675781 L 9.105469 48.003906 L 18.519531 53.585938 Z M 50.734375 10.269531 L 53.28125 13.683594 L 51.191406 15.238281 L 48.644531 11.828125 Z M 33.101562 24.644531 L 36.53125 24.644531 L 36.53125 25.488281 L 33.101562 25.488281 Z M 25.378906 22.183594 C 25.398438 22.191406 25.417969 22.195312 25.4375 22.203125 L 25.378906 22.199219 Z M 16.714844 41.34375 L 17.449219 41.78125 C 17.511719 42.105469 17.664062 42.410156 17.914062 42.660156 C 18.246094 42.992188 18.675781 43.15625 19.109375 43.15625 C 19.285156 43.15625 19.460938 43.128906 19.628906 43.074219 L 20.710938 43.714844 L 20.15625 44.652344 L 16.160156 42.285156 Z M 16.714844 41.34375 " fill-opacity="1" fill-rule="nonzero"/></g><path fill="#107faa" d="M 44.699219 41.542969 C 44.027344 44.003906 41.773438 45.816406 39.101562 45.816406 C 35.898438 45.816406 33.292969 43.210938 33.292969 40.011719 C 33.292969 36.808594 35.898438 34.203125 39.101562 34.203125 C 39.78125 34.203125 40.4375 34.320312 41.042969 34.539062 C 40.78125 34.160156 40.515625 33.800781 40.242188 33.457031 C 39.871094 33.394531 39.488281 33.359375 39.101562 33.359375 C 35.425781 33.359375 32.449219 36.335938 32.449219 40.011719 C 32.449219 43.683594 35.425781 46.660156 39.101562 46.660156 C 42.152344 46.660156 44.726562 44.601562 45.507812 41.796875 C 45.21875 41.765625 44.945312 41.675781 44.699219 41.542969 Z M 44.699219 41.542969 " fill-opacity="1" fill-rule="nonzero"/><path fill="#107faa" d="M 38.898438 40.753906 C 38.980469 40.828125 39.082031 40.867188 39.1875 40.867188 C 39.246094 40.867188 39.300781 40.859375 39.355469 40.835938 C 39.511719 40.769531 39.609375 40.613281 39.609375 40.445312 L 39.609375 35.253906 L 38.765625 35.253906 L 38.765625 39.46875 L 36.570312 37.402344 L 35.992188 38.019531 Z M 38.898438 40.753906 " fill-opacity="1" fill-rule="nonzero"/><g clip-path="url(#dc83414826)"><path fill="#107faa" d="M 17.234375 3.183594 C 17.269531 3.183594 17.300781 3.183594 17.335938 3.183594 C 17.394531 3.183594 17.453125 3.179688 17.511719 3.175781 L 17.171875 3.175781 C 17.191406 3.175781 17.214844 3.179688 17.234375 3.183594 Z M 17.234375 3.183594 " fill-opacity="1" fill-rule="nonzero"/></g></svg>