<svg xmlns="http://www.w3.org/2000/svg" xmlns:xlink="http://www.w3.org/1999/xlink" width="84" zoomAndPan="magnify" viewBox="0 0 63.12 71.04" height="84" preserveAspectRatio="xMidYMid meet" version="1.0"><defs><clipPath id="3169986452"><path d="M 0 0.015625 L 62.132812 0.015625 L 62.132812 62.148438 L 0 62.148438 Z M 0 0.015625 " clip-rule="nonzero"/></clipPath><clipPath id="987fc19d92"><path d="M 2.21875 2.234375 L 60.359375 2.234375 L 60.359375 60.375 L 2.21875 60.375 Z M 2.21875 2.234375 " clip-rule="nonzero"/></clipPath><clipPath id="f3ba7c5f76"><path d="M 31.289062 2.234375 C 15.234375 2.234375 2.21875 15.25 2.21875 31.304688 C 2.21875 47.359375 15.234375 60.375 31.289062 60.375 C 47.34375 60.375 60.359375 47.359375 60.359375 31.304688 C 60.359375 15.25 47.34375 2.234375 31.289062 2.234375 Z M 31.289062 2.234375 " clip-rule="nonzero"/></clipPath><clipPath id="3a8ed547f6"><path d="M 0.21875 0.234375 L 58.359375 0.234375 L 58.359375 58.375 L 0.21875 58.375 Z M 0.21875 0.234375 " clip-rule="nonzero"/></clipPath><clipPath id="a58501deaf"><path d="M 29.289062 0.234375 C 13.234375 0.234375 0.21875 13.25 0.21875 29.304688 C 0.21875 45.359375 13.234375 58.375 29.289062 58.375 C 45.34375 58.375 58.359375 45.359375 58.359375 29.304688 C 58.359375 13.25 45.34375 0.234375 29.289062 0.234375 Z M 29.289062 0.234375 " clip-rule="nonzero"/></clipPath><clipPath id="330db5b4a4"><rect x="0" width="59" y="0" height="59"/></clipPath><clipPath id="6d054f8b29"><path d="M 32 41 L 38 41 L 38 52.386719 L 32 52.386719 Z M 32 41 " clip-rule="nonzero"/></clipPath><clipPath id="b5f82aa303"><path d="M 33 9.484375 L 35 9.484375 L 35 13 L 33 13 Z M 33 9.484375 " clip-rule="nonzero"/></clipPath><clipPath id="e8938875fe"><path d="M 41 28 L 49.621094 28 L 49.621094 29 L 41 29 Z M 41 28 " clip-rule="nonzero"/></clipPath><clipPath id="5d89490e4d"><path d="M 41 26 L 49.621094 26 L 49.621094 27 L 41 27 Z M 41 26 " clip-rule="nonzero"/></clipPath><clipPath id="c6405d575f"><path d="M 41 25 L 49.621094 25 L 49.621094 26 L 41 26 Z M 41 25 " clip-rule="nonzero"/></clipPath><clipPath id="362afebdf9"><path d="M 41 24 L 49.621094 24 L 49.621094 25 L 41 25 Z M 41 24 " clip-rule="nonzero"/></clipPath><clipPath id="4c7c40635f"><path d="M 41 23 L 49.621094 23 L 49.621094 24 L 41 24 Z M 41 23 " clip-rule="nonzero"/></clipPath><clipPath id="34592c659a"><path d="M 12.636719 25 L 17 25 L 17 29 L 12.636719 29 Z M 12.636719 25 " clip-rule="nonzero"/></clipPath><clipPath id="57ab94c107"><path d="M 12.636719 23 L 16 23 L 16 26 L 12.636719 26 Z M 12.636719 23 " clip-rule="nonzero"/></clipPath><clipPath id="a5b51f96bb"><path d="M 13 12 L 49 12 L 49 52.386719 L 13 52.386719 Z M 13 12 " clip-rule="nonzero"/></clipPath><clipPath id="401e677f5a"><path d="M 19 9.484375 L 21 9.484375 L 21 10 L 19 10 Z M 19 9.484375 " clip-rule="nonzero"/></clipPath></defs><g clip-path="url(#3169986452)"><path fill="#ffffff" d="M 0 0.015625 L 62.132812 0.015625 L 62.132812 62.148438 L 0 62.148438 Z M 0 0.015625 " fill-opacity="1" fill-rule="nonzero"/><path fill="#107faa" d="M 0 0.015625 L 62.132812 0.015625 L 62.132812 62.148438 L 0 62.148438 Z M 0 0.015625 " fill-opacity="1" fill-rule="nonzero"/></g><g clip-path="url(#987fc19d92)"><g clip-path="url(#f3ba7c5f76)"><g transform="matrix(1, 0, 0, 1, 2, 2)"><g clip-path="url(#330db5b4a4)"><g clip-path="url(#3a8ed547f6)"><g clip-path="url(#a58501deaf)"><path fill="#ffffff" d="M 0.21875 0.234375 L 58.359375 0.234375 L 58.359375 58.375 L 0.21875 58.375 Z M 0.21875 0.234375 " fill-opacity="1" fill-rule="nonzero"/></g></g></g></g></g></g><g clip-path="url(#6d054f8b29)"><path fill="#107faa" d="M 32.578125 41.398438 L 33.335938 50.734375 C 33.425781 51.847656 34.402344 52.675781 35.511719 52.585938 C 36.625 52.496094 37.453125 51.519531 37.363281 50.410156 L 36.804688 43.511719 C 35.09375 43.476562 33.570312 42.65625 32.578125 41.398438 Z M 32.578125 41.398438 " fill-opacity="1" fill-rule="nonzero"/></g><path fill="#107faa" d="M 32.039062 14.832031 C 31.863281 15.246094 31.535156 15.566406 31.117188 15.734375 C 29.574219 16.351562 28.542969 16.964844 27.90625 17.507812 C 27.90625 17.519531 27.90625 17.53125 27.90625 17.539062 C 27.90625 19.570312 29.550781 21.21875 31.582031 21.21875 C 33.613281 21.21875 35.257812 19.570312 35.257812 17.539062 C 35.257812 15.703125 33.914062 14.183594 32.15625 13.910156 C 32.203125 14.21875 32.167969 14.539062 32.039062 14.832031 Z M 33.945312 18.679688 C 34.136719 19.3125 33.058594 18.953125 31.964844 19.289062 C 30.871094 19.625 30.179688 20.53125 29.988281 19.898438 C 29.792969 19.265625 30.519531 18.480469 31.613281 18.144531 C 32.707031 17.808594 33.75 18.046875 33.945312 18.679688 Z M 33.945312 18.679688 " fill-opacity="1" fill-rule="nonzero"/><path fill="#107faa" d="M 38.324219 10.90625 C 37.796875 9.75 35.652344 10.902344 35.421875 12.351562 C 37.300781 11.546875 38.824219 11.992188 38.324219 10.90625 Z M 38.324219 10.90625 " fill-opacity="1" fill-rule="nonzero"/><g clip-path="url(#b5f82aa303)"><path fill="#107faa" d="M 33.734375 12.378906 C 34.296875 10.863281 35.382812 10.230469 34.488281 9.921875 C 33.535156 9.597656 33.027344 11.457031 33.734375 12.378906 Z M 33.734375 12.378906 " fill-opacity="1" fill-rule="nonzero"/></g><path fill="#107faa" d="M 35.765625 14.460938 C 37.148438 14.15625 38.125 14.652344 37.925781 13.847656 C 37.714844 12.992188 36.109375 13.503906 35.765625 14.460938 Z M 35.765625 14.460938 " fill-opacity="1" fill-rule="nonzero"/><g clip-path="url(#e8938875fe)"><path fill="#107faa" d="M 41.824219 28.265625 L 49.914062 28.265625 L 49.914062 28.796875 L 41.824219 28.796875 Z M 41.824219 28.265625 " fill-opacity="1" fill-rule="nonzero"/></g><path fill="#107faa" d="M 40.789062 27.269531 L 48.878906 27.269531 L 48.878906 27.800781 L 40.789062 27.800781 Z M 40.789062 27.269531 " fill-opacity="1" fill-rule="nonzero"/><g clip-path="url(#5d89490e4d)"><path fill="#107faa" d="M 41.441406 26.273438 L 49.53125 26.273438 L 49.53125 26.804688 L 41.441406 26.804688 Z M 41.441406 26.273438 " fill-opacity="1" fill-rule="nonzero"/></g><g clip-path="url(#c6405d575f)"><path fill="#107faa" d="M 41.0625 25.277344 L 49.148438 25.277344 L 49.148438 25.808594 L 41.0625 25.808594 Z M 41.0625 25.277344 " fill-opacity="1" fill-rule="nonzero"/></g><g clip-path="url(#362afebdf9)"><path fill="#107faa" d="M 41.386719 24.28125 L 49.476562 24.28125 L 49.476562 24.8125 L 41.386719 24.8125 Z M 41.386719 24.28125 " fill-opacity="1" fill-rule="nonzero"/></g><g clip-path="url(#4c7c40635f)"><path fill="#107faa" d="M 41.386719 23.289062 L 49.476562 23.289062 L 49.476562 23.820312 L 41.386719 23.820312 Z M 41.386719 23.289062 " fill-opacity="1" fill-rule="nonzero"/></g><path fill="#107faa" d="M 13.769531 29.496094 L 21.574219 27.972656 L 21.667969 28.453125 L 13.863281 29.980469 Z M 13.769531 29.496094 " fill-opacity="1" fill-rule="nonzero"/><g clip-path="url(#34592c659a)"><path fill="#107faa" d="M 13.894531 28.636719 C 13.9375 28.855469 14.148438 29 14.371094 28.957031 L 16.492188 28.542969 C 16.710938 28.5 16.855469 28.285156 16.8125 28.066406 L 16.34375 25.664062 L 13.425781 26.234375 L 13.515625 26.707031 L 13.15625 26.777344 C 12.851562 26.839844 12.65625 27.132812 12.714844 27.4375 L 12.832031 28.039062 C 12.890625 28.34375 13.183594 28.542969 13.488281 28.480469 L 13.851562 28.410156 Z M 13.410156 28.085938 C 13.328125 28.101562 13.246094 28.046875 13.230469 27.960938 L 13.109375 27.359375 C 13.09375 27.273438 13.148438 27.191406 13.234375 27.175781 L 13.59375 27.105469 L 13.773438 28.015625 Z M 13.410156 28.085938 " fill-opacity="1" fill-rule="nonzero"/></g><g clip-path="url(#57ab94c107)"><path fill="#107faa" d="M 15.859375 24.507812 C 15.652344 23.800781 14.761719 23.871094 14.367188 24.207031 C 14.007812 24.507812 13.796875 24.882812 12.867188 24.660156 C 13.09375 24.925781 13.835938 25.195312 14.242188 24.910156 C 14.488281 24.757812 15.378906 24.421875 15.28125 25.574219 C 15.808594 25.148438 15.953125 24.875 15.859375 24.507812 Z M 15.859375 24.507812 " fill-opacity="1" fill-rule="nonzero"/></g><path fill="#107faa" d="M 16.945312 26.609375 L 17.0625 27.214844 C 17.121094 27.515625 17.414062 27.714844 17.71875 27.65625 L 18.082031 27.585938 L 18.125 27.808594 C 18.167969 28.027344 18.378906 28.171875 18.597656 28.128906 L 20.722656 27.714844 C 20.941406 27.671875 21.085938 27.457031 21.042969 27.238281 L 20.574219 24.839844 L 17.65625 25.410156 L 17.746094 25.882812 L 17.386719 25.953125 C 17.082031 26.011719 16.882812 26.304688 16.945312 26.609375 Z M 17.464844 26.351562 L 17.824219 26.28125 L 18.003906 27.1875 L 17.640625 27.257812 C 17.558594 27.273438 17.476562 27.21875 17.460938 27.136719 L 17.339844 26.53125 C 17.324219 26.449219 17.378906 26.367188 17.464844 26.351562 Z M 17.464844 26.351562 " fill-opacity="1" fill-rule="nonzero"/><path fill="#107faa" d="M 20.089844 23.679688 C 19.882812 22.972656 18.992188 23.042969 18.597656 23.378906 C 18.238281 23.679688 18.027344 24.058594 17.097656 23.835938 C 17.320312 24.101562 18.066406 24.367188 18.472656 24.082031 C 18.71875 23.929688 19.609375 23.59375 19.511719 24.75 C 20.039062 24.324219 20.183594 24.050781 20.089844 23.679688 Z M 20.089844 23.679688 " fill-opacity="1" fill-rule="nonzero"/><g clip-path="url(#a5b51f96bb)"><path fill="#107faa" d="M 24.355469 42.828125 L 22.890625 41.957031 L 23.699219 40.601562 L 22.515625 39.898438 C 24.648438 37.707031 26.144531 34.792969 27.164062 32.117188 L 27.164062 33.597656 L 25.800781 50.410156 C 25.710938 51.519531 26.539062 52.496094 27.652344 52.585938 C 28.765625 52.675781 29.738281 51.847656 29.828125 50.734375 L 31.035156 35.851562 L 31.828125 35.851562 C 32.550781 34.136719 34.117188 32.863281 36.003906 32.542969 L 36.003906 30.457031 C 36.554688 30.957031 37.15625 31.558594 37.75 32.257812 C 39.015625 33.75 40.226562 35.6875 40.800781 38.011719 C 40.945312 38.609375 41.480469 39.007812 42.066406 39.007812 C 42.171875 39.007812 42.277344 38.996094 42.378906 38.972656 C 43.082031 38.800781 43.511719 38.09375 43.339844 37.390625 C 42.835938 35.34375 41.933594 33.570312 40.90625 32.082031 C 40.796875 31.917969 40.683594 31.761719 40.570312 31.609375 C 41.632812 31.976562 42.851562 32.199219 44.253906 32.199219 C 44.46875 32.199219 44.6875 32.195312 44.910156 32.183594 C 45.632812 32.148438 46.1875 31.535156 46.152344 30.816406 C 46.117188 30.09375 45.507812 29.535156 44.785156 29.574219 C 39.324219 29.839844 37.191406 25.871094 36.5625 24.296875 C 38.664062 23.59375 42.714844 21.976562 46.035156 19.132812 L 46.480469 19.726562 L 48.703125 18.066406 L 45.902344 14.3125 L 43.675781 15.972656 L 44.46875 17.03125 C 40.714844 20.308594 35.652344 21.867188 34.667969 22.148438 L 29.609375 22.148438 C 28.230469 21.261719 26.65625 19.917969 26.6875 18.765625 C 26.695312 18.585938 26.746094 18.398438 26.835938 18.210938 C 27.285156 17.28125 28.738281 16.28125 30.980469 15.382812 C 31.648438 15.117188 31.976562 14.355469 31.707031 13.683594 C 31.4375 13.015625 30.679688 12.6875 30.007812 12.957031 C 27.03125 14.148438 25.195312 15.515625 24.453125 17.101562 C 24.21875 17.609375 24.09375 18.136719 24.074219 18.6875 C 24.054688 19.386719 24.226562 20.050781 24.519531 20.664062 C 22.617188 19.796875 20.371094 18.546875 18.488281 16.847656 C 18.4375 16.800781 18.378906 16.761719 18.324219 16.722656 L 18.910156 15.5 L 18.222656 15.167969 L 17.578125 16.515625 C 17.234375 16.523438 16.890625 16.667969 16.644531 16.945312 C 16.214844 17.417969 16.199219 18.117188 16.570312 18.609375 L 15.464844 20.914062 L 15.414062 21.886719 L 16.152344 21.246094 L 17.15625 19.15625 C 20.320312 21.855469 24.140625 23.445312 26.304688 24.195312 C 26.277344 24.449219 25.675781 28.820312 17.671875 29.871094 C 16.957031 29.964844 16.453125 30.621094 16.546875 31.335938 C 16.632812 31.992188 17.195312 32.472656 17.839844 32.472656 C 17.898438 32.472656 17.953125 32.46875 18.011719 32.460938 C 21.253906 32.039062 23.53125 31.105469 25.132812 30.023438 C 24.203125 32.777344 22.734375 35.988281 20.527344 38.195312 C 20.414062 38.304688 20.332031 38.433594 20.269531 38.566406 L 19.339844 38.015625 L 18.535156 39.375 L 17.070312 38.507812 L 13.710938 44.175781 L 20.996094 48.496094 Z M 45.921875 14.976562 L 47.894531 17.617188 L 46.277344 18.824219 L 44.308594 16.179688 Z M 32.277344 26.101562 L 34.933594 26.101562 L 34.933594 26.753906 L 32.277344 26.753906 Z M 26.304688 24.195312 C 26.316406 24.199219 26.332031 24.207031 26.347656 24.210938 L 26.300781 24.207031 Z M 19.597656 39.023438 L 20.167969 39.363281 C 20.214844 39.609375 20.332031 39.851562 20.527344 40.042969 C 20.78125 40.296875 21.117188 40.425781 21.453125 40.425781 C 21.585938 40.425781 21.722656 40.402344 21.855469 40.359375 L 22.691406 40.859375 L 22.261719 41.582031 L 19.167969 39.75 Z M 19.597656 39.023438 " fill-opacity="1" fill-rule="nonzero"/></g><path fill="#107faa" d="M 41.253906 39.175781 C 40.734375 41.082031 38.988281 42.484375 36.921875 42.484375 C 34.441406 42.484375 32.425781 40.46875 32.425781 37.992188 C 32.425781 35.511719 34.441406 33.496094 36.921875 33.496094 C 37.449219 33.496094 37.953125 33.589844 38.425781 33.757812 C 38.222656 33.464844 38.015625 33.1875 37.804688 32.921875 C 37.515625 32.871094 37.222656 32.84375 36.921875 32.84375 C 34.078125 32.84375 31.773438 35.148438 31.773438 37.992188 C 31.773438 40.832031 34.078125 43.136719 36.921875 43.136719 C 39.285156 43.136719 41.273438 41.542969 41.878906 39.375 C 41.65625 39.347656 41.445312 39.28125 41.253906 39.175781 Z M 41.253906 39.175781 " fill-opacity="1" fill-rule="nonzero"/><path fill="#107faa" d="M 36.765625 38.566406 C 36.828125 38.625 36.90625 38.65625 36.988281 38.65625 C 37.03125 38.65625 37.078125 38.648438 37.117188 38.628906 C 37.238281 38.578125 37.316406 38.460938 37.316406 38.328125 L 37.316406 34.3125 L 36.664062 34.3125 L 36.664062 37.574219 L 34.964844 35.972656 L 34.515625 36.449219 Z M 36.765625 38.566406 " fill-opacity="1" fill-rule="nonzero"/><g clip-path="url(#401e677f5a)"><path fill="#107faa" d="M 20 9.492188 C 20.027344 9.492188 20.050781 9.492188 20.078125 9.492188 C 20.125 9.492188 20.171875 9.492188 20.214844 9.484375 L 19.949219 9.484375 C 19.96875 9.488281 19.984375 9.488281 20 9.492188 Z M 20 9.492188 " fill-opacity="1" fill-rule="nonzero"/></g></svg>