<svg xmlns="http://www.w3.org/2000/svg" xmlns:xlink="http://www.w3.org/1999/xlink" width="84" zoomAndPan="magnify" viewBox="0 0 63.12 71.04" height="84" preserveAspectRatio="xMidYMid meet" version="1.0"><defs><clipPath id="ff0b684d79"><path d="M 0 0.015625 L 62.132812 0.015625 L 62.132812 62.148438 L 0 62.148438 Z M 0 0.015625 " clip-rule="nonzero"/></clipPath><clipPath id="73897c5181"><path d="M 4 32 L 20 32 L 20 53.855469 L 4 53.855469 Z M 4 32 " clip-rule="nonzero"/></clipPath><clipPath id="79139a1fff"><path d="M 23 48 L 57.902344 48 L 57.902344 53.855469 L 23 53.855469 Z M 23 48 " clip-rule="nonzero"/></clipPath><clipPath id="4309c50198"><path d="M 3.90625 7.996094 L 7 7.996094 L 7 11 L 3.90625 11 Z M 3.90625 7.996094 " clip-rule="nonzero"/></clipPath></defs><g clip-path="url(#ff0b684d79)"><path fill="#ffffff" d="M 0 0.015625 L 62.132812 0.015625 L 62.132812 62.148438 L 0 62.148438 Z M 0 0.015625 " fill-opacity="1" fill-rule="nonzero"/><path fill="#ffffff" d="M 0 0.015625 L 62.132812 0.015625 L 62.132812 62.148438 L 0 62.148438 Z M 0 0.015625 " fill-opacity="1" fill-rule="nonzero"/></g><path fill="#107faa" d="M 17.765625 22.09375 C 21.707031 22.09375 24.902344 25.289062 24.902344 29.230469 C 24.902344 33.171875 21.707031 36.367188 17.765625 36.367188 C 13.824219 36.367188 10.628906 33.171875 10.628906 29.230469 C 10.628906 25.289062 13.824219 22.09375 17.765625 22.09375 Z M 17.765625 22.09375 " fill-opacity="1" fill-rule="evenodd"/><g clip-path="url(#73897c5181)"><path fill="#107faa" d="M 12.019531 32.09375 C 16.367188 32.09375 19.921875 35.648438 19.921875 39.996094 L 19.921875 54.15625 L 4.117188 54.15625 L 4.117188 39.996094 C 4.117188 35.648438 7.671875 32.09375 12.019531 32.09375 Z M 12.019531 32.09375 " fill-opacity="1" fill-rule="evenodd"/></g><g clip-path="url(#79139a1fff)"><path fill="#107faa" d="M 23.242188 48.953125 L 58.210938 48.953125 L 58.210938 54.15625 L 23.242188 54.15625 Z M 23.242188 48.953125 " fill-opacity="1" fill-rule="evenodd"/></g><path fill="#107faa" d="M 11.710938 37.121094 C 10.484375 36.082031 10.332031 34.246094 11.367188 33.023438 C 12.40625 31.796875 14.242188 31.644531 15.464844 32.679688 L 25.257812 40.933594 L 32.21875 40.933594 C 33.828125 40.933594 35.128906 42.238281 35.128906 43.847656 C 35.128906 45.457031 33.828125 46.761719 32.21875 46.761719 L 24.203125 46.761719 L 24.203125 46.753906 C 23.539062 46.753906 22.871094 46.53125 22.324219 46.070312 L 11.710938 37.117188 Z M 11.710938 37.121094 " fill-opacity="1" fill-rule="nonzero"/><path fill="#107faa" d="M 39.269531 46.792969 C 38.347656 46.792969 37.601562 46.046875 37.601562 45.125 C 37.601562 44.207031 38.347656 43.460938 39.269531 43.460938 L 51.082031 43.460938 L 51.082031 30.296875 C 51.082031 29.378906 51.828125 28.632812 52.746094 28.632812 C 53.664062 28.632812 54.410156 29.378906 54.410156 30.296875 L 54.410156 45.125 C 54.410156 46.046875 53.664062 46.792969 52.746094 46.792969 Z M 39.269531 46.792969 " fill-opacity="1" fill-rule="nonzero"/><path fill="#107faa" d="M 36.90625 20.003906 C 39.296875 20.003906 41.464844 20.976562 43.035156 22.542969 C 44.605469 24.113281 45.574219 26.28125 45.574219 28.671875 C 45.574219 31.066406 44.605469 33.234375 43.035156 34.804688 C 41.464844 36.371094 39.296875 37.34375 36.90625 37.34375 C 34.511719 37.34375 32.34375 36.371094 30.777344 34.804688 C 29.207031 33.234375 28.238281 31.066406 28.238281 28.671875 C 28.238281 26.277344 29.207031 24.113281 30.777344 22.542969 C 32.34375 20.976562 34.511719 20.003906 36.90625 20.003906 Z M 41.152344 24.425781 C 40.066406 23.339844 38.5625 22.667969 36.90625 22.667969 C 35.246094 22.667969 33.746094 23.339844 32.660156 24.425781 C 31.574219 25.511719 30.898438 27.015625 30.898438 28.671875 C 30.898438 30.332031 31.574219 31.832031 32.660156 32.917969 C 33.746094 34.007812 35.246094 34.679688 36.90625 34.679688 C 38.5625 34.679688 40.066406 34.007812 41.152344 32.917969 C 42.238281 31.832031 42.910156 30.332031 42.910156 28.671875 C 42.910156 27.015625 42.238281 25.511719 41.152344 24.425781 Z M 41.152344 24.425781 " fill-opacity="1" fill-rule="nonzero"/><path fill="#107faa" d="M 36.90625 28.671875 L 29.882812 28.671875 L 31.3125 22.925781 L 36.90625 21.648438 Z M 36.90625 28.671875 " fill-opacity="1" fill-rule="evenodd"/><path fill="#107faa" d="M 21.125 21.457031 C 21.101562 21.6875 20.898438 21.851562 20.667969 21.828125 C 20.441406 21.800781 20.277344 21.597656 20.300781 21.371094 C 20.300781 21.367188 20.480469 19.886719 18.535156 19.929688 C 17.949219 19.941406 17.109375 20.003906 16.222656 20.070312 C 14.085938 20.230469 11.707031 20.40625 11.246094 19.867188 L 11.21875 19.835938 C 10.992188 19.542969 11.050781 19.21875 11.46875 18.863281 L 11.515625 18.824219 C 11.546875 18.804688 11.578125 18.785156 11.613281 18.769531 C 10.660156 18.628906 9.761719 18.488281 8.960938 18.34375 C 7.722656 18.125 6.703125 17.902344 6.050781 17.691406 C 4.890625 17.3125 4.546875 16.878906 5.332031 16.390625 C 5.566406 16.242188 6.078125 16.121094 6.910156 16.03125 C 7.335938 15.988281 7.789062 15.949219 8.253906 15.914062 C 7.859375 15.707031 7.628906 15.46875 7.609375 15.199219 C 6.605469 14.925781 5.894531 14.597656 5.609375 14.210938 C 5.421875 13.957031 5.378906 13.683594 5.5 13.394531 C 5.988281 12.257812 8.347656 11.730469 11.207031 11.566406 C 15.210938 11.335938 20.28125 11.761719 22.234375 12.214844 C 23.503906 12.507812 24.363281 12.957031 24.765625 13.414062 C 24.835938 13.496094 24.894531 13.578125 24.941406 13.664062 C 26.042969 13.796875 26.980469 13.960938 27.65625 14.148438 C 28.519531 14.390625 29.023438 14.730469 29.03125 15.171875 L 29.03125 15.183594 C 29.03125 15.335938 28.976562 15.480469 28.863281 15.617188 C 28.574219 15.964844 27.355469 16.203125 25.621094 16.339844 C 25.835938 16.375 26.023438 16.40625 26.183594 16.441406 C 27.195312 16.652344 27.5 16.992188 26.914062 17.460938 C 26.800781 17.550781 26.589844 17.628906 26.277344 17.6875 C 24.136719 18.082031 15.828125 17.574219 11.167969 16.71875 L 10.648438 16.617188 C 9.328125 16.664062 8.085938 16.742188 6.992188 16.859375 C 6.765625 16.882812 6.570312 16.90625 6.40625 16.933594 C 7.019531 17.121094 7.957031 17.320312 9.105469 17.527344 C 10.648438 17.800781 12.554688 18.074219 14.535156 18.324219 C 17.277344 18.207031 21.207031 18.398438 23.847656 18.648438 C 24.773438 18.738281 25.535156 18.832031 26.035156 18.917969 C 27.214844 19.125 27.570312 19.457031 26.8125 19.917969 C 26.714844 19.980469 26.539062 20.027344 26.28125 20.058594 L 26.261719 20.0625 C 25.4375 20.152344 23.265625 20.039062 20.609375 19.804688 C 21.242188 20.5 21.128906 21.453125 21.128906 21.457031 Z M 12.140625 19.410156 C 12.730469 19.480469 14.148438 19.390625 15.574219 19.285156 C 15.09375 19.226562 14.609375 19.167969 14.136719 19.109375 C 13.195312 19.15625 12.480469 19.25 12.140625 19.410156 Z M 5.769531 17.09375 C 5.617188 17.1875 5.78125 17.105469 5.96875 17.019531 C 5.875 17.042969 5.8125 17.066406 5.769531 17.09375 Z M 23.980469 16.980469 C 22.070312 16.792969 19.332031 16.640625 16.457031 16.585938 C 19.265625 16.859375 22.1875 17.019531 24.171875 17 Z M 8.074219 14.460938 C 8.230469 14.359375 8.433594 14.265625 8.6875 14.179688 C 11.613281 13.167969 18.617188 13.085938 23.507812 13.515625 C 23.140625 13.332031 22.65625 13.164062 22.050781 13.023438 C 20.144531 12.582031 15.183594 12.167969 11.253906 12.394531 C 8.6875 12.539062 6.601562 12.933594 6.265625 13.71875 C 6.265625 13.726562 6.273438 13.710938 6.277344 13.71875 C 6.464844 13.96875 7.113281 14.21875 8.074219 14.460938 Z M 23.964844 14.390625 C 19.46875 13.945312 12.832031 13.945312 9.59375 14.773438 C 10.441406 14.921875 11.40625 15.054688 12.4375 15.171875 C 13.03125 15.238281 13.648438 15.296875 14.277344 15.351562 C 14.25 15.296875 14.238281 15.234375 14.238281 15.171875 C 14.238281 14.941406 14.421875 14.753906 14.652344 14.753906 C 14.664062 14.753906 18.621094 14.753906 22.0625 14.703125 C 22.976562 14.691406 23.605469 14.570312 23.964844 14.394531 Z M 27.4375 14.949219 C 26.839844 14.78125 26.003906 14.632812 25.003906 14.507812 C 24.933594 14.667969 24.8125 14.820312 24.636719 14.949219 C 24.199219 15.28125 23.347656 15.511719 22.070312 15.53125 C 20.449219 15.554688 18.824219 15.566406 17.507812 15.574219 C 22.460938 15.839844 27.304688 15.742188 28.144531 15.15625 C 28.042969 15.121094 27.792969 15.046875 27.4375 14.949219 Z M 27.4375 14.949219 " fill-opacity="1" fill-rule="nonzero"/><path fill="#107faa" d="M 30.632812 16.304688 L 31.199219 17.003906 L 29.664062 18.460938 L 32.539062 17.285156 L 31.921875 16.53125 L 33.082031 15.722656 L 32.222656 14.691406 Z M 30.632812 16.304688 " fill-opacity="1" fill-rule="evenodd"/><path fill="#107faa" d="M 8.367188 21.925781 L 7.800781 22.625 L 9.335938 24.082031 L 6.457031 22.90625 L 7.074219 22.152344 L 5.917969 21.34375 L 6.777344 20.3125 Z M 8.367188 21.925781 " fill-opacity="1" fill-rule="evenodd"/><path fill="#107faa" d="M 29.308594 10.207031 C 28.664062 10.207031 28.136719 9.679688 28.136719 9.035156 C 28.136719 9.679688 27.609375 10.207031 26.964844 10.207031 C 27.609375 10.207031 28.136719 10.734375 28.136719 11.378906 C 28.136719 10.734375 28.664062 10.207031 29.308594 10.207031 Z M 29.308594 10.207031 " fill-opacity="1" fill-rule="evenodd"/><g clip-path="url(#4309c50198)"><path fill="#107faa" d="M 6.257812 9.167969 C 5.613281 9.167969 5.085938 8.640625 5.085938 7.996094 C 5.085938 8.640625 4.558594 9.167969 3.914062 9.167969 C 4.558594 9.167969 5.085938 9.695312 5.085938 10.339844 C 5.085938 9.695312 5.613281 9.167969 6.257812 9.167969 Z M 6.257812 9.167969 " fill-opacity="1" fill-rule="evenodd"/></g></svg>