<svg xmlns="http://www.w3.org/2000/svg" xmlns:xlink="http://www.w3.org/1999/xlink" width="84" zoomAndPan="magnify" viewBox="0 0 63.12 71.04" height="84" preserveAspectRatio="xMidYMid meet" version="1.0"><defs><clipPath id="a6c9737d26"><path d="M 0 0.015625 L 62.132812 0.015625 L 62.132812 62.148438 L 0 62.148438 Z M 0 0.015625 " clip-rule="nonzero"/></clipPath><clipPath id="a938e65162"><path d="M 2.21875 2.234375 L 60.359375 2.234375 L 60.359375 60.375 L 2.21875 60.375 Z M 2.21875 2.234375 " clip-rule="nonzero"/></clipPath><clipPath id="1980ad6885"><path d="M 31.289062 2.234375 C 15.234375 2.234375 2.21875 15.25 2.21875 31.304688 C 2.21875 47.359375 15.234375 60.375 31.289062 60.375 C 47.34375 60.375 60.359375 47.359375 60.359375 31.304688 C 60.359375 15.25 47.34375 2.234375 31.289062 2.234375 Z M 31.289062 2.234375 " clip-rule="nonzero"/></clipPath><clipPath id="202e2e0bad"><path d="M 0.21875 0.234375 L 58.359375 0.234375 L 58.359375 58.375 L 0.21875 58.375 Z M 0.21875 0.234375 " clip-rule="nonzero"/></clipPath><clipPath id="37cb5f5967"><path d="M 29.289062 0.234375 C 13.234375 0.234375 0.21875 13.25 0.21875 29.304688 C 0.21875 45.359375 13.234375 58.375 29.289062 58.375 C 45.34375 58.375 58.359375 45.359375 58.359375 29.304688 C 58.359375 13.25 45.34375 0.234375 29.289062 0.234375 Z M 29.289062 0.234375 " clip-rule="nonzero"/></clipPath><clipPath id="5c2d1d6611"><rect x="0" width="59" y="0" height="59"/></clipPath><clipPath id="4826b16052"><path d="M 10.351562 31 L 23 31 L 23 48.792969 L 10.351562 48.792969 Z M 10.351562 31 " clip-rule="nonzero"/></clipPath><clipPath id="2a37f50d13"><path d="M 25 44 L 52.515625 44 L 52.515625 48.792969 L 25 48.792969 Z M 25 44 " clip-rule="nonzero"/></clipPath><clipPath id="523bb36f2b"><path d="M 10.351562 13.285156 L 13 13.285156 L 13 16 L 10.351562 16 Z M 10.351562 13.285156 " clip-rule="nonzero"/></clipPath></defs><g clip-path="url(#a6c9737d26)"><path fill="#ffffff" d="M 0 0.015625 L 62.132812 0.015625 L 62.132812 62.148438 L 0 62.148438 Z M 0 0.015625 " fill-opacity="1" fill-rule="nonzero"/><path fill="#107faa" d="M 0 0.015625 L 62.132812 0.015625 L 62.132812 62.148438 L 0 62.148438 Z M 0 0.015625 " fill-opacity="1" fill-rule="nonzero"/></g><g clip-path="url(#a938e65162)"><g clip-path="url(#1980ad6885)"><g transform="matrix(1, 0, 0, 1, 2, 2)"><g clip-path="url(#5c2d1d6611)"><g clip-path="url(#202e2e0bad)"><g clip-path="url(#37cb5f5967)"><path fill="#ffffff" d="M 0.21875 0.234375 L 58.359375 0.234375 L 58.359375 58.375 L 0.21875 58.375 Z M 0.21875 0.234375 " fill-opacity="1" fill-rule="nonzero"/></g></g></g></g></g></g><path fill="#107faa" d="M 21.035156 24.15625 C 24.074219 24.15625 26.535156 26.621094 26.535156 29.65625 C 26.535156 32.695312 24.074219 35.160156 21.035156 35.160156 C 17.996094 35.160156 15.53125 32.695312 15.53125 29.65625 C 15.53125 26.621094 17.996094 24.15625 21.035156 24.15625 Z M 21.035156 24.15625 " fill-opacity="1" fill-rule="evenodd"/><g clip-path="url(#4826b16052)"><path fill="#107faa" d="M 16.605469 31.863281 C 19.957031 31.863281 22.695312 34.605469 22.695312 37.953125 L 22.695312 48.871094 L 10.515625 48.871094 L 10.515625 37.953125 C 10.515625 34.605469 13.253906 31.863281 16.605469 31.863281 Z M 16.605469 31.863281 " fill-opacity="1" fill-rule="evenodd"/></g><g clip-path="url(#2a37f50d13)"><path fill="#107faa" d="M 25.253906 44.859375 L 52.210938 44.859375 L 52.210938 48.871094 L 25.253906 48.871094 Z M 25.253906 44.859375 " fill-opacity="1" fill-rule="evenodd"/></g><path fill="#107faa" d="M 16.367188 35.738281 C 15.421875 34.9375 15.304688 33.523438 16.101562 32.578125 C 16.902344 31.632812 18.316406 31.515625 19.261719 32.316406 L 26.808594 38.679688 L 32.175781 38.679688 C 33.414062 38.679688 34.421875 39.683594 34.421875 40.925781 C 34.421875 42.167969 33.414062 43.171875 32.175781 43.171875 L 25.996094 43.171875 L 25.996094 43.167969 C 25.484375 43.167969 24.972656 42.992188 24.550781 42.636719 Z M 16.367188 35.738281 " fill-opacity="1" fill-rule="nonzero"/><path fill="#107faa" d="M 37.609375 43.195312 C 36.902344 43.195312 36.328125 42.621094 36.328125 41.910156 C 36.328125 41.203125 36.902344 40.628906 37.609375 40.628906 L 46.71875 40.628906 L 46.71875 30.480469 C 46.71875 29.769531 47.292969 29.195312 48 29.195312 C 48.710938 29.195312 49.285156 29.769531 49.285156 30.480469 L 49.285156 41.910156 C 49.285156 42.621094 48.710938 43.195312 48 43.195312 Z M 37.609375 43.195312 " fill-opacity="1" fill-rule="nonzero"/><path fill="#107faa" d="M 35.789062 22.542969 C 37.632812 22.542969 39.304688 23.292969 40.515625 24.5 C 41.722656 25.710938 42.472656 27.382812 42.472656 29.226562 C 42.472656 31.074219 41.722656 32.742188 40.515625 33.953125 C 39.304688 35.160156 37.632812 35.910156 35.789062 35.910156 C 33.945312 35.910156 32.273438 35.160156 31.0625 33.953125 C 29.855469 32.742188 29.105469 31.074219 29.105469 29.226562 C 29.105469 27.382812 29.855469 25.710938 31.0625 24.5 C 32.273438 23.292969 33.945312 22.542969 35.789062 22.542969 Z M 39.0625 25.953125 C 38.226562 25.117188 37.066406 24.597656 35.789062 24.597656 C 34.511719 24.597656 33.351562 25.117188 32.515625 25.953125 C 31.679688 26.792969 31.160156 27.949219 31.160156 29.226562 C 31.160156 30.503906 31.679688 31.664062 32.515625 32.5 C 33.351562 33.339844 34.511719 33.855469 35.789062 33.855469 C 37.066406 33.855469 38.226562 33.339844 39.0625 32.5 C 39.898438 31.664062 40.417969 30.507812 40.417969 29.226562 C 40.417969 27.949219 39.898438 26.792969 39.0625 25.953125 Z M 39.0625 25.953125 " fill-opacity="1" fill-rule="nonzero"/><path fill="#107faa" d="M 35.789062 29.226562 L 30.375 29.226562 L 31.476562 24.796875 L 35.789062 23.8125 Z M 35.789062 29.226562 " fill-opacity="1" fill-rule="evenodd"/><path fill="#107faa" d="M 23.625 23.664062 C 23.605469 23.839844 23.449219 23.96875 23.273438 23.949219 C 23.097656 23.929688 22.96875 23.773438 22.988281 23.597656 C 22.988281 23.59375 23.125 22.453125 21.628906 22.484375 C 21.175781 22.496094 20.527344 22.542969 19.84375 22.59375 C 18.199219 22.71875 16.363281 22.855469 16.007812 22.4375 L 15.988281 22.414062 C 15.8125 22.1875 15.855469 21.9375 16.179688 21.664062 L 16.21875 21.636719 C 16.238281 21.621094 16.265625 21.605469 16.292969 21.589844 C 15.554688 21.484375 14.863281 21.375 14.246094 21.265625 C 13.289062 21.09375 12.507812 20.921875 12.003906 20.761719 C 11.109375 20.46875 10.84375 20.136719 11.449219 19.757812 C 11.628906 19.644531 12.023438 19.550781 12.664062 19.480469 C 12.992188 19.445312 13.34375 19.417969 13.703125 19.390625 C 13.394531 19.230469 13.222656 19.046875 13.207031 18.839844 C 12.429688 18.628906 11.882812 18.375 11.664062 18.078125 C 11.515625 17.882812 11.484375 17.671875 11.578125 17.449219 C 11.953125 16.574219 13.773438 16.164062 15.976562 16.039062 C 19.0625 15.859375 22.972656 16.1875 24.480469 16.539062 C 25.457031 16.765625 26.121094 17.109375 26.429688 17.464844 C 26.484375 17.527344 26.53125 17.589844 26.566406 17.65625 C 27.417969 17.757812 28.140625 17.886719 28.660156 18.03125 C 29.324219 18.214844 29.710938 18.476562 29.71875 18.820312 L 29.71875 18.828125 C 29.71875 18.945312 29.675781 19.058594 29.589844 19.164062 C 29.367188 19.429688 28.429688 19.613281 27.089844 19.71875 C 27.253906 19.746094 27.402344 19.773438 27.523438 19.796875 C 28.304688 19.960938 28.539062 20.222656 28.085938 20.582031 C 28 20.652344 27.835938 20.710938 27.597656 20.757812 C 25.945312 21.0625 19.539062 20.667969 15.949219 20.011719 L 15.546875 19.933594 C 14.527344 19.96875 13.570312 20.03125 12.730469 20.117188 C 12.554688 20.136719 12.40625 20.15625 12.277344 20.175781 C 12.75 20.320312 13.472656 20.476562 14.355469 20.632812 C 15.546875 20.84375 17.019531 21.058594 18.542969 21.25 C 20.660156 21.15625 23.6875 21.304688 25.722656 21.5 C 26.4375 21.566406 27.023438 21.640625 27.410156 21.707031 C 28.320312 21.867188 28.59375 22.125 28.007812 22.480469 C 27.933594 22.527344 27.796875 22.5625 27.597656 22.585938 L 27.582031 22.585938 C 26.949219 22.65625 25.273438 22.570312 23.226562 22.390625 C 23.714844 22.925781 23.628906 23.664062 23.628906 23.664062 Z M 16.699219 22.085938 C 17.152344 22.140625 18.246094 22.070312 19.34375 21.988281 C 18.972656 21.945312 18.601562 21.898438 18.234375 21.855469 C 17.511719 21.890625 16.960938 21.964844 16.699219 22.085938 Z M 11.789062 20.300781 C 11.667969 20.375 11.796875 20.308594 11.9375 20.242188 C 11.867188 20.261719 11.820312 20.28125 11.789062 20.300781 Z M 25.824219 20.210938 C 24.351562 20.066406 22.242188 19.953125 20.023438 19.910156 C 22.1875 20.121094 24.441406 20.242188 25.972656 20.226562 Z M 13.5625 18.269531 C 13.683594 18.191406 13.839844 18.121094 14.035156 18.054688 C 16.292969 17.273438 21.691406 17.210938 25.460938 17.539062 C 25.179688 17.402344 24.804688 17.269531 24.339844 17.164062 C 22.867188 16.824219 19.042969 16.503906 16.011719 16.675781 C 14.035156 16.789062 12.429688 17.09375 12.167969 17.699219 C 12.167969 17.703125 12.175781 17.691406 12.175781 17.699219 C 12.320312 17.890625 12.820312 18.085938 13.5625 18.269531 Z M 25.8125 18.21875 C 22.347656 17.875 17.230469 17.875 14.734375 18.511719 C 15.390625 18.628906 16.132812 18.730469 16.925781 18.816406 C 17.386719 18.867188 17.859375 18.914062 18.347656 18.957031 C 18.324219 18.914062 18.3125 18.867188 18.3125 18.816406 C 18.3125 18.640625 18.457031 18.496094 18.632812 18.496094 C 18.644531 18.496094 21.691406 18.496094 24.347656 18.457031 C 25.050781 18.449219 25.535156 18.355469 25.8125 18.21875 Z M 28.492188 18.644531 C 28.03125 18.519531 27.382812 18.402344 26.613281 18.304688 C 26.558594 18.429688 26.464844 18.546875 26.332031 18.648438 C 25.992188 18.902344 25.339844 19.082031 24.355469 19.097656 C 23.105469 19.113281 21.847656 19.125 20.835938 19.128906 C 24.652344 19.335938 28.386719 19.257812 29.035156 18.808594 C 28.957031 18.777344 28.765625 18.722656 28.492188 18.644531 Z M 28.492188 18.644531 " fill-opacity="1" fill-rule="nonzero"/><path fill="#107faa" d="M 30.953125 19.691406 L 31.390625 20.230469 L 30.207031 21.355469 L 32.421875 20.449219 L 31.949219 19.867188 L 32.839844 19.246094 L 32.179688 18.449219 Z M 30.953125 19.691406 " fill-opacity="1" fill-rule="evenodd"/><path fill="#107faa" d="M 13.789062 24.023438 L 13.351562 24.5625 L 14.535156 25.6875 L 12.316406 24.78125 L 12.792969 24.199219 L 11.898438 23.578125 L 12.5625 22.78125 Z M 13.789062 24.023438 " fill-opacity="1" fill-rule="evenodd"/><path fill="#107faa" d="M 29.933594 14.992188 C 29.433594 14.992188 29.027344 14.585938 29.027344 14.089844 C 29.027344 14.585938 28.621094 14.992188 28.125 14.992188 C 28.621094 14.992188 29.027344 15.398438 29.027344 15.894531 C 29.027344 15.398438 29.433594 14.992188 29.933594 14.992188 Z M 29.933594 14.992188 " fill-opacity="1" fill-rule="evenodd"/><g clip-path="url(#523bb36f2b)"><path fill="#107faa" d="M 12.160156 14.191406 C 11.664062 14.191406 11.257812 13.785156 11.257812 13.285156 C 11.257812 13.785156 10.851562 14.191406 10.355469 14.191406 C 10.851562 14.191406 11.257812 14.597656 11.257812 15.09375 C 11.257812 14.597656 11.664062 14.191406 12.160156 14.191406 Z M 12.160156 14.191406 " fill-opacity="1" fill-rule="evenodd"/></g></svg>